AsbirSans-Thin.ufo
<glyph name="uni0021" format="2">
  <advance width="250"/>
  <unicode hex="0021"/>
  <outline>
    <contour>
      <point x="218" y="130" type="line"/>
      <point x="254" y="130" type="line"/>
      <point x="254" y="555" type="line"/>
      <point x="218" y="555" type="line"/>
    </contour>
    <contour>
      <point x="268.0" y="35" type="curve"/>
      <point x="268.0" y="44.9411255"/>
      <point x="259.9411255" y="53.0"/>
      <point x="250" y="53.0" type="curve"/>
      <point x="240.0588745" y="53.0"/>
      <point x="232.0" y="44.9411255"/>
      <point x="232.0" y="35" type="curve"/>
      <point x="232.0" y="25.0588745"/>
      <point x="240.0588745" y="17.0"/>
      <point x="250" y="17.0" type="curve"/>
      <point x="259.9411255" y="17.0"/>
      <point x="268.0" y="25.0588745"/>
    </contour>
  </outline>
</glyph>
<glyph name="uni0023" format="2">
  <advance width="560"/>
  <unicode hex="0023"/>
  <outline>
    <contour>
      <point x="160" y="80" type="line"/>
      <point x="196" y="80" type="line"/>
      <point x="196" y="620" type="line"/>
      <point x="160" y="620" type="line"/>
    </contour>
    <contour>
      <point x="300" y="80" type="line"/>
      <point x="336" y="80" type="line"/>
      <point x="336" y="620" type="line"/>
      <point x="300" y="620" type="line"/>
    </contour>
    <contour>
      <point x="80" y="240" type="line"/>
      <point x="420" y="240" type="line"/>
      <point x="420" y="276" type="line"/>
      <point x="80" y="276" type="line"/>
    </contour>
    <contour>
      <point x="80" y="400" type="line"/>
      <point x="420" y="400" type="line"/>
      <point x="420" y="436" type="line"/>
      <point x="80" y="436" type="line"/>
    </contour>
  </outline>
</glyph>
<glyph name="uni002F" format="2">
  <advance width="500"/>
  <unicode hex="002F"/>
  <outline>
    <contour>
      <point x="103.12634510382422" y="6.267357532865288" type="line"/>
      <point x="363.12634510382424" y="706.2673575328653" type="line"/>
      <point x="396.87365489617576" y="693.7326424671347" type="line"/>
      <point x="136.87365489617576" y="-6.267357532865288" type="line"/>
    </contour>
  </outline>
</glyph>
<glyph name="uni0030" format="2">
  <advance width="500"/>
  <unicode hex="0030"/>
  <outline>
    <contour>
      <point x="430" y="350" type="curve"/>
      <point x="430" y="543.2996625000001"/>
      <point x="349.411255" y="700"/>
      <point x="250" y="700" type="curve"/>
      <point x="150.58874500000002" y="700"/>
      <point x="70" y="543.2996625000001"/>
      <point x="70" y="350" type="curve"/>
      <point x="70" y="156.7003375"/>
      <point x="150.58874500000002" y="0"/>
      <point x="250" y="0" type="curve"/>
      <point x="349.411255" y="0"/>
      <point x="430" y="156.7003375"/>
    </contour>
    <contour>
      <point x="400" y="350" type="curve"/>
      <point x="400" y="173.26888"/>
      <point x="332.8427125" y="30"/>
      <point x="250" y="30" type="curve"/>
      <point x="167.1572875" y="30"/>
      <point x="100" y="173.26888"/>
      <point x="100" y="350" type="curve"/>
      <point x="100" y="526.73112"/>
      <point x="167.1572875" y="670"/>
      <point x="250" y="670" type="curve"/>
      <point x="332.8427125" y="670"/>
      <point x="400" y="526.73112"/>
    </contour>
  </outline>
</glyph>
<glyph name="uni0031" format="2">
  <advance width="500"/>
  <unicode hex="0031"/>
  <outline>
    <contour>
      <point x="226.4" y="0" type="curve"/>
      <point x="239.6" y="0" type="line"/>
      <point x="244.23919189999998" y="0"/>
      <point x="248" y="3.7608081"/>
      <point x="248" y="8.4" type="curve"/>
      <point x="248" y="691.6" type="line"/>
      <point x="248" y="696.2391919"/>
      <point x="244.23919189999998" y="700"/>
      <point x="239.6" y="700" type="curve"/>
      <point x="226.4" y="700" type="line"/>
      <point x="221.76080810000002" y="700"/>
      <point x="218" y="696.2391919"/>
      <point x="218" y="691.6" type="curve"/>
      <point x="218" y="8.4" type="line"/>
      <point x="218" y="3.7608081"/>
      <point x="221.76080810000002" y="0"/>
    </contour>
    <contour>
      <point x="93.32774804933503" y="569.421174788751" type="line"/>
      <point x="206.327748049335" y="709.421174788751" type="line"/>
      <point x="229.672251950665" y="690.578825211249" type="line"/>
      <point x="116.67225195066497" y="550.578825211249" type="line"/>
    </contour>
  </outline>
</glyph>
<glyph name="uni0033" format="2">
  <advance width="500"/>
  <unicode hex="0033"/>
  <outline>
    <contour>
      <point x="408.5" y="697.0" type="line"/>
      <point x="283.8" y="702.4"/>
      <point x="85.5" y="697.6"/>
      <point x="84.0" y="434.0" type="curve"/>
      <point x="82.5" y="357.0"/>
      <point x="229.72" y="352.4"/>
      <point x="246.62" y="350" type="curve"/>
      <point x="283.8" y="266.0"/>
      <point x="417.8" y="329.0"/>
      <point x="416.6" y="203.0" type="curve"/>
      <point x="415.4" y="1.5"/>
      <point x="209.44" y="-1.7999999999999998"/>
      <point x="82.5" y="4.2" type="curve"/>
      <point x="85.8" y="29.4" type="line"/>
      <point x="216.2" y="18.6"/>
      <point x="399.5" y="25.5"/>
      <point x="401.6" y="189.0" type="curve"/>
      <point x="402.8" y="315.0"/>
      <point x="266.9" y="308.0"/>
      <point x="236.48" y="350.9" type="curve"/>
      <point x="192.54" y="354.5"/>
      <point x="94.8" y="353.6"/>
      <point x="96.6" y="448.0" type="curve"/>
      <point x="98.4" y="681.4"/>
      <point x="277.04" y="686.5"/>
      <point x="409.4" y="670.6" type="curve"/>
    </contour>
    <contour>
      <point x="242.2" y="316" type="curve"/>
      <point x="347.8" y="316" type="line"/>
      <point x="351.7764502" y="316"/>
      <point x="355" y="319.2235498"/>
      <point x="355" y="323.2" type="curve"/>
      <point x="355" y="338.8" type="line"/>
      <point x="355" y="342.7764502"/>
      <point x="351.7764502" y="346"/>
      <point x="347.8" y="346" type="curve"/>
      <point x="242.2" y="346" type="line"/>
      <point x="238.2235498" y="346"/>
      <point x="235" y="342.7764502"/>
      <point x="235" y="338.8" type="curve"/>
      <point x="235" y="323.2" type="line"/>
      <point x="235" y="319.2235498"/>
      <point x="238.2235498" y="316"/>
    </contour>
  </outline>
</glyph>
<glyph name="uni0034" format="2">
  <advance width="500"/>
  <unicode hex="0034"/>
  <outline>
    <contour>
      <point x="328.4" y="0" type="curve"/>
      <point x="341.6" y="0" type="line"/>
      <point x="346.23919190000004" y="0"/>
      <point x="350" y="3.7608081"/>
      <point x="350" y="8.4" type="curve"/>
      <point x="350" y="691.6" type="line"/>
      <point x="350" y="696.2391919"/>
      <point x="346.23919190000004" y="700"/>
      <point x="341.6" y="700" type="curve"/>
      <point x="328.4" y="700" type="line"/>
      <point x="323.76080809999996" y="700"/>
      <point x="320" y="696.2391919"/>
      <point x="320" y="691.6" type="curve"/>
      <point x="320" y="8.4" type="line"/>
      <point x="320" y="3.7608081"/>
      <point x="323.76080809999996" y="0"/>
    </contour>
    <contour>
      <point x="66.09579780165262" y="285.62789136599775" type="line"/>
      <point x="236.09579780165262" y="705.6278913659977" type="line"/>
      <point x="263.9042021983474" y="694.3721086340023" type="line"/>
      <point x="93.90420219834738" y="274.37210863400225" type="line"/>
    </contour>
    <contour>
      <point x="87.2" y="280" type="curve"/>
      <point x="402.8" y="280" type="line"/>
      <point x="406.7764502" y="280"/>
      <point x="410" y="283.2235498"/>
      <point x="410" y="287.2" type="curve"/>
      <point x="410" y="302.8" type="line"/>
      <point x="410" y="306.7764502"/>
      <point x="406.7764502" y="310"/>
      <point x="402.8" y="310" type="curve"/>
      <point x="87.2" y="310" type="line"/>
      <point x="83.2235498" y="310"/>
      <point x="80" y="306.7764502"/>
      <point x="80" y="302.8" type="curve"/>
      <point x="80" y="287.2" type="line"/>
      <point x="80" y="283.2235498"/>
      <point x="83.2235498" y="280"/>
    </contour>
  </outline>
</glyph>
<glyph name="uni0036" format="2">
  <advance width="500"/>
  <unicode hex="0036"/>
  <outline>
    <contour>
      <point x="425" y="190" type="curve"/>
      <point x="425" y="294.9341025"/>
      <point x="346.64983125000003" y="380"/>
      <point x="250" y="380" type="curve"/>
      <point x="153.35016875" y="380"/>
      <point x="75" y="294.9341025"/>
      <point x="75" y="190" type="curve"/>
      <point x="75" y="85.0658975"/>
      <point x="153.35016875" y="0"/>
      <point x="250" y="0" type="curve"/>
      <point x="346.64983125000003" y="0"/>
      <point x="425" y="85.0658975"/>
    </contour>
    <contour>
      <point x="395" y="190" type="curve"/>
      <point x="395" y="101.63444"/>
      <point x="330.08128875" y="30"/>
      <point x="250" y="30" type="curve"/>
      <point x="169.91871125" y="30"/>
      <point x="105" y="101.63444"/>
      <point x="105" y="190" type="curve"/>
      <point x="105" y="278.36556"/>
      <point x="169.91871125" y="350"/>
      <point x="250" y="350" type="curve"/>
      <point x="330.08128875" y="350"/>
      <point x="395" y="278.36556"/>
    </contour>
    <contour>
      <point x="75" y="190" type="line"/>
      <point x="75" y="505"/>
      <point x="188" y="710"/>
      <point x="352" y="710" type="curve"/>
      <point x="385" y="646" type="line"/>
      <point x="250" y="636"/>
      <point x="139" y="492"/>
      <point x="139" y="220" type="curve"/>
    </contour>
  </outline>
</glyph>
<glyph name="uni0037" format="2">
  <advance width="500"/>
  <unicode hex="0037"/>
  <outline>
    <contour>
      <point x="77.2" y="670" type="curve"/>
      <point x="422.8" y="670" type="line"/>
      <point x="426.7764502" y="670"/>
      <point x="430" y="673.2235498"/>
      <point x="430" y="677.2" type="curve"/>
      <point x="430" y="692.8" type="line"/>
      <point x="430" y="696.7764502"/>
      <point x="426.7764502" y="700"/>
      <point x="422.8" y="700" type="curve"/>
      <point x="77.2" y="700" type="line"/>
      <point x="73.2235498" y="700"/>
      <point x="70" y="696.7764502"/>
      <point x="70" y="692.8" type="curve"/>
      <point x="70" y="677.2" type="line"/>
      <point x="70" y="673.2235498"/>
      <point x="73.2235498" y="670"/>
    </contour>
    <contour>
      <point x="424.1562636558108" y="680.0401412008838" type="line"/>
      <point x="184.1562636558108" y="-4.9598587991161915" type="line"/>
      <point x="155.8437363441892" y="4.9598587991161915" type="line"/>
      <point x="395.8437363441892" y="689.9598587991162" type="line"/>
    </contour>
  </outline>
</glyph>
<glyph name="uni0038" format="2">
  <advance width="500"/>
  <unicode hex="0038"/>
  <outline>
    <contour>
      <point x="415" y="525" type="curve"/>
      <point x="415" y="613.36556"/>
      <point x="341.12698375" y="685"/>
      <point x="250" y="685" type="curve"/>
      <point x="158.87301625" y="685"/>
      <point x="85" y="613.36556"/>
      <point x="85" y="525" type="curve"/>
      <point x="85" y="436.63444"/>
      <point x="158.87301625" y="365"/>
      <point x="250" y="365" type="curve"/>
      <point x="341.12698375" y="365"/>
      <point x="415" y="436.63444"/>
    </contour>
    <contour>
      <point x="385" y="525" type="curve"/>
      <point x="385" y="453.2029825"/>
      <point x="324.55844125" y="395"/>
      <point x="250" y="395" type="curve"/>
      <point x="175.44155875" y="395"/>
      <point x="115" y="453.2029825"/>
      <point x="115" y="525" type="curve"/>
      <point x="115" y="596.7970175"/>
      <point x="175.44155875" y="655"/>
      <point x="250" y="655" type="curve"/>
      <point x="324.55844125" y="655"/>
      <point x="385" y="596.7970175"/>
    </contour>
    <contour>
      <point x="415" y="175" type="curve"/>
      <point x="415" y="263.36556"/>
      <point x="341.12698375" y="335"/>
      <point x="250" y="335" type="curve"/>
      <point x="158.87301625" y="335"/>
      <point x="85" y="263.36556"/>
      <point x="85" y="175" type="curve"/>
      <point x="85" y="86.63444"/>
      <point x="158.87301625" y="15"/>
      <point x="250" y="15" type="curve"/>
      <point x="341.12698375" y="15"/>
      <point x="415" y="86.63444"/>
    </contour>
    <contour>
      <point x="385" y="175" type="curve"/>
      <point x="385" y="103.2029825"/>
      <point x="324.55844125" y="45"/>
      <point x="250" y="45" type="curve"/>
      <point x="175.44155875" y="45"/>
      <point x="115" y="103.2029825"/>
      <point x="115" y="175" type="curve"/>
      <point x="115" y="246.79701749999998"/>
      <point x="175.44155875" y="305"/>
      <point x="250" y="305" type="curve"/>
      <point x="324.55844125" y="305"/>
      <point x="385" y="246.79701749999998"/>
    </contour>
  </outline>
</glyph>
<glyph name="uni0039" format="2">
  <advance width="500"/>
  <unicode hex="0039"/>
  <outline>
    <contour>
      <point x="425" y="510" type="curve"/>
      <point x="425" y="614.9341025"/>
      <point x="346.64983125000003" y="700"/>
      <point x="250" y="700" type="curve"/>
      <point x="153.35016875" y="700"/>
      <point x="75" y="614.9341025"/>
      <point x="75" y="510" type="curve"/>
      <point x="75" y="405.0658975"/>
      <point x="153.35016875" y="320"/>
      <point x="250" y="320" type="curve"/>
      <point x="346.64983125000003" y="320"/>
      <point x="425" y="405.0658975"/>
    </contour>
    <contour>
      <point x="395" y="510" type="curve"/>
      <point x="395" y="421.63444"/>
      <point x="330.08128875" y="350"/>
      <point x="250" y="350" type="curve"/>
      <point x="169.91871125" y="350"/>
      <point x="105" y="421.63444"/>
      <point x="105" y="510" type="curve"/>
      <point x="105" y="598.36556"/>
      <point x="169.91871125" y="670"/>
      <point x="250" y="670" type="curve"/>
      <point x="330.08128875" y="670"/>
      <point x="395" y="598.36556"/>
    </contour>
    <contour>
      <point x="425" y="510" type="line"/>
      <point x="425" y="194"/>
      <point x="312" y="-10"/>
      <point x="148" y="-10" type="curve"/>
      <point x="115" y="54" type="line"/>
      <point x="250" y="64"/>
      <point x="361" y="208"/>
      <point x="361" y="480" type="curve"/>
    </contour>
  </outline>
</glyph>
<glyph name="uni0040" format="2">
  <advance width="560"/>
  <unicode hex="0040"/>
  <outline>
    <contour>
      <point x="460" y="350" type="curve"/>
      <point x="460" y="504.63973"/>
      <point x="365.9797975" y="630"/>
      <point x="250" y="630" type="curve"/>
      <point x="134.02020249999998" y="630"/>
      <point x="40" y="504.63973"/>
      <point x="40" y="350" type="curve"/>
      <point x="40" y="195.36027"/>
      <point x="134.02020249999998" y="70"/>
      <point x="250" y="70" type="curve"/>
      <point x="365.9797975" y="70"/>
      <point x="460" y="195.36027"/>
    </contour>
    <contour>
      <point x="424" y="350" type="curve"/>
      <point x="424" y="215.242521"/>
      <point x="346.0975465" y="106"/>
      <point x="250" y="106" type="curve"/>
      <point x="153.9024535" y="106"/>
      <point x="76" y="215.242521"/>
      <point x="76" y="350" type="curve"/>
      <point x="76" y="484.757479"/>
      <point x="153.9024535" y="594"/>
      <point x="250" y="594" type="curve"/>
      <point x="346.0975465" y="594"/>
      <point x="424" y="484.757479"/>
    </contour>
    <contour>
      <point x="360" y="350" type="curve"/>
      <point x="360" y="416.27417"/>
      <point x="315.228475" y="470"/>
      <point x="260" y="470" type="curve"/>
      <point x="204.771525" y="470"/>
      <point x="160" y="416.27417"/>
      <point x="160" y="350" type="curve"/>
      <point x="160" y="283.72583"/>
      <point x="204.771525" y="230"/>
      <point x="260" y="230" type="curve"/>
      <point x="315.228475" y="230"/>
      <point x="360" y="283.72583"/>
    </contour>
    <contour>
      <point x="324" y="350" type="curve"/>
      <point x="324" y="303.60808099999997"/>
      <point x="295.346224" y="266"/>
      <point x="260" y="266" type="curve"/>
      <point x="224.653776" y="266"/>
      <point x="196" y="303.60808099999997"/>
      <point x="196" y="350" type="curve"/>
      <point x="196" y="396.39191900000003"/>
      <point x="224.653776" y="434"/>
      <point x="260" y="434" type="curve"/>
      <point x="295.346224" y="434"/>
      <point x="324" y="396.39191900000003"/>
    </contour>
    <contour>
      <point x="320" y="290" type="line"/>
      <point x="356" y="290" type="line"/>
      <point x="356" y="440" type="line"/>
      <point x="320" y="440" type="line"/>
    </contour>
  </outline>
</glyph>
<glyph name="A" format="2">
  <advance width="500"/>
  <unicode hex="0041"/>
  <outline>
    <contour>
      <point x="57.324427998284165" y="3.10283522321992" type="line"/>
      <point x="205.32442799828416" y="703.1028352232199" type="line"/>
      <point x="234.67557200171584" y="696.8971647767801" type="line"/>
      <point x="86.67557200171584" y="-3.10283522321992" type="line"/>
    </contour>
    <contour>
      <point x="413.32442799828414" y="-3.10283522321992" type="line"/>
      <point x="265.32442799828414" y="696.8971647767801" type="line"/>
      <point x="294.67557200171586" y="703.1028352232199" type="line"/>
      <point x="442.67557200171586" y="3.10283522321992" type="line"/>
    </contour>
    <contour>
      <point x="157.6" y="286" type="curve"/>
      <point x="342.4" y="286" type="line"/>
      <point x="346.04507935" y="286"/>
      <point x="349" y="288.95492065"/>
      <point x="349" y="292.6" type="curve"/>
      <point x="349" y="304.0" type="line"/>
      <point x="349" y="307.64507935"/>
      <point x="346.04507935" y="310.6"/>
      <point x="342.4" y="310.6" type="curve"/>
      <point x="157.6" y="310.6" type="line"/>
      <point x="153.95492065" y="310.6"/>
      <point x="151" y="307.64507935"/>
      <point x="151" y="304.0" type="curve"/>
      <point x="151" y="292.6" type="line"/>
      <point x="151" y="288.95492065"/>
      <point x="153.95492065" y="286"/>
    </contour>
  </outline>
</glyph>
<glyph name="B" format="2">
  <advance width="500"/>
  <unicode hex="0042"/>
  <outline>
    <contour>
      <point x="40" y="0" type="line"/>
      <point x="70" y="0" type="line"/>
      <point x="70" y="700" type="line"/>
      <point x="40" y="700" type="line"/>
    </contour>
    <contour>
      <point x="435" y="525" type="curve"/>
      <point x="435" y="613.36556"/>
      <point x="349.9341025" y="685"/>
      <point x="245" y="685" type="curve"/>
      <point x="140.0658975" y="685"/>
      <point x="55" y="613.36556"/>
      <point x="55" y="525" type="curve"/>
      <point x="55" y="436.63444"/>
      <point x="140.0658975" y="365"/>
      <point x="245" y="365" type="curve"/>
      <point x="349.9341025" y="365"/>
      <point x="435" y="436.63444"/>
    </contour>
    <contour>
      <point x="405" y="525" type="curve"/>
      <point x="405" y="453.2029825"/>
      <point x="333.36556" y="395"/>
      <point x="245" y="395" type="curve"/>
      <point x="156.63443999999998" y="395"/>
      <point x="85" y="453.2029825"/>
      <point x="85" y="525" type="curve"/>
      <point x="85" y="596.7970175"/>
      <point x="156.63443999999998" y="655"/>
      <point x="245" y="655" type="curve"/>
      <point x="333.36556" y="655"/>
      <point x="405" y="596.7970175"/>
    </contour>
    <contour>
      <point x="435" y="175" type="curve"/>
      <point x="435" y="263.36556"/>
      <point x="349.9341025" y="335"/>
      <point x="245" y="335" type="curve"/>
      <point x="140.0658975" y="335"/>
      <point x="55" y="263.36556"/>
      <point x="55" y="175" type="curve"/>
      <point x="55" y="86.63444"/>
      <point x="140.0658975" y="15"/>
      <point x="245" y="15" type="curve"/>
      <point x="349.9341025" y="15"/>
      <point x="435" y="86.63444"/>
    </contour>
    <contour>
      <point x="405" y="175" type="curve"/>
      <point x="405" y="103.2029825"/>
      <point x="333.36556" y="45"/>
      <point x="245" y="45" type="curve"/>
      <point x="156.63443999999998" y="45"/>
      <point x="85" y="103.2029825"/>
      <point x="85" y="175" type="curve"/>
      <point x="85" y="246.79701749999998"/>
      <point x="156.63443999999998" y="305"/>
      <point x="245" y="305" type="curve"/>
      <point x="333.36556" y="305"/>
      <point x="405" y="246.79701749999998"/>
    </contour>
  </outline>
</glyph>
<glyph name="F" format="2">
  <advance width="500"/>
  <unicode hex="0046"/>
  <outline>
    <contour>
      <point x="40" y="0" type="line"/>
      <point x="70" y="0" type="line"/>
      <point x="70" y="700" type="line"/>
      <point x="40" y="700" type="line"/>
    </contour>
    <contour>
      <point x="40" y="670" type="line"/>
      <point x="430" y="670" type="line"/>
      <point x="430" y="700" type="line"/>
      <point x="40" y="700" type="line"/>
    </contour>
    <contour>
      <point x="40" y="310" type="line"/>
      <point x="310" y="310" type="line"/>
      <point x="310" y="340" type="line"/>
      <point x="40" y="340" type="line"/>
    </contour>
  </outline>
</glyph>
<glyph name="G" format="2">
  <advance width="500"/>
  <unicode hex="0047"/>
  <outline>
    <contour>
      <point x="419.48" y="588.0" type="line"/>
      <point x="353.76" y="700"/>
      <point x="162.96" y="700"/>
      <point x="40" y="500.5" type="curve"/>
      <point x="40" y="199.5"/>
      <point x="162.96" y="0"/>
      <point x="353.76" y="0" type="curve"/>
      <point x="406.76" y="87.5"/>
      <point x="419.48" y="147.0"/>
      <point x="419.48" y="175.0" type="curve"/>
      <point x="395.78" y="213.5" type="line"/>
      <point x="332.56" y="30"/>
      <point x="70" y="238.0"/>
      <point x="70" y="350" type="curve"/>
      <point x="70" y="462.0"/>
      <point x="332.56" y="670"/>
      <point x="395.78" y="486.5" type="curve"/>
    </contour>
    <contour>
      <point x="258.4" y="294" type="curve"/>
      <point x="431.6" y="294" type="line"/>
      <point x="436.23919190000004" y="294"/>
      <point x="440" y="297.76080809999996"/>
      <point x="440" y="302.4" type="curve"/>
      <point x="440" y="315.6" type="line"/>
      <point x="440" y="320.23919190000004"/>
      <point x="436.23919190000004" y="324"/>
      <point x="431.6" y="324" type="curve"/>
      <point x="258.4" y="324" type="line"/>
      <point x="253.76080809999996" y="324"/>
      <point x="250" y="320.23919190000004"/>
      <point x="250" y="315.6" type="curve"/>
      <point x="250" y="302.4" type="line"/>
      <point x="250" y="297.76080809999996"/>
      <point x="253.76080809999996" y="294"/>
    </contour>
    <contour>
      <point x="384.4" y="132" type="curve"/>
      <point x="397.6" y="132" type="line"/>
      <point x="402.23919190000004" y="132"/>
      <point x="406" y="135.76080810000002"/>
      <point x="406" y="140.4" type="curve"/>
      <point x="406" y="291.6" type="line"/>
      <point x="406" y="296.23919190000004"/>
      <point x="402.23919190000004" y="300"/>
      <point x="397.6" y="300" type="curve"/>
      <point x="384.4" y="300" type="line"/>
      <point x="379.76080809999996" y="300"/>
      <point x="376" y="296.23919190000004"/>
      <point x="376" y="291.6" type="curve"/>
      <point x="376" y="140.4" type="line"/>
      <point x="376" y="135.76080810000002"/>
      <point x="379.76080809999996" y="132"/>
    </contour>
  </outline>
</glyph>
<glyph name="H" format="2">
  <advance width="500"/>
  <unicode hex="0048"/>
  <outline>
    <contour>
      <point x="40" y="0" type="line"/>
      <point x="70" y="0" type="line"/>
      <point x="70" y="700" type="line"/>
      <point x="40" y="700" type="line"/>
    </contour>
    <contour>
      <point x="396" y="0" type="line"/>
      <point x="426" y="0" type="line"/>
      <point x="426" y="700" type="line"/>
      <point x="396" y="700" type="line"/>
    </contour>
    <contour>
      <point x="40" y="320" type="line"/>
      <point x="460" y="320" type="line"/>
      <point x="460" y="350" type="line"/>
      <point x="40" y="350" type="line"/>
    </contour>
  </outline>
</glyph>
<glyph name="J" format="2">
  <advance width="500"/>
  <unicode hex="004A"/>
  <outline>
    <contour>
      <point x="353.4" y="150" type="curve"/>
      <point x="366.6" y="150" type="line"/>
      <point x="371.23919190000004" y="150"/>
      <point x="375" y="153.76080810000002"/>
      <point x="375" y="158.4" type="curve"/>
      <point x="375" y="691.6" type="line"/>
      <point x="375" y="696.2391919"/>
      <point x="371.23919190000004" y="700"/>
      <point x="366.6" y="700" type="curve"/>
      <point x="353.4" y="700" type="line"/>
      <point x="348.76080809999996" y="700"/>
      <point x="345" y="696.2391919"/>
      <point x="345" y="691.6" type="curve"/>
      <point x="345" y="158.4" type="line"/>
      <point x="345" y="153.76080810000002"/>
      <point x="348.76080809999996" y="150"/>
    </contour>
    <contour>
      <point x="409" y="150" type="line"/>
      <point x="409" y="42"/>
      <point x="328" y="-8"/>
      <point x="218" y="-8" type="curve"/>
      <point x="110" y="-8"/>
      <point x="48" y="47"/>
      <point x="48" y="160" type="curve"/>
      <point x="112" y="160" type="line"/>
      <point x="112" y="85"/>
      <point x="147" y="54"/>
      <point x="218" y="54" type="curve"/>
      <point x="286" y="54"/>
      <point x="345" y="83"/>
      <point x="345" y="150" type="curve"/>
    </contour>
  </outline>
</glyph>
<glyph name="K" format="2">
  <advance width="500"/>
  <unicode hex="004B"/>
  <outline>
    <contour>
      <point x="40" y="0" type="line"/>
      <point x="70" y="0" type="line"/>
      <point x="70" y="700" type="line"/>
      <point x="40" y="700" type="line"/>
    </contour>
    <contour>
      <point x="440.97625207399665" y="689.7764052110774" type="line"/>
      <point x="114.97625207399662" y="339.7764052110774" type="line"/>
      <point x="93.02374792600338" y="360.2235947889226" type="line"/>
      <point x="419.02374792600335" y="710.2235947889226" type="line"/>
    </contour>
    <contour>
      <point x="114.82080981546427" y="360.3879774228457" type="line"/>
      <point x="450.82080981546426" y="10.387977422845703" type="line"/>
      <point x="429.17919018453574" y="-10.387977422845703" type="line"/>
      <point x="93.17919018453573" y="339.6120225771543" type="line"/>
    </contour>
  </outline>
</glyph>
<glyph name="L" format="2">
  <advance width="500"/>
  <unicode hex="004C"/>
  <outline>
    <contour>
      <point x="40" y="0" type="line"/>
      <point x="70" y="0" type="line"/>
      <point x="70" y="700" type="line"/>
      <point x="40" y="700" type="line"/>
    </contour>
    <contour>
      <point x="40" y="0" type="line"/>
      <point x="440" y="0" type="line"/>
      <point x="440" y="30" type="line"/>
      <point x="40" y="30" type="line"/>
    </contour>
  </outline>
</glyph>
<glyph name="M" format="2">
  <advance width="560"/>
  <unicode hex="004D"/>
  <outline>
    <contour>
      <point x="40" y="0" type="line"/>
      <point x="70" y="0" type="line"/>
      <point x="70" y="700" type="line"/>
      <point x="40" y="700" type="line"/>
    </contour>
    <contour>
      <point x="430" y="0" type="line"/>
      <point x="460" y="0" type="line"/>
      <point x="460" y="700" type="line"/>
      <point x="430" y="700" type="line"/>
    </contour>
    <contour>
      <point x="117.84381224824529" y="705.7748473949823" type="line"/>
      <point x="263.8438122482453" y="355.7748473949823" type="line"/>
      <point x="236.15618775175471" y="344.2251526050177" type="line"/>
      <point x="90.15618775175471" y="694.2251526050177" type="line"/>
    </contour>
    <contour>
      <point x="409.8438122482453" y="694.2251526050177" type="line"/>
      <point x="263.8438122482453" y="344.2251526050177" type="line"/>
      <point x="236.15618775175471" y="355.7748473949823" type="line"/>
      <point x="382.1561877517547" y="705.7748473949823" type="line"/>
    </contour>
  </outline>
</glyph>
<glyph name="N" format="2">
  <advance width="500"/>
  <unicode hex="004E"/>
  <outline>
    <contour>
      <point x="40" y="0" type="line"/>
      <point x="70" y="0" type="line"/>
      <point x="70" y="700" type="line"/>
      <point x="40" y="700" type="line"/>
    </contour>
    <contour>
      <point x="396" y="0" type="line"/>
      <point x="426" y="0" type="line"/>
      <point x="426" y="700" type="line"/>
      <point x="396" y="700" type="line"/>
    </contour>
    <contour>
      <point x="117.84381224824529" y="705.7748473949823" type="line"/>
      <point x="409.8438122482453" y="5.774847394982316" type="line"/>
      <point x="382.1561877517547" y="-5.774847394982316" type="line"/>
      <point x="90.15618775175471" y="694.2251526050177" type="line"/>
    </contour>
  </outline>
</glyph>
<glyph name="O" format="2">
  <advance width="500"/>
  <unicode hex="004F"/>
  <outline>
    <contour>
      <point x="460" y="350" type="curve"/>
      <point x="460" y="543.2996625000001"/>
      <point x="365.9797975" y="700"/>
      <point x="250" y="700" type="curve"/>
      <point x="134.02020249999998" y="700"/>
      <point x="40" y="543.2996625000001"/>
      <point x="40" y="350" type="curve"/>
      <point x="40" y="156.7003375"/>
      <point x="134.02020249999998" y="0"/>
      <point x="250" y="0" type="curve"/>
      <point x="365.9797975" y="0"/>
      <point x="460" y="156.7003375"/>
    </contour>
    <contour>
      <point x="430" y="350" type="curve"/>
      <point x="430" y="173.26888"/>
      <point x="349.411255" y="30"/>
      <point x="250" y="30" type="curve"/>
      <point x="150.58874500000002" y="30"/>
      <point x="70" y="173.26888"/>
      <point x="70" y="350" type="curve"/>
      <point x="70" y="526.73112"/>
      <point x="150.58874500000002" y="670"/>
      <point x="250" y="670" type="curve"/>
      <point x="349.411255" y="670"/>
      <point x="430" y="526.73112"/>
    </contour>
  </outline>
</glyph>
<glyph name="R" format="2">
  <advance width="500"/>
  <unicode hex="0052"/>
  <outline>
    <contour>
      <point x="40" y="0" type="line"/>
      <point x="70" y="0" type="line"/>
      <point x="70" y="700" type="line"/>
      <point x="40" y="700" type="line"/>
    </contour>
    <contour>
      <point x="435" y="525" type="curve"/>
      <point x="435" y="613.36556"/>
      <point x="349.9341025" y="685"/>
      <point x="245" y="685" type="curve"/>
      <point x="140.0658975" y="685"/>
      <point x="55" y="613.36556"/>
      <point x="55" y="525" type="curve"/>
      <point x="55" y="436.63444"/>
      <point x="140.0658975" y="365"/>
      <point x="245" y="365" type="curve"/>
      <point x="349.9341025" y="365"/>
      <point x="435" y="436.63444"/>
    </contour>
    <contour>
      <point x="405" y="525" type="curve"/>
      <point x="405" y="453.2029825"/>
      <point x="333.36556" y="395"/>
      <point x="245" y="395" type="curve"/>
      <point x="156.63443999999998" y="395"/>
      <point x="85" y="453.2029825"/>
      <point x="85" y="525" type="curve"/>
      <point x="85" y="596.7970175"/>
      <point x="156.63443999999998" y="655"/>
      <point x="245" y="655" type="curve"/>
      <point x="333.36556" y="655"/>
      <point x="405" y="596.7970175"/>
    </contour>
    <contour>
      <point x="263.2657712927045" y="367.0013792933718" type="line"/>
      <point x="453.2657712927045" y="7.001379293371843" type="line"/>
      <point x="426.7342287072955" y="-7.001379293371843" type="line"/>
      <point x="236.73422870729544" y="352.9986207066282" type="line"/>
    </contour>
  </outline>
</glyph>
<glyph name="S" format="2">
  <advance width="500"/>
  <unicode hex="0053"/>
  <outline>
    <contour>
      <point x="424.5" y="697.0" type="line"/>
      <point x="287.0" y="702.4"/>
      <point x="69.5" y="697.6"/>
      <point x="68.0" y="434.0" type="curve"/>
      <point x="66.5" y="357.0"/>
      <point x="227.8" y="352.4"/>
      <point x="246.3" y="350" type="curve"/>
      <point x="287.0" y="266.0"/>
      <point x="433.8" y="329.0"/>
      <point x="432.6" y="203.0" type="curve"/>
      <point x="431.4" y="1.5"/>
      <point x="205.6" y="-1.7999999999999998"/>
      <point x="66.5" y="4.2" type="curve"/>
      <point x="69.8" y="29.4" type="line"/>
      <point x="213.0" y="18.6"/>
      <point x="415.5" y="25.5"/>
      <point x="417.6" y="189.0" type="curve"/>
      <point x="418.8" y="315.0"/>
      <point x="268.5" y="308.0"/>
      <point x="235.2" y="350.9" type="curve"/>
      <point x="187.1" y="354.5"/>
      <point x="78.8" y="353.6"/>
      <point x="80.6" y="448.0" type="curve"/>
      <point x="82.4" y="681.4"/>
      <point x="279.6" y="686.5"/>
      <point x="425.4" y="670.6" type="curve"/>
    </contour>
  </outline>
</glyph>
<glyph name="T" format="2">
  <advance width="500"/>
  <unicode hex="0054"/>
  <outline>
    <contour>
      <point x="40" y="670" type="line"/>
      <point x="460" y="670" type="line"/>
      <point x="460" y="700" type="line"/>
      <point x="40" y="700" type="line"/>
    </contour>
    <contour>
      <point x="218" y="0" type="line"/>
      <point x="248" y="0" type="line"/>
      <point x="248" y="700" type="line"/>
      <point x="218" y="700" type="line"/>
    </contour>
  </outline>
</glyph>
<glyph name="U" format="2">
  <advance width="500"/>
  <unicode hex="0055"/>
  <outline>
    <contour>
      <point x="48.4" y="210" type="curve"/>
      <point x="61.6" y="210" type="line"/>
      <point x="66.23919190000001" y="210"/>
      <point x="70" y="213.76080810000002"/>
      <point x="70" y="218.4" type="curve"/>
      <point x="70" y="691.6" type="line"/>
      <point x="70" y="696.2391919"/>
      <point x="66.23919190000001" y="700"/>
      <point x="61.6" y="700" type="curve"/>
      <point x="48.4" y="700" type="line"/>
      <point x="43.7608081" y="700"/>
      <point x="40" y="696.2391919"/>
      <point x="40" y="691.6" type="curve"/>
      <point x="40" y="218.4" type="line"/>
      <point x="40" y="213.76080810000002"/>
      <point x="43.7608081" y="210"/>
    </contour>
    <contour>
      <point x="404.4" y="210" type="curve"/>
      <point x="417.6" y="210" type="line"/>
      <point x="422.23919190000004" y="210"/>
      <point x="426" y="213.76080810000002"/>
      <point x="426" y="218.4" type="curve"/>
      <point x="426" y="691.6" type="line"/>
      <point x="426" y="696.2391919"/>
      <point x="422.23919190000004" y="700"/>
      <point x="417.6" y="700" type="curve"/>
      <point x="404.4" y="700" type="line"/>
      <point x="399.76080809999996" y="700"/>
      <point x="396" y="696.2391919"/>
      <point x="396" y="691.6" type="curve"/>
      <point x="396" y="218.4" type="line"/>
      <point x="396" y="213.76080810000002"/>
      <point x="399.76080809999996" y="210"/>
    </contour>
    <contour>
      <point x="40" y="210" type="line"/>
      <point x="40" y="68"/>
      <point x="127" y="-8"/>
      <point x="250" y="-8" type="curve"/>
      <point x="373" y="-8"/>
      <point x="460" y="68"/>
      <point x="460" y="210" type="curve"/>
      <point x="396" y="210" type="line"/>
      <point x="396" y="104"/>
      <point x="345" y="54"/>
      <point x="250" y="54" type="curve"/>
      <point x="155" y="54"/>
      <point x="104" y="104"/>
      <point x="104" y="210" type="curve"/>
    </contour>
  </outline>
</glyph>
<glyph name="V" format="2">
  <advance width="500"/>
  <unicode hex="0056"/>
  <outline>
    <contour>
      <point x="89.55213750217997" y="703.638034375545" type="line"/>
      <point x="264.55213750217996" y="3.638034375544994" type="line"/>
      <point x="235.44786249782" y="-3.638034375544994" type="line"/>
      <point x="60.447862497820026" y="696.361965624455" type="line"/>
    </contour>
    <contour>
      <point x="439.55213750217996" y="696.361965624455" type="line"/>
      <point x="264.55213750217996" y="-3.638034375544994" type="line"/>
      <point x="235.44786249782" y="3.638034375544994" type="line"/>
      <point x="410.44786249782004" y="703.638034375545" type="line"/>
    </contour>
  </outline>
</glyph>
<glyph name="W" format="2">
  <advance width="560"/>
  <unicode hex="0057"/>
  <outline>
    <contour>
      <point x="59.86374162482059" y="702.0172220776542" type="line"/>
      <point x="154.8637416248206" y="2.0172220776542233" type="line"/>
      <point x="125.13625837517941" y="-2.0172220776542233" type="line"/>
      <point x="30.136258375179406" y="697.9827779223458" type="line"/>
    </contour>
    <contour>
      <point x="469.8637416248206" y="697.9827779223458" type="line"/>
      <point x="374.8637416248206" y="-2.0172220776542233" type="line"/>
      <point x="345.1362583751794" y="2.0172220776542233" type="line"/>
      <point x="440.1362583751794" y="702.0172220776542" type="line"/>
    </contour>
    <contour>
      <point x="125.56325486020394" y="4.071902475327093" type="line"/>
      <point x="235.56325486020395" y="394.0719024753271" type="line"/>
      <point x="264.4367451397961" y="385.9280975246729" type="line"/>
      <point x="154.43674513979605" y="-4.071902475327093" type="line"/>
    </contour>
    <contour>
      <point x="345.5632548602039" y="-4.071902475327093" type="line"/>
      <point x="235.56325486020395" y="385.9280975246729" type="line"/>
      <point x="264.4367451397961" y="394.0719024753271" type="line"/>
      <point x="374.4367451397961" y="4.071902475327093" type="line"/>
    </contour>
  </outline>
</glyph>
<glyph name="X" format="2">
  <advance width="500"/>
  <unicode hex="0058"/>
  <outline>
    <contour>
      <point x="83.33931703477221" y="706.8602201893115" type="line"/>
      <point x="443.3393170347722" y="6.860220189311421" type="line"/>
      <point x="416.6606829652278" y="-6.860220189311421" type="line"/>
      <point x="56.66068296522779" y="693.1397798106885" type="line"/>
    </contour>
    <contour>
      <point x="443.3393170347722" y="693.1397798106885" type="line"/>
      <point x="83.33931703477221" y="-6.860220189311421" type="line"/>
      <point x="56.66068296522779" y="6.860220189311421" type="line"/>
      <point x="416.6606829652278" y="706.8602201893115" type="line"/>
    </contour>
  </outline>
</glyph>
<glyph name="Y" format="2">
  <advance width="500"/>
  <unicode hex="0059"/>
  <outline>
    <contour>
      <point x="83.33931703477221" y="706.8602201893115" type="line"/>
      <point x="263.3393170347722" y="356.8602201893114" type="line"/>
      <point x="236.6606829652278" y="343.1397798106886" type="line"/>
      <point x="56.66068296522779" y="693.1397798106885" type="line"/>
    </contour>
    <contour>
      <point x="443.3393170347722" y="693.1397798106885" type="line"/>
      <point x="263.3393170347722" y="343.1397798106886" type="line"/>
      <point x="236.6606829652278" y="356.8602201893114" type="line"/>
      <point x="416.6606829652278" y="706.8602201893115" type="line"/>
    </contour>
    <contour>
      <point x="218" y="0" type="line"/>
      <point x="248" y="0" type="line"/>
      <point x="248" y="350" type="line"/>
      <point x="218" y="350" type="line"/>
    </contour>
  </outline>
</glyph>
<glyph name="Z" format="2">
  <advance width="500"/>
  <unicode hex="005A"/>
  <outline>
    <contour>
      <point x="50" y="670" type="line"/>
      <point x="450" y="670" type="line"/>
      <point x="450" y="700" type="line"/>
      <point x="50" y="700" type="line"/>
    </contour>
    <contour>
      <point x="443.2133938490271" y="677.9002659915675" type="line"/>
      <point x="83.2133938490271" y="7.900265991567526" type="line"/>
      <point x="56.786606150972894" y="22.099734008432474" type="line"/>
      <point x="416.7866061509729" y="692.0997340084325" type="line"/>
    </contour>
    <contour>
      <point x="50" y="0" type="line"/>
      <point x="450" y="0" type="line"/>
      <point x="450" y="30" type="line"/>
      <point x="50" y="30" type="line"/>
    </contour>
  </outline>
</glyph>
<glyph name="uni005C" format="2">
  <advance width="500"/>
  <unicode hex="005C"/>
  <outline>
    <contour>
      <point x="363.12634510382424" y="-6.267357532865288" type="line"/>
      <point x="103.12634510382422" y="693.7326424671347" type="line"/>
      <point x="136.87365489617576" y="706.2673575328653" type="line"/>
      <point x="396.87365489617576" y="6.267357532865288" type="line"/>
    </contour>
  </outline>
</glyph>
<glyph name="uni0060" format="2">
  <advance width="250"/>
  <unicode hex="0060"/>
  <outline>
    <contour>
      <point x="258.2243039375823" y="551.344753805519" type="line"/>
      <point x="218.2243039375823" y="461.34475380551896" type="line"/>
      <point x="201.7756960624177" y="468.65524619448104" type="line"/>
      <point x="241.7756960624177" y="558.655246194481" type="line"/>
    </contour>
  </outline>
</glyph>
<glyph name="a" format="2">
  <advance width="500"/>
  <unicode hex="0061"/>
  <outline>
    <contour>
      <point x="378" y="244" type="curve"/>
      <point x="378" y="378.757479"/>
      <point x="310.8427125" y="488"/>
      <point x="228" y="488" type="curve"/>
      <point x="145.1572875" y="488"/>
      <point x="78" y="378.757479"/>
      <point x="78" y="244" type="curve"/>
      <point x="78" y="109.24252100000001"/>
      <point x="145.1572875" y="0"/>
      <point x="228" y="0" type="curve"/>
      <point x="310.8427125" y="0"/>
      <point x="378" y="109.24252100000001"/>
    </contour>
    <contour>
      <point x="348" y="244" type="curve"/>
      <point x="348" y="125.8110635"/>
      <point x="294.27417" y="30"/>
      <point x="228" y="30" type="curve"/>
      <point x="161.72583" y="30"/>
      <point x="108" y="125.8110635"/>
      <point x="108" y="244" type="curve"/>
      <point x="108" y="362.1889365"/>
      <point x="161.72583" y="458"/>
      <point x="228" y="458" type="curve"/>
      <point x="294.27417" y="458"/>
      <point x="348" y="362.1889365"/>
    </contour>
    <contour>
      <point x="352.4" y="0" type="curve"/>
      <point x="365.6" y="0" type="line"/>
      <point x="370.23919190000004" y="0"/>
      <point x="374" y="3.7608081"/>
      <point x="374" y="8.4" type="curve"/>
      <point x="374" y="546.6" type="line"/>
      <point x="374" y="551.2391919"/>
      <point x="370.23919190000004" y="555"/>
      <point x="365.6" y="555" type="curve"/>
      <point x="352.4" y="555" type="line"/>
      <point x="347.76080809999996" y="555"/>
      <point x="344" y="551.2391919"/>
      <point x="344" y="546.6" type="curve"/>
      <point x="344" y="8.4" type="line"/>
      <point x="344" y="3.7608081"/>
      <point x="347.76080809999996" y="0"/>
    </contour>
  </outline>
</glyph>
<glyph name="b" format="2">
  <advance width="500"/>
  <unicode hex="0062"/>
  <outline>
    <contour>
      <point x="68.4" y="0" type="curve"/>
      <point x="81.6" y="0" type="line"/>
      <point x="86.2391919" y="0"/>
      <point x="90" y="3.7608081"/>
      <point x="90" y="8.4" type="curve"/>
      <point x="90" y="751.6" type="line"/>
      <point x="90" y="756.2391919"/>
      <point x="86.2391919" y="760"/>
      <point x="81.6" y="760" type="curve"/>
      <point x="68.4" y="760" type="line"/>
      <point x="63.760808100000006" y="760"/>
      <point x="60" y="756.2391919"/>
      <point x="60" y="751.6" type="curve"/>
      <point x="60" y="8.4" type="line"/>
      <point x="60" y="3.7608081"/>
      <point x="63.760808100000006" y="0"/>
    </contour>
    <contour>
      <point x="430" y="278" type="curve"/>
      <point x="430" y="431.53516049999996"/>
      <point x="349.411255" y="556"/>
      <point x="250" y="556" type="curve"/>
      <point x="150.58874500000002" y="556"/>
      <point x="70" y="431.53516049999996"/>
      <point x="70" y="278" type="curve"/>
      <point x="70" y="124.46483950000001"/>
      <point x="150.58874500000002" y="0"/>
      <point x="250" y="0" type="curve"/>
      <point x="349.411255" y="0"/>
      <point x="430" y="124.46483950000001"/>
    </contour>
    <contour>
      <point x="400" y="278" type="curve"/>
      <point x="400" y="141.033382"/>
      <point x="332.8427125" y="30"/>
      <point x="250" y="30" type="curve"/>
      <point x="167.1572875" y="30"/>
      <point x="100" y="141.033382"/>
      <point x="100" y="278" type="curve"/>
      <point x="100" y="414.96661800000004"/>
      <point x="167.1572875" y="526"/>
      <point x="250" y="526" type="curve"/>
      <point x="332.8427125" y="526"/>
      <point x="400" y="414.96661800000004"/>
    </contour>
  </outline>
</glyph>
<glyph name="d" format="2">
  <advance width="500"/>
  <unicode hex="0064"/>
  <outline>
    <contour>
      <point x="354.4" y="0" type="curve"/>
      <point x="367.6" y="0" type="line"/>
      <point x="372.23919190000004" y="0"/>
      <point x="376" y="3.7608081"/>
      <point x="376" y="8.4" type="curve"/>
      <point x="376" y="751.6" type="line"/>
      <point x="376" y="756.2391919"/>
      <point x="372.23919190000004" y="760"/>
      <point x="367.6" y="760" type="curve"/>
      <point x="354.4" y="760" type="line"/>
      <point x="349.76080809999996" y="760"/>
      <point x="346" y="756.2391919"/>
      <point x="346" y="751.6" type="curve"/>
      <point x="346" y="8.4" type="line"/>
      <point x="346" y="3.7608081"/>
      <point x="349.76080809999996" y="0"/>
    </contour>
    <contour>
      <point x="430" y="278" type="curve"/>
      <point x="430" y="431.53516049999996"/>
      <point x="349.411255" y="556"/>
      <point x="250" y="556" type="curve"/>
      <point x="150.58874500000002" y="556"/>
      <point x="70" y="431.53516049999996"/>
      <point x="70" y="278" type="curve"/>
      <point x="70" y="124.46483950000001"/>
      <point x="150.58874500000002" y="0"/>
      <point x="250" y="0" type="curve"/>
      <point x="349.411255" y="0"/>
      <point x="430" y="124.46483950000001"/>
    </contour>
    <contour>
      <point x="400" y="278" type="curve"/>
      <point x="400" y="141.033382"/>
      <point x="332.8427125" y="30"/>
      <point x="250" y="30" type="curve"/>
      <point x="167.1572875" y="30"/>
      <point x="100" y="141.033382"/>
      <point x="100" y="278" type="curve"/>
      <point x="100" y="414.96661800000004"/>
      <point x="167.1572875" y="526"/>
      <point x="250" y="526" type="curve"/>
      <point x="332.8427125" y="526"/>
      <point x="400" y="414.96661800000004"/>
    </contour>
  </outline>
</glyph>
<glyph name="e" format="2">
  <advance width="500"/>
  <unicode hex="0065"/>
  <outline>
    <contour>
      <point x="388.6" y="467.04" type="line"/>
      <point x="336.4" y="556"/>
      <point x="174.4" y="556"/>
      <point x="70" y="397.53999999999996" type="curve"/>
      <point x="70" y="158.46"/>
      <point x="174.4" y="0"/>
      <point x="336.4" y="0" type="curve"/>
      <point x="381.4" y="69.5"/>
      <point x="388.6" y="116.76000000000002"/>
      <point x="388.6" y="139.0" type="curve"/>
      <point x="365.5" y="169.57999999999998" type="line"/>
      <point x="318.4" y="30"/>
      <point x="100" y="189.04"/>
      <point x="100" y="278" type="curve"/>
      <point x="100" y="366.96000000000004"/>
      <point x="318.4" y="526"/>
      <point x="365.5" y="386.42" type="curve"/>
    </contour>
    <contour>
      <point x="99.2" y="246" type="curve"/>
      <point x="394.8" y="246" type="line"/>
      <point x="398.7764502" y="246"/>
      <point x="402" y="249.2235498"/>
      <point x="402" y="253.2" type="curve"/>
      <point x="402" y="268.8" type="line"/>
      <point x="402" y="272.7764502"/>
      <point x="398.7764502" y="276"/>
      <point x="394.8" y="276" type="curve"/>
      <point x="99.2" y="276" type="line"/>
      <point x="95.2235498" y="276"/>
      <point x="92" y="272.7764502"/>
      <point x="92" y="268.8" type="curve"/>
      <point x="92" y="253.2" type="line"/>
      <point x="92" y="249.2235498"/>
      <point x="95.2235498" y="246"/>
    </contour>
  </outline>
</glyph>
<glyph name="f" format="2">
  <advance width="500"/>
  <unicode hex="0066"/>
  <outline>
    <contour>
      <point x="223.4" y="0" type="curve"/>
      <point x="236.6" y="0" type="line"/>
      <point x="241.23919189999998" y="0"/>
      <point x="245" y="3.7608081"/>
      <point x="245" y="8.4" type="curve"/>
      <point x="245" y="751.6" type="line"/>
      <point x="245" y="756.2391919"/>
      <point x="241.23919189999998" y="760"/>
      <point x="236.6" y="760" type="curve"/>
      <point x="223.4" y="760" type="line"/>
      <point x="218.76080810000002" y="760"/>
      <point x="215" y="756.2391919"/>
      <point x="215" y="751.6" type="curve"/>
      <point x="215" y="8.4" type="line"/>
      <point x="215" y="3.7608081"/>
      <point x="218.76080810000002" y="0"/>
    </contour>
    <contour>
      <point x="215" y="500" type="line"/>
      <point x="215" y="670"/>
      <point x="294" y="770"/>
      <point x="398" y="734" type="curve"/>
      <point x="398" y="670" type="line"/>
      <point x="325" y="687"/>
      <point x="279" y="632"/>
      <point x="279" y="500" type="curve"/>
    </contour>
    <contour>
      <point x="112.2" y="350" type="curve"/>
      <point x="387.8" y="350" type="line"/>
      <point x="391.7764502" y="350"/>
      <point x="395" y="353.2235498"/>
      <point x="395" y="357.2" type="curve"/>
      <point x="395" y="372.8" type="line"/>
      <point x="395" y="376.7764502"/>
      <point x="391.7764502" y="380"/>
      <point x="387.8" y="380" type="curve"/>
      <point x="112.2" y="380" type="line"/>
      <point x="108.2235498" y="380"/>
      <point x="105" y="376.7764502"/>
      <point x="105" y="372.8" type="curve"/>
      <point x="105" y="357.2" type="line"/>
      <point x="105" y="353.2235498"/>
      <point x="108.2235498" y="350"/>
    </contour>
  </outline>
</glyph>
<glyph name="g" format="2">
  <advance width="500"/>
  <unicode hex="0067"/>
  <outline>
    <contour>
      <point x="378" y="260" type="curve"/>
      <point x="378" y="392.54834"/>
      <point x="310.8427125" y="500"/>
      <point x="228" y="500" type="curve"/>
      <point x="145.1572875" y="500"/>
      <point x="78" y="392.54834"/>
      <point x="78" y="260" type="curve"/>
      <point x="78" y="127.45166"/>
      <point x="145.1572875" y="20"/>
      <point x="228" y="20" type="curve"/>
      <point x="310.8427125" y="20"/>
      <point x="378" y="127.45166"/>
    </contour>
    <contour>
      <point x="348" y="260" type="curve"/>
      <point x="348" y="144.02020249999998"/>
      <point x="294.27417" y="50"/>
      <point x="228" y="50" type="curve"/>
      <point x="161.72583" y="50"/>
      <point x="108" y="144.02020249999998"/>
      <point x="108" y="260" type="curve"/>
      <point x="108" y="375.9797975"/>
      <point x="161.72583" y="470"/>
      <point x="228" y="470" type="curve"/>
      <point x="294.27417" y="470"/>
      <point x="348" y="375.9797975"/>
    </contour>
    <contour>
      <point x="352.4" y="-210" type="curve"/>
      <point x="365.6" y="-210" type="line"/>
      <point x="370.23919190000004" y="-210"/>
      <point x="374" y="-206.23919189999998"/>
      <point x="374" y="-201.6" type="curve"/>
      <point x="374" y="546.6" type="line"/>
      <point x="374" y="551.2391919"/>
      <point x="370.23919190000004" y="555"/>
      <point x="365.6" y="555" type="curve"/>
      <point x="352.4" y="555" type="line"/>
      <point x="347.76080809999996" y="555"/>
      <point x="344" y="551.2391919"/>
      <point x="344" y="546.6" type="curve"/>
      <point x="344" y="-201.6" type="line"/>
      <point x="344" y="-206.23919189999998"/>
      <point x="347.76080809999996" y="-210"/>
    </contour>
    <contour>
      <point x="408" y="0" type="line"/>
      <point x="408" y="-210"/>
      <point x="324" y="-210"/>
      <point x="230" y="-210" type="curve"/>
      <point x="173" y="-210"/>
      <point x="139" y="-185"/>
      <point x="128" y="-146" type="curve"/>
      <point x="192" y="-146" type="line"/>
      <point x="205" y="-175"/>
      <point x="221" y="-180"/>
      <point x="245" y="-180" type="curve"/>
      <point x="305" y="-180"/>
      <point x="344" y="-138"/>
      <point x="344" y="0" type="curve"/>
    </contour>
  </outline>
</glyph>
<glyph name="i" format="2">
  <advance width="250"/>
  <unicode hex="0069"/>
  <outline>
    <contour>
      <point x="226.4" y="0" type="curve"/>
      <point x="239.6" y="0" type="line"/>
      <point x="244.23919189999998" y="0"/>
      <point x="248" y="3.7608081"/>
      <point x="248" y="8.4" type="curve"/>
      <point x="248" y="446.6" type="line"/>
      <point x="248" y="451.23919190000004"/>
      <point x="244.23919189999998" y="455"/>
      <point x="239.6" y="455" type="curve"/>
      <point x="226.4" y="455" type="line"/>
      <point x="221.76080810000002" y="455"/>
      <point x="218" y="451.23919190000004"/>
      <point x="218" y="446.6" type="curve"/>
      <point x="218" y="8.4" type="line"/>
      <point x="218" y="3.7608081"/>
      <point x="221.76080810000002" y="0"/>
    </contour>
    <contour>
      <point x="266.5" y="525" type="curve"/>
      <point x="266.5" y="534.112698375"/>
      <point x="259.112698375" y="541.5"/>
      <point x="250" y="541.5" type="curve"/>
      <point x="240.887301625" y="541.5"/>
      <point x="233.5" y="534.112698375"/>
      <point x="233.5" y="525" type="curve"/>
      <point x="233.5" y="515.887301625"/>
      <point x="240.887301625" y="508.5"/>
      <point x="250" y="508.5" type="curve"/>
      <point x="259.112698375" y="508.5"/>
      <point x="266.5" y="515.887301625"/>
    </contour>
  </outline>
</glyph>
<glyph name="j" format="2">
  <advance width="500"/>
  <unicode hex="006A"/>
  <outline>
    <contour>
      <point x="226.4" y="-190" type="curve"/>
      <point x="239.6" y="-190" type="line"/>
      <point x="244.23919189999998" y="-190"/>
      <point x="248" y="-186.23919189999998"/>
      <point x="248" y="-181.6" type="curve"/>
      <point x="248" y="446.6" type="line"/>
      <point x="248" y="451.23919190000004"/>
      <point x="244.23919189999998" y="455"/>
      <point x="239.6" y="455" type="curve"/>
      <point x="226.4" y="455" type="line"/>
      <point x="221.76080810000002" y="455"/>
      <point x="218" y="451.23919190000004"/>
      <point x="218" y="446.6" type="curve"/>
      <point x="218" y="-181.6" type="line"/>
      <point x="218" y="-186.23919189999998"/>
      <point x="221.76080810000002" y="-190"/>
    </contour>
    <contour>
      <point x="266.5" y="525" type="curve"/>
      <point x="266.5" y="534.112698375"/>
      <point x="259.112698375" y="541.5"/>
      <point x="250" y="541.5" type="curve"/>
      <point x="240.887301625" y="541.5"/>
      <point x="233.5" y="534.112698375"/>
      <point x="233.5" y="525" type="curve"/>
      <point x="233.5" y="515.887301625"/>
      <point x="240.887301625" y="508.5"/>
      <point x="250" y="508.5" type="curve"/>
      <point x="259.112698375" y="508.5"/>
      <point x="266.5" y="515.887301625"/>
    </contour>
    <contour>
      <point x="282" y="-190" type="line"/>
      <point x="282" y="-210"/>
      <point x="247" y="-210"/>
      <point x="201" y="-210" type="curve"/>
      <point x="177" y="-210" type="line"/>
      <point x="177" y="-185" type="line"/>
      <point x="201" y="-185" type="line"/>
      <point x="212" y="-185"/>
      <point x="218" y="-188"/>
      <point x="218" y="-190" type="curve"/>
    </contour>
  </outline>
</glyph>
<glyph name="k" format="2">
  <advance width="500"/>
  <unicode hex="006B"/>
  <outline>
    <contour>
      <point x="68.4" y="0" type="curve"/>
      <point x="81.6" y="0" type="line"/>
      <point x="86.2391919" y="0"/>
      <point x="90" y="3.7608081"/>
      <point x="90" y="8.4" type="curve"/>
      <point x="90" y="751.6" type="line"/>
      <point x="90" y="756.2391919"/>
      <point x="86.2391919" y="760"/>
      <point x="81.6" y="760" type="curve"/>
      <point x="68.4" y="760" type="line"/>
      <point x="63.760808100000006" y="760"/>
      <point x="60" y="756.2391919"/>
      <point x="60" y="751.6" type="curve"/>
      <point x="60" y="8.4" type="line"/>
      <point x="60" y="3.7608081"/>
      <point x="63.760808100000006" y="0"/>
    </contour>
    <contour>
      <point x="112.78439353360463" y="287.9604302914558" type="line"/>
      <point x="358.78439353360466" y="564.9604302914559" type="line"/>
      <point x="381.21560646639534" y="545.0395697085441" type="line"/>
      <point x="135.21560646639537" y="268.0395697085442" type="line"/>
    </contour>
    <contour>
      <point x="135.03421750866673" y="288.16100605114633" type="line"/>
      <point x="391.03421750866676" y="10.161006051146343" type="line"/>
      <point x="368.96578249133324" y="-10.161006051146343" type="line"/>
      <point x="112.96578249133327" y="267.83899394885367" type="line"/>
    </contour>
  </outline>
</glyph>
<glyph name="l" format="2">
  <advance width="250"/>
  <unicode hex="006C"/>
  <outline>
    <contour>
      <point x="226.4" y="0" type="curve"/>
      <point x="239.6" y="0" type="line"/>
      <point x="244.23919189999998" y="0"/>
      <point x="248" y="3.7608081"/>
      <point x="248" y="8.4" type="curve"/>
      <point x="248" y="751.6" type="line"/>
      <point x="248" y="756.2391919"/>
      <point x="244.23919189999998" y="760"/>
      <point x="239.6" y="760" type="curve"/>
      <point x="226.4" y="760" type="line"/>
      <point x="221.76080810000002" y="760"/>
      <point x="218" y="756.2391919"/>
      <point x="218" y="751.6" type="curve"/>
      <point x="218" y="8.4" type="line"/>
      <point x="218" y="3.7608081"/>
      <point x="221.76080810000002" y="0"/>
    </contour>
  </outline>
</glyph>
<glyph name="m" format="2">
  <advance width="560"/>
  <unicode hex="006D"/>
  <outline>
    <contour>
      <point x="48.4" y="0" type="curve"/>
      <point x="61.6" y="0" type="line"/>
      <point x="66.23919190000001" y="0"/>
      <point x="70" y="3.7608081"/>
      <point x="70" y="8.4" type="curve"/>
      <point x="70" y="546.6" type="line"/>
      <point x="70" y="551.2391919"/>
      <point x="66.23919190000001" y="555"/>
      <point x="61.6" y="555" type="curve"/>
      <point x="48.4" y="555" type="line"/>
      <point x="43.7608081" y="555"/>
      <point x="40" y="551.2391919"/>
      <point x="40" y="546.6" type="curve"/>
      <point x="40" y="8.4" type="line"/>
      <point x="40" y="3.7608081"/>
      <point x="43.7608081" y="0"/>
    </contour>
    <contour>
      <point x="104" y="0" type="line"/>
      <point x="104" y="555" type="line"/>
      <point x="153.64" y="565"/>
      <point x="250" y="460.65"/>
      <point x="250" y="349.65" type="curve"/>
      <point x="250" y="0" type="line"/>
      <point x="220" y="0" type="line"/>
      <point x="220" y="349.65" type="line"/>
      <point x="220" y="538.5"/>
      <point x="183.64" y="525"/>
      <point x="134" y="525" type="curve"/>
      <point x="134" y="0" type="line"/>
    </contour>
    <contour>
      <point x="239" y="0" type="line"/>
      <point x="239" y="555" type="line"/>
      <point x="284.9" y="565"/>
      <point x="374" y="460.65"/>
      <point x="374" y="349.65" type="curve"/>
      <point x="374" y="0" type="line"/>
      <point x="344" y="0" type="line"/>
      <point x="344" y="349.65" type="line"/>
      <point x="344" y="538.5"/>
      <point x="314.9" y="525"/>
      <point x="269" y="525" type="curve"/>
      <point x="269" y="0" type="line"/>
    </contour>
  </outline>
</glyph>
<glyph name="n" format="2">
  <advance width="500"/>
  <unicode hex="006E"/>
  <outline>
    <contour>
      <point x="68.4" y="0" type="curve"/>
      <point x="81.6" y="0" type="line"/>
      <point x="86.2391919" y="0"/>
      <point x="90" y="3.7608081"/>
      <point x="90" y="8.4" type="curve"/>
      <point x="90" y="546.6" type="line"/>
      <point x="90" y="551.2391919"/>
      <point x="86.2391919" y="555"/>
      <point x="81.6" y="555" type="curve"/>
      <point x="68.4" y="555" type="line"/>
      <point x="63.760808100000006" y="555"/>
      <point x="60" y="551.2391919"/>
      <point x="60" y="546.6" type="curve"/>
      <point x="60" y="8.4" type="line"/>
      <point x="60" y="3.7608081"/>
      <point x="63.760808100000006" y="0"/>
    </contour>
    <contour>
      <point x="124" y="0" type="line"/>
      <point x="124" y="555" type="line"/>
      <point x="198.8" y="565"/>
      <point x="344" y="460.65"/>
      <point x="344" y="349.65" type="curve"/>
      <point x="344" y="0" type="line"/>
      <point x="314" y="0" type="line"/>
      <point x="314" y="349.65" type="line"/>
      <point x="314" y="538.5"/>
      <point x="228.8" y="525"/>
      <point x="154" y="525" type="curve"/>
      <point x="154" y="0" type="line"/>
    </contour>
  </outline>
</glyph>
<glyph name="o" format="2">
  <advance width="500"/>
  <unicode hex="006F"/>
  <outline>
    <contour>
      <point x="430" y="278" type="curve"/>
      <point x="430" y="431.53516049999996"/>
      <point x="349.411255" y="556"/>
      <point x="250" y="556" type="curve"/>
      <point x="150.58874500000002" y="556"/>
      <point x="70" y="431.53516049999996"/>
      <point x="70" y="278" type="curve"/>
      <point x="70" y="124.46483950000001"/>
      <point x="150.58874500000002" y="0"/>
      <point x="250" y="0" type="curve"/>
      <point x="349.411255" y="0"/>
      <point x="430" y="124.46483950000001"/>
    </contour>
    <contour>
      <point x="400" y="278" type="curve"/>
      <point x="400" y="141.033382"/>
      <point x="332.8427125" y="30"/>
      <point x="250" y="30" type="curve"/>
      <point x="167.1572875" y="30"/>
      <point x="100" y="141.033382"/>
      <point x="100" y="278" type="curve"/>
      <point x="100" y="414.96661800000004"/>
      <point x="167.1572875" y="526"/>
      <point x="250" y="526" type="curve"/>
      <point x="332.8427125" y="526"/>
      <point x="400" y="414.96661800000004"/>
    </contour>
  </outline>
</glyph>
<glyph name="p" format="2">
  <advance width="500"/>
  <unicode hex="0070"/>
  <outline>
    <contour>
      <point x="68.4" y="-210" type="curve"/>
      <point x="81.6" y="-210" type="line"/>
      <point x="86.2391919" y="-210"/>
      <point x="90" y="-206.23919189999998"/>
      <point x="90" y="-201.6" type="curve"/>
      <point x="90" y="546.6" type="line"/>
      <point x="90" y="551.2391919"/>
      <point x="86.2391919" y="555"/>
      <point x="81.6" y="555" type="curve"/>
      <point x="68.4" y="555" type="line"/>
      <point x="63.760808100000006" y="555"/>
      <point x="60" y="551.2391919"/>
      <point x="60" y="546.6" type="curve"/>
      <point x="60" y="-201.6" type="line"/>
      <point x="60" y="-206.23919189999998"/>
      <point x="63.760808100000006" y="-210"/>
    </contour>
    <contour>
      <point x="430" y="278" type="curve"/>
      <point x="430" y="431.53516049999996"/>
      <point x="349.411255" y="556"/>
      <point x="250" y="556" type="curve"/>
      <point x="150.58874500000002" y="556"/>
      <point x="70" y="431.53516049999996"/>
      <point x="70" y="278" type="curve"/>
      <point x="70" y="124.46483950000001"/>
      <point x="150.58874500000002" y="0"/>
      <point x="250" y="0" type="curve"/>
      <point x="349.411255" y="0"/>
      <point x="430" y="124.46483950000001"/>
    </contour>
    <contour>
      <point x="400" y="278" type="curve"/>
      <point x="400" y="141.033382"/>
      <point x="332.8427125" y="30"/>
      <point x="250" y="30" type="curve"/>
      <point x="167.1572875" y="30"/>
      <point x="100" y="141.033382"/>
      <point x="100" y="278" type="curve"/>
      <point x="100" y="414.96661800000004"/>
      <point x="167.1572875" y="526"/>
      <point x="250" y="526" type="curve"/>
      <point x="332.8427125" y="526"/>
      <point x="400" y="414.96661800000004"/>
    </contour>
  </outline>
</glyph>
<glyph name="r" format="2">
  <advance width="500"/>
  <unicode hex="0072"/>
  <outline>
    <contour>
      <point x="68.4" y="0" type="curve"/>
      <point x="81.6" y="0" type="line"/>
      <point x="86.2391919" y="0"/>
      <point x="90" y="3.7608081"/>
      <point x="90" y="8.4" type="curve"/>
      <point x="90" y="546.6" type="line"/>
      <point x="90" y="551.2391919"/>
      <point x="86.2391919" y="555"/>
      <point x="81.6" y="555" type="curve"/>
      <point x="68.4" y="555" type="line"/>
      <point x="63.760808100000006" y="555"/>
      <point x="60" y="551.2391919"/>
      <point x="60" y="546.6" type="curve"/>
      <point x="60" y="8.4" type="line"/>
      <point x="60" y="3.7608081"/>
      <point x="63.760808100000006" y="0"/>
    </contour>
    <contour>
      <point x="124" y="305" type="line"/>
      <point x="154" y="474"/>
      <point x="270" y="555"/>
      <point x="390" y="472" type="curve"/>
      <point x="390" y="400" type="line"/>
      <point x="284" y="450"/>
      <point x="205" y="417"/>
      <point x="188" y="305" type="curve"/>
    </contour>
  </outline>
</glyph>
<glyph name="t" format="2">
  <advance width="500"/>
  <unicode hex="0074"/>
  <outline>
    <contour>
      <point x="223.4" y="0" type="curve"/>
      <point x="236.6" y="0" type="line"/>
      <point x="241.23919189999998" y="0"/>
      <point x="245" y="3.7608081"/>
      <point x="245" y="8.4" type="curve"/>
      <point x="245" y="751.6" type="line"/>
      <point x="245" y="756.2391919"/>
      <point x="241.23919189999998" y="760"/>
      <point x="236.6" y="760" type="curve"/>
      <point x="223.4" y="760" type="line"/>
      <point x="218.76080810000002" y="760"/>
      <point x="215" y="756.2391919"/>
      <point x="215" y="751.6" type="curve"/>
      <point x="215" y="8.4" type="line"/>
      <point x="215" y="3.7608081"/>
      <point x="218.76080810000002" y="0"/>
    </contour>
    <contour>
      <point x="112.2" y="360" type="curve"/>
      <point x="367.8" y="360" type="line"/>
      <point x="371.7764502" y="360"/>
      <point x="375" y="363.2235498"/>
      <point x="375" y="367.2" type="curve"/>
      <point x="375" y="382.8" type="line"/>
      <point x="375" y="386.7764502"/>
      <point x="371.7764502" y="390"/>
      <point x="367.8" y="390" type="curve"/>
      <point x="112.2" y="390" type="line"/>
      <point x="108.2235498" y="390"/>
      <point x="105" y="386.7764502"/>
      <point x="105" y="382.8" type="curve"/>
      <point x="105" y="367.2" type="line"/>
      <point x="105" y="363.2235498"/>
      <point x="108.2235498" y="360"/>
    </contour>
  </outline>
</glyph>
<glyph name="u" format="2">
  <advance width="500"/>
  <unicode hex="0075"/>
  <outline>
    <contour>
      <point x="68.4" y="190" type="curve"/>
      <point x="81.6" y="190" type="line"/>
      <point x="86.2391919" y="190"/>
      <point x="90" y="193.76080810000002"/>
      <point x="90" y="198.4" type="curve"/>
      <point x="90" y="546.6" type="line"/>
      <point x="90" y="551.2391919"/>
      <point x="86.2391919" y="555"/>
      <point x="81.6" y="555" type="curve"/>
      <point x="68.4" y="555" type="line"/>
      <point x="63.760808100000006" y="555"/>
      <point x="60" y="551.2391919"/>
      <point x="60" y="546.6" type="curve"/>
      <point x="60" y="198.4" type="line"/>
      <point x="60" y="193.76080810000002"/>
      <point x="63.760808100000006" y="190"/>
    </contour>
    <contour>
      <point x="322.4" y="0" type="curve"/>
      <point x="335.6" y="0" type="line"/>
      <point x="340.23919190000004" y="0"/>
      <point x="344" y="3.7608081"/>
      <point x="344" y="8.4" type="curve"/>
      <point x="344" y="546.6" type="line"/>
      <point x="344" y="551.2391919"/>
      <point x="340.23919190000004" y="555"/>
      <point x="335.6" y="555" type="curve"/>
      <point x="322.4" y="555" type="line"/>
      <point x="317.76080809999996" y="555"/>
      <point x="314" y="551.2391919"/>
      <point x="314" y="546.6" type="curve"/>
      <point x="314" y="8.4" type="line"/>
      <point x="314" y="3.7608081"/>
      <point x="317.76080809999996" y="0"/>
    </contour>
    <contour>
      <point x="60" y="190" type="line"/>
      <point x="60" y="67"/>
      <point x="125" y="-4"/>
      <point x="234" y="-4" type="curve"/>
      <point x="320" y="-4"/>
      <point x="344" y="67"/>
      <point x="344" y="190" type="curve"/>
      <point x="280" y="190" type="line"/>
      <point x="280" y="91"/>
      <point x="263" y="54"/>
      <point x="234" y="54" type="curve"/>
      <point x="201" y="54"/>
      <point x="124" y="91"/>
      <point x="124" y="190" type="curve"/>
    </contour>
  </outline>
</glyph>
<glyph name="w" format="2">
  <advance width="560"/>
  <unicode hex="0077"/>
  <outline>
    <contour>
      <point x="59.82711631677628" y="557.2708196160828" type="line"/>
      <point x="144.82711631677628" y="2.270819616082853" type="line"/>
      <point x="115.17288368322372" y="-2.270819616082853" type="line"/>
      <point x="30.172883683223723" y="552.7291803839172" type="line"/>
    </contour>
    <contour>
      <point x="469.82711631677626" y="552.7291803839172" type="line"/>
      <point x="384.82711631677626" y="-2.270819616082853" type="line"/>
      <point x="355.17288368322374" y="2.270819616082853" type="line"/>
      <point x="440.17288368322374" y="557.2708196160828" type="line"/>
    </contour>
    <contour>
      <point x="116.07284963672112" y="5.570860145311556" type="line"/>
      <point x="236.07284963672112" y="305.57086014531154" type="line"/>
      <point x="263.9271503632789" y="294.42913985468846" type="line"/>
      <point x="143.92715036327888" y="-5.570860145311556" type="line"/>
    </contour>
    <contour>
      <point x="356.0728496367211" y="-5.570860145311556" type="line"/>
      <point x="236.07284963672112" y="294.42913985468846" type="line"/>
      <point x="263.9271503632789" y="305.57086014531154" type="line"/>
      <point x="383.9271503632789" y="5.570860145311556" type="line"/>
    </contour>
  </outline>
</glyph>
<glyph name="x" format="2">
  <advance width="500"/>
  <unicode hex="0078"/>
  <outline>
    <contour>
      <point x="82.58441930541488" y="563.1628665764853" type="line"/>
      <point x="442.5844193054149" y="8.162866576485326" type="line"/>
      <point x="417.4155806945851" y="-8.162866576485326" type="line"/>
      <point x="57.41558069458512" y="546.8371334235147" type="line"/>
    </contour>
    <contour>
      <point x="442.5844193054149" y="546.8371334235147" type="line"/>
      <point x="82.58441930541488" y="-8.162866576485326" type="line"/>
      <point x="57.41558069458512" y="8.162866576485326" type="line"/>
      <point x="417.4155806945851" y="563.1628665764853" type="line"/>
    </contour>
  </outline>
</glyph>
<glyph name="y" format="2">
  <advance width="500"/>
  <unicode hex="0079"/>
  <outline>
    <contour>
      <point x="89.30568645655832" y="559.5108020358517" type="line"/>
      <point x="264.3056864565583" y="4.510802035851721" type="line"/>
      <point x="235.6943135434417" y="-4.510802035851721" type="line"/>
      <point x="60.69431354344169" y="550.4891979641483" type="line"/>
    </contour>
    <contour>
      <point x="439.3056864565583" y="550.4891979641483" type="line"/>
      <point x="264.3056864565583" y="-4.510802035851721" type="line"/>
      <point x="235.6943135434417" y="4.510802035851721" type="line"/>
      <point x="410.6943135434417" y="559.5108020358517" type="line"/>
    </contour>
    <contour>
      <point x="218" y="-210" type="line"/>
      <point x="248" y="-210" type="line"/>
      <point x="248" y="-110" type="line"/>
      <point x="218" y="-110" type="line"/>
    </contour>
  </outline>
</glyph>
<glyph name="z" format="2">
  <advance width="500"/>
  <unicode hex="007A"/>
  <outline>
    <contour>
      <point x="70" y="525" type="line"/>
      <point x="430" y="525" type="line"/>
      <point x="430" y="555" type="line"/>
      <point x="70" y="555" type="line"/>
    </contour>
    <contour>
      <point x="422.80826491071866" y="532.1930575782286" type="line"/>
      <point x="102.80826491071865" y="7.1930575782286335" type="line"/>
      <point x="77.19173508928135" y="22.806942421771367" type="line"/>
      <point x="397.19173508928134" y="547.8069424217714" type="line"/>
    </contour>
    <contour>
      <point x="70" y="0" type="line"/>
      <point x="430" y="0" type="line"/>
      <point x="430" y="30" type="line"/>
      <point x="70" y="30" type="line"/>
    </contour>
  </outline>
</glyph>
<glyph name="uni007C" format="2">
  <advance width="250"/>
  <unicode hex="007C"/>
  <outline>
    <contour>
      <point x="80" y="0" type="line"/>
      <point x="420" y="0" type="line"/>
      <point x="420" y="36" type="line"/>
      <point x="80" y="36" type="line"/>
    </contour>
    <contour>
      <point x="80" y="664" type="line"/>
      <point x="420" y="664" type="line"/>
      <point x="420" y="700" type="line"/>
      <point x="80" y="700" type="line"/>
    </contour>
    <contour>
      <point x="80" y="0" type="line"/>
      <point x="116" y="0" type="line"/>
      <point x="116" y="700" type="line"/>
      <point x="80" y="700" type="line"/>
    </contour>
    <contour>
      <point x="384" y="0" type="line"/>
      <point x="420" y="0" type="line"/>
      <point x="420" y="700" type="line"/>
      <point x="384" y="700" type="line"/>
    </contour>
  </outline>
</glyph>
<glyph name="uni007E" format="2">
  <advance width="500"/>
  <unicode hex="007E"/>
  <outline>
    <contour>
      <point x="80" y="0" type="line"/>
      <point x="420" y="0" type="line"/>
      <point x="420" y="36" type="line"/>
      <point x="80" y="36" type="line"/>
    </contour>
    <contour>
      <point x="80" y="664" type="line"/>
      <point x="420" y="664" type="line"/>
      <point x="420" y="700" type="line"/>
      <point x="80" y="700" type="line"/>
    </contour>
    <contour>
      <point x="80" y="0" type="line"/>
      <point x="116" y="0" type="line"/>
      <point x="116" y="700" type="line"/>
      <point x="80" y="700" type="line"/>
    </contour>
    <contour>
      <point x="384" y="0" type="line"/>
      <point x="420" y="0" type="line"/>
      <point x="420" y="700" type="line"/>
      <point x="384" y="700" type="line"/>
    </contour>
  </outline>
</glyph>
<glyph name="uni00A1" format="2">
  <advance width="500"/>
  <unicode hex="00A1"/>
  <outline>
    <contour>
      <point x="235.0" y="0" type="line"/>
      <point x="265.0" y="0" type="line"/>
      <point x="265.0" y="425" type="line"/>
      <point x="235.0" y="425" type="line"/>
    </contour>
    <contour>
      <point x="265.0" y="520" type="curve" smooth="yes"/>
      <point x="265.0" y="528.28427125"/>
      <point x="258.28427125" y="535.0"/>
      <point x="250.0" y="535.0" type="curve" smooth="yes"/>
      <point x="241.71572875" y="535.0"/>
      <point x="235.0" y="528.28427125"/>
      <point x="235.0" y="520" type="curve" smooth="yes"/>
      <point x="235.0" y="511.71572875"/>
      <point x="241.71572875" y="505.0"/>
      <point x="250.0" y="505.0" type="curve" smooth="yes"/>
      <point x="258.28427125" y="505.0"/>
      <point x="265.0" y="511.71572875"/>
    </contour>
  </outline>
</glyph>
<glyph name="uni00A9" format="2">
  <advance width="500"/>
  <unicode hex="00A9"/>
  <outline>
    <contour>
      <point x="440.0" y="350" type="curve" smooth="yes"/>
      <point x="440.0" y="493.59403499999996"/>
      <point x="354.9341025" y="610"/>
      <point x="250.0" y="610" type="curve" smooth="yes"/>
      <point x="145.0658975" y="610"/>
      <point x="60.0" y="493.59403499999996"/>
      <point x="60.0" y="350" type="curve" smooth="yes"/>
      <point x="60.0" y="206.405965"/>
      <point x="145.0658975" y="90"/>
      <point x="250.0" y="90" type="curve" smooth="yes"/>
      <point x="354.9341025" y="90"/>
      <point x="440.0" y="206.405965"/>
    </contour>
    <contour>
      <point x="410.0" y="350" type="curve" smooth="yes"/>
      <point x="410.0" y="222.97450750000002"/>
      <point x="338.36556" y="120"/>
      <point x="250.0" y="120" type="curve" smooth="yes"/>
      <point x="161.63443999999998" y="120"/>
      <point x="90.0" y="222.97450750000002"/>
      <point x="90.0" y="350" type="curve" smooth="yes"/>
      <point x="90.0" y="477.0254925"/>
      <point x="161.63443999999998" y="580"/>
      <point x="250.0" y="580" type="curve" smooth="yes"/>
      <point x="338.36556" y="580"/>
      <point x="410.0" y="477.0254925"/>
    </contour>
    <contour>
      <point x="195.0" y="180" type="line"/>
      <point x="225.0" y="180" type="line"/>
      <point x="225.0" y="520" type="line"/>
      <point x="195.0" y="520" type="line"/>
    </contour>
    <contour>
      <point x="240.0" y="180" type="line"/>
      <point x="350.0" y="180" type="line"/>
      <point x="350.0" y="210" type="line"/>
      <point x="240.0" y="210" type="line"/>
    </contour>
    <contour>
      <point x="240.0" y="480" type="line"/>
      <point x="350.0" y="480" type="line"/>
      <point x="350.0" y="510" type="line"/>
      <point x="240.0" y="510" type="line"/>
    </contour>
  </outline>
</glyph>
<glyph name="uni00AE" format="2">
  <advance width="500"/>
  <unicode hex="00AE"/>
  <outline>
    <contour>
      <point x="440.0" y="350" type="curve" smooth="yes"/>
      <point x="440.0" y="493.59403499999996"/>
      <point x="354.9341025" y="610"/>
      <point x="250.0" y="610" type="curve" smooth="yes"/>
      <point x="145.0658975" y="610"/>
      <point x="60.0" y="493.59403499999996"/>
      <point x="60.0" y="350" type="curve" smooth="yes"/>
      <point x="60.0" y="206.405965"/>
      <point x="145.0658975" y="90"/>
      <point x="250.0" y="90" type="curve" smooth="yes"/>
      <point x="354.9341025" y="90"/>
      <point x="440.0" y="206.405965"/>
    </contour>
    <contour>
      <point x="410.0" y="350" type="curve" smooth="yes"/>
      <point x="410.0" y="222.97450750000002"/>
      <point x="338.36556" y="120"/>
      <point x="250.0" y="120" type="curve" smooth="yes"/>
      <point x="161.63443999999998" y="120"/>
      <point x="90.0" y="222.97450750000002"/>
      <point x="90.0" y="350" type="curve" smooth="yes"/>
      <point x="90.0" y="477.0254925"/>
      <point x="161.63443999999998" y="580"/>
      <point x="250.0" y="580" type="curve" smooth="yes"/>
      <point x="338.36556" y="580"/>
      <point x="410.0" y="477.0254925"/>
    </contour>
    <contour>
      <point x="188.0" y="225" type="line"/>
      <point x="218.0" y="225" type="line"/>
      <point x="218.0" y="450" type="line"/>
      <point x="188.0" y="450" type="line"/>
    </contour>
    <contour>
      <point x="188.0" y="410" type="line"/>
      <point x="276.0" y="410" type="line"/>
      <point x="276.0" y="440" type="line"/>
      <point x="188.0" y="440" type="line"/>
    </contour>
    <contour>
      <point x="258.0" y="340" type="line"/>
      <point x="288.0" y="340" type="line"/>
      <point x="288.0" y="435" type="line"/>
      <point x="258.0" y="435" type="line"/>
    </contour>
    <contour>
      <point x="259.20337810086335" y="347.1183429761176" type="line"/>
      <point x="321.20337810086335" y="232.11834297611762" type="line"/>
      <point x="294.79662189913665" y="217.88165702388238" type="line"/>
      <point x="232.79662189913668" y="332.8816570238824" type="line"/>
    </contour>
  </outline>
</glyph>
<glyph name="uni00B0" format="2">
  <advance width="500"/>
  <unicode hex="00B0"/>
  <outline>
    <contour>
      <point x="320.0" y="500" type="curve" smooth="yes"/>
      <point x="320.0" y="538.6599325"/>
      <point x="288.65993249999997" y="570"/>
      <point x="250.0" y="570" type="curve" smooth="yes"/>
      <point x="211.3400675" y="570"/>
      <point x="180.0" y="538.6599325"/>
      <point x="180.0" y="500" type="curve" smooth="yes"/>
      <point x="180.0" y="461.34006750000003"/>
      <point x="211.3400675" y="430"/>
      <point x="250.0" y="430" type="curve" smooth="yes"/>
      <point x="288.65993249999997" y="430"/>
      <point x="320.0" y="461.34006750000003"/>
    </contour>
    <contour>
      <point x="290.0" y="500" type="curve" smooth="yes"/>
      <point x="290.0" y="477.90861"/>
      <point x="272.09139" y="460"/>
      <point x="250.0" y="460" type="curve" smooth="yes"/>
      <point x="227.90861" y="460"/>
      <point x="210.0" y="477.90861"/>
      <point x="210.0" y="500" type="curve" smooth="yes"/>
      <point x="210.0" y="522.09139"/>
      <point x="227.90861" y="540"/>
      <point x="250.0" y="540" type="curve" smooth="yes"/>
      <point x="272.09139" y="540"/>
      <point x="290.0" y="522.09139"/>
    </contour>
  </outline>
</glyph>
<glyph name="uni00B1" format="2">
  <advance width="500"/>
  <unicode hex="00B1"/>
  <outline>
    <contour>
      <point x="100.0" y="410" type="line"/>
      <point x="400.0" y="410" type="line"/>
      <point x="400.0" y="440" type="line"/>
      <point x="100.0" y="440" type="line"/>
    </contour>
    <contour>
      <point x="235.0" y="270" type="line"/>
      <point x="265.0" y="270" type="line"/>
      <point x="265.0" y="550" type="line"/>
      <point x="235.0" y="550" type="line"/>
    </contour>
    <contour>
      <point x="100.0" y="120" type="line"/>
      <point x="400.0" y="120" type="line"/>
      <point x="400.0" y="150" type="line"/>
      <point x="100.0" y="150" type="line"/>
    </contour>
  </outline>
</glyph>
<glyph name="uni00B5" format="2">
  <advance width="500"/>
  <unicode hex="00B5"/>
  <outline>
    <contour>
      <point x="80" y="0" type="line"/>
      <point x="110" y="0" type="line"/>
      <point x="110" y="555" type="line"/>
      <point x="80" y="555" type="line"/>
    </contour>
    <contour>
      <point x="390" y="-210" type="line"/>
      <point x="420" y="-210" type="line"/>
      <point x="420" y="555" type="line"/>
      <point x="390" y="555" type="line"/>
    </contour>
    <contour>
      <point x="145" y="0" type="line"/>
      <point x="420" y="0" type="line"/>
      <point x="420" y="30" type="line"/>
      <point x="145" y="30" type="line"/>
    </contour>
  </outline>
</glyph>
<glyph name="uni00B7" format="2">
  <advance width="500"/>
  <unicode hex="00B7"/>
  <outline>
    <contour>
      <point x="265.0" y="280" type="curve" smooth="yes"/>
      <point x="265.0" y="288.28427125"/>
      <point x="258.28427125" y="295.0"/>
      <point x="250.0" y="295.0" type="curve" smooth="yes"/>
      <point x="241.71572875" y="295.0"/>
      <point x="235.0" y="288.28427125"/>
      <point x="235.0" y="280" type="curve" smooth="yes"/>
      <point x="235.0" y="271.71572875"/>
      <point x="241.71572875" y="265.0"/>
      <point x="250.0" y="265.0" type="curve" smooth="yes"/>
      <point x="258.28427125" y="265.0"/>
      <point x="265.0" y="271.71572875"/>
    </contour>
  </outline>
</glyph>
<glyph name="uni00C1" format="2">
  <advance width="480"/>
  <unicode hex="00C1"/>
  <outline>
    <contour>
      <point x="195.55393370669577" y="710.2807825421938" type="line"/>
      <point x="271.5539337066958" y="788.2807825421938" type="line"/>
      <point x="284.4460662933042" y="775.7192174578062" type="line"/>
      <point x="208.44606629330423" y="697.7192174578062" type="line"/>
    </contour>
    <component base="A"/>
  </outline>
</glyph>
<glyph name="uni00C2" format="2">
  <advance width="480"/>
  <unicode hex="00C2"/>
  <outline>
    <contour>
      <point x="175.19544837391626" y="726.8905073778038" type="line"/>
      <point x="233.19544837391626" y="793.8905073778038" type="line"/>
      <point x="246.80455162608374" y="782.1094926221962" type="line"/>
      <point x="188.80455162608374" y="715.1094926221962" type="line"/>
    </contour>
    <contour>
      <point x="246.80455162608374" y="793.8905073778038" type="line"/>
      <point x="304.8045516260837" y="726.8905073778038" type="line"/>
      <point x="291.1954483739163" y="715.1094926221962" type="line"/>
      <point x="233.19544837391626" y="782.1094926221962" type="line"/>
    </contour>
    <component base="A"/>
  </outline>
</glyph>
<glyph name="uni00C4" format="2">
  <advance width="480"/>
  <unicode hex="00C4"/>
  <outline>
    <contour>
      <point x="211.0" y="764" type="curve" smooth="yes"/>
      <point x="211.0" y="768.97056275"/>
      <point x="206.97056275" y="773.0"/>
      <point x="202.0" y="773.0" type="curve" smooth="yes"/>
      <point x="197.02943725" y="773.0"/>
      <point x="193.0" y="768.97056275"/>
      <point x="193.0" y="764" type="curve" smooth="yes"/>
      <point x="193.0" y="759.02943725"/>
      <point x="197.02943725" y="755.0"/>
      <point x="202.0" y="755.0" type="curve" smooth="yes"/>
      <point x="206.97056275" y="755.0"/>
      <point x="211.0" y="759.02943725"/>
    </contour>
    <contour>
      <point x="287.0" y="764" type="curve" smooth="yes"/>
      <point x="287.0" y="768.97056275"/>
      <point x="282.97056275" y="773.0"/>
      <point x="278.0" y="773.0" type="curve" smooth="yes"/>
      <point x="273.02943725" y="773.0"/>
      <point x="269.0" y="768.97056275"/>
      <point x="269.0" y="764" type="curve" smooth="yes"/>
      <point x="269.0" y="759.02943725"/>
      <point x="273.02943725" y="755.0"/>
      <point x="278.0" y="755.0" type="curve" smooth="yes"/>
      <point x="282.97056275" y="755.0"/>
      <point x="287.0" y="759.02943725"/>
    </contour>
    <component base="A"/>
  </outline>
</glyph>
<glyph name="uni00C7" format="2">
  <advance width="500"/>
  <unicode hex="00C7"/>
  <outline>
    <contour>
      <point x="259.0" y="-105.0" type="curve" smooth="yes"/>
      <point x="259.0" y="-100.02943725"/>
      <point x="254.97056275" y="-96.0"/>
      <point x="250.0" y="-96.0" type="curve" smooth="yes"/>
      <point x="245.02943725" y="-96.0"/>
      <point x="241.0" y="-100.02943725"/>
      <point x="241.0" y="-105.0" type="curve" smooth="yes"/>
      <point x="241.0" y="-109.97056275"/>
      <point x="245.02943725" y="-114.0"/>
      <point x="250.0" y="-114.0" type="curve" smooth="yes"/>
      <point x="254.97056275" y="-114.0"/>
      <point x="259.0" y="-109.97056275"/>
    </contour>
    <contour>
      <point x="258.86969111921337" y="-13.525968364595851" type="line"/>
      <point x="226.86969111921337" y="-199.52596836459585" type="line"/>
      <point x="209.13030888078663" y="-196.47403163540415" type="line"/>
      <point x="241.13030888078663" y="-10.474031635404149" type="line"/>
    </contour>
    <component base="C"/>
  </outline>
</glyph>
<glyph name="uni00CD" format="2">
  <advance width="250"/>
  <unicode hex="00CD"/>
  <outline>
    <contour>
      <point x="80.55393370669577" y="710.2807825421938" type="line"/>
      <point x="156.55393370669577" y="788.2807825421938" type="line"/>
      <point x="169.44606629330423" y="775.7192174578062" type="line"/>
      <point x="93.44606629330423" y="697.7192174578062" type="line"/>
    </contour>
    <component base="I"/>
  </outline>
</glyph>
<glyph name="uni00CE" format="2">
  <advance width="250"/>
  <unicode hex="00CE"/>
  <outline>
    <contour>
      <point x="60.19544837391627" y="726.8905073778038" type="line"/>
      <point x="118.19544837391626" y="793.8905073778038" type="line"/>
      <point x="131.80455162608374" y="782.1094926221962" type="line"/>
      <point x="73.80455162608374" y="715.1094926221962" type="line"/>
    </contour>
    <contour>
      <point x="131.80455162608374" y="793.8905073778038" type="line"/>
      <point x="189.80455162608374" y="726.8905073778038" type="line"/>
      <point x="176.19544837391626" y="715.1094926221962" type="line"/>
      <point x="118.19544837391626" y="782.1094926221962" type="line"/>
    </contour>
    <component base="I"/>
  </outline>
</glyph>
<glyph name="uni00D5" format="2">
  <advance width="500"/>
  <unicode hex="00D5"/>
  <outline>
    <contour>
      <point x="186.83883890073005" y="763.3730872846713" type="line"/>
      <point x="226.83883890073005" y="791.3730872846713" type="line"/>
      <point x="237.16116109926995" y="776.6269127153287" type="line"/>
      <point x="197.16116109926995" y="748.6269127153287" type="line"/>
    </contour>
    <contour>
      <point x="237.16116109926995" y="791.3730872846713" type="line"/>
      <point x="277.16116109927" y="763.3730872846713" type="line"/>
      <point x="266.83883890073" y="748.6269127153287" type="line"/>
      <point x="226.83883890073005" y="776.6269127153287" type="line"/>
    </contour>
    <contour>
      <point x="266.66120865755136" y="763.2455025361803" type="line"/>
      <point x="304.66120865755136" y="791.2455025361803" type="line"/>
      <point x="315.33879134244864" y="776.7544974638197" type="line"/>
      <point x="277.33879134244864" y="748.7544974638197" type="line"/>
    </contour>
    <component base="O"/>
  </outline>
</glyph>
<glyph name="uni00D7" format="2">
  <advance width="500"/>
  <unicode hex="00D7"/>
  <outline>
    <contour>
      <point x="109.39339828220179" y="220.6066017177982" type="line"/>
      <point x="369.3933982822018" y="480.6066017177982" type="line"/>
      <point x="390.6066017177982" y="459.3933982822018" type="line"/>
      <point x="130.6066017177982" y="199.3933982822018" type="line"/>
    </contour>
    <contour>
      <point x="369.3933982822018" y="199.3933982822018" type="line"/>
      <point x="109.39339828220179" y="459.3933982822018" type="line"/>
      <point x="130.6066017177982" y="480.6066017177982" type="line"/>
      <point x="390.6066017177982" y="220.6066017177982" type="line"/>
    </contour>
  </outline>
</glyph>
<glyph name="uni00E0" format="2">
  <advance width="440"/>
  <unicode hex="00E0"/>
  <outline>
    <contour>
      <point x="264.4460662933042" y="626.7192174578062" type="line"/>
      <point x="188.44606629330423" y="548.7192174578062" type="line"/>
      <point x="175.55393370669577" y="561.2807825421938" type="line"/>
      <point x="251.55393370669577" y="639.2807825421938" type="line"/>
    </contour>
    <component base="a"/>
  </outline>
</glyph>
<glyph name="uni00E2" format="2">
  <advance width="440"/>
  <unicode hex="00E2"/>
  <outline>
    <contour>
      <point x="155.19544837391626" y="577.8905073778038" type="line"/>
      <point x="213.19544837391626" y="644.8905073778038" type="line"/>
      <point x="226.80455162608374" y="633.1094926221962" type="line"/>
      <point x="168.80455162608374" y="566.1094926221962" type="line"/>
    </contour>
    <contour>
      <point x="226.80455162608374" y="644.8905073778038" type="line"/>
      <point x="284.8045516260837" y="577.8905073778038" type="line"/>
      <point x="271.1954483739163" y="566.1094926221962" type="line"/>
      <point x="213.19544837391626" y="633.1094926221962" type="line"/>
    </contour>
    <component base="a"/>
  </outline>
</glyph>
<glyph name="uni00E4" format="2">
  <advance width="440"/>
  <unicode hex="00E4"/>
  <outline>
    <contour>
      <point x="191.0" y="615" type="curve" smooth="yes"/>
      <point x="191.0" y="619.97056275"/>
      <point x="186.97056275" y="624.0"/>
      <point x="182.0" y="624.0" type="curve" smooth="yes"/>
      <point x="177.02943725" y="624.0"/>
      <point x="173.0" y="619.97056275"/>
      <point x="173.0" y="615" type="curve" smooth="yes"/>
      <point x="173.0" y="610.02943725"/>
      <point x="177.02943725" y="606.0"/>
      <point x="182.0" y="606.0" type="curve" smooth="yes"/>
      <point x="186.97056275" y="606.0"/>
      <point x="191.0" y="610.02943725"/>
    </contour>
    <contour>
      <point x="267.0" y="615" type="curve" smooth="yes"/>
      <point x="267.0" y="619.97056275"/>
      <point x="262.97056275" y="624.0"/>
      <point x="258.0" y="624.0" type="curve" smooth="yes"/>
      <point x="253.02943725" y="624.0"/>
      <point x="249.0" y="619.97056275"/>
      <point x="249.0" y="615" type="curve" smooth="yes"/>
      <point x="249.0" y="610.02943725"/>
      <point x="253.02943725" y="606.0"/>
      <point x="258.0" y="606.0" type="curve" smooth="yes"/>
      <point x="262.97056275" y="606.0"/>
      <point x="267.0" y="610.02943725"/>
    </contour>
    <component base="a"/>
  </outline>
</glyph>
<glyph name="uni00E5" format="2">
  <advance width="440"/>
  <unicode hex="00E5"/>
  <outline>
    <contour>
      <point x="262.0" y="615" type="curve" smooth="yes"/>
      <point x="262.0" y="638.1959595"/>
      <point x="243.19595950000001" y="657"/>
      <point x="220.0" y="657" type="curve" smooth="yes"/>
      <point x="196.80404049999999" y="657"/>
      <point x="178.0" y="638.1959595"/>
      <point x="178.0" y="615" type="curve" smooth="yes"/>
      <point x="178.0" y="591.8040405"/>
      <point x="196.80404049999999" y="573"/>
      <point x="220.0" y="573" type="curve" smooth="yes"/>
      <point x="243.19595950000001" y="573"/>
      <point x="262.0" y="591.8040405"/>
    </contour>
    <contour>
      <point x="241.0" y="615" type="curve" smooth="yes"/>
      <point x="241.0" y="603.40202025"/>
      <point x="231.59797975" y="594"/>
      <point x="220.0" y="594" type="curve" smooth="yes"/>
      <point x="208.40202025" y="594"/>
      <point x="199.0" y="603.40202025"/>
      <point x="199.0" y="615" type="curve" smooth="yes"/>
      <point x="199.0" y="626.59797975"/>
      <point x="208.40202025" y="636"/>
      <point x="220.0" y="636" type="curve" smooth="yes"/>
      <point x="231.59797975" y="636"/>
      <point x="241.0" y="626.59797975"/>
    </contour>
    <component base="a"/>
  </outline>
</glyph>
<glyph name="uni00E9" format="2">
  <advance width="500"/>
  <unicode hex="00E9"/>
  <outline>
    <contour>
      <point x="205.55393370669577" y="561.2807825421938" type="line"/>
      <point x="281.5539337066958" y="639.2807825421938" type="line"/>
      <point x="294.4460662933042" y="626.7192174578062" type="line"/>
      <point x="218.44606629330423" y="548.7192174578062" type="line"/>
    </contour>
    <component base="e"/>
  </outline>
</glyph>
<glyph name="uni00EE" format="2">
  <advance width="250"/>
  <unicode hex="00EE"/>
  <outline>
    <contour>
      <point x="60.19544837391627" y="577.8905073778038" type="line"/>
      <point x="118.19544837391626" y="644.8905073778038" type="line"/>
      <point x="131.80455162608374" y="633.1094926221962" type="line"/>
      <point x="73.80455162608374" y="566.1094926221962" type="line"/>
    </contour>
    <contour>
      <point x="131.80455162608374" y="644.8905073778038" type="line"/>
      <point x="189.80455162608374" y="577.8905073778038" type="line"/>
      <point x="176.19544837391626" y="566.1094926221962" type="line"/>
      <point x="118.19544837391626" y="633.1094926221962" type="line"/>
    </contour>
    <component base="i"/>
  </outline>
</glyph>
<glyph name="uni00EF" format="2">
  <advance width="250"/>
  <unicode hex="00EF"/>
  <outline>
    <contour>
      <point x="96.0" y="615" type="curve" smooth="yes"/>
      <point x="96.0" y="619.97056275"/>
      <point x="91.97056275" y="624.0"/>
      <point x="87.0" y="624.0" type="curve" smooth="yes"/>
      <point x="82.02943725" y="624.0"/>
      <point x="78.0" y="619.97056275"/>
      <point x="78.0" y="615" type="curve" smooth="yes"/>
      <point x="78.0" y="610.02943725"/>
      <point x="82.02943725" y="606.0"/>
      <point x="87.0" y="606.0" type="curve" smooth="yes"/>
      <point x="91.97056275" y="606.0"/>
      <point x="96.0" y="610.02943725"/>
    </contour>
    <contour>
      <point x="172.0" y="615" type="curve" smooth="yes"/>
      <point x="172.0" y="619.97056275"/>
      <point x="167.97056275" y="624.0"/>
      <point x="163.0" y="624.0" type="curve" smooth="yes"/>
      <point x="158.02943725" y="624.0"/>
      <point x="154.0" y="619.97056275"/>
      <point x="154.0" y="615" type="curve" smooth="yes"/>
      <point x="154.0" y="610.02943725"/>
      <point x="158.02943725" y="606.0"/>
      <point x="163.0" y="606.0" type="curve" smooth="yes"/>
      <point x="167.97056275" y="606.0"/>
      <point x="172.0" y="610.02943725"/>
    </contour>
    <component base="i"/>
  </outline>
</glyph>
<glyph name="uni00F1" format="2">
  <advance width="500"/>
  <unicode hex="00F1"/>
  <outline>
    <contour>
      <point x="186.83883890073005" y="614.3730872846713" type="line"/>
      <point x="226.83883890073005" y="642.3730872846713" type="line"/>
      <point x="237.16116109926995" y="627.6269127153287" type="line"/>
      <point x="197.16116109926995" y="599.6269127153287" type="line"/>
    </contour>
    <contour>
      <point x="237.16116109926995" y="642.3730872846713" type="line"/>
      <point x="277.16116109927" y="614.3730872846713" type="line"/>
      <point x="266.83883890073" y="599.6269127153287" type="line"/>
      <point x="226.83883890073005" y="627.6269127153287" type="line"/>
    </contour>
    <contour>
      <point x="266.66120865755136" y="614.2455025361803" type="line"/>
      <point x="304.66120865755136" y="642.2455025361803" type="line"/>
      <point x="315.33879134244864" y="627.7544974638197" type="line"/>
      <point x="277.33879134244864" y="599.7544974638197" type="line"/>
    </contour>
    <component base="n"/>
  </outline>
</glyph>
<glyph name="uni00F6" format="2">
  <advance width="500"/>
  <unicode hex="00F6"/>
  <outline>
    <contour>
      <point x="221.0" y="615" type="curve" smooth="yes"/>
      <point x="221.0" y="619.97056275"/>
      <point x="216.97056275" y="624.0"/>
      <point x="212.0" y="624.0" type="curve" smooth="yes"/>
      <point x="207.02943725" y="624.0"/>
      <point x="203.0" y="619.97056275"/>
      <point x="203.0" y="615" type="curve" smooth="yes"/>
      <point x="203.0" y="610.02943725"/>
      <point x="207.02943725" y="606.0"/>
      <point x="212.0" y="606.0" type="curve" smooth="yes"/>
      <point x="216.97056275" y="606.0"/>
      <point x="221.0" y="610.02943725"/>
    </contour>
    <contour>
      <point x="297.0" y="615" type="curve" smooth="yes"/>
      <point x="297.0" y="619.97056275"/>
      <point x="292.97056275" y="624.0"/>
      <point x="288.0" y="624.0" type="curve" smooth="yes"/>
      <point x="283.02943725" y="624.0"/>
      <point x="279.0" y="619.97056275"/>
      <point x="279.0" y="615" type="curve" smooth="yes"/>
      <point x="279.0" y="610.02943725"/>
      <point x="283.02943725" y="606.0"/>
      <point x="288.0" y="606.0" type="curve" smooth="yes"/>
      <point x="292.97056275" y="606.0"/>
      <point x="297.0" y="610.02943725"/>
    </contour>
    <component base="o"/>
  </outline>
</glyph>
<glyph name="uni00F7" format="2">
  <advance width="500"/>
  <unicode hex="00F7"/>
  <outline>
    <contour>
      <point x="100.0" y="320" type="line"/>
      <point x="400.0" y="320" type="line"/>
      <point x="400.0" y="350" type="line"/>
      <point x="100.0" y="350" type="line"/>
    </contour>
    <contour>
      <point x="265.0" y="500" type="curve" smooth="yes"/>
      <point x="265.0" y="508.28427125"/>
      <point x="258.28427125" y="515.0"/>
      <point x="250.0" y="515.0" type="curve" smooth="yes"/>
      <point x="241.71572875" y="515.0"/>
      <point x="235.0" y="508.28427125"/>
      <point x="235.0" y="500" type="curve" smooth="yes"/>
      <point x="235.0" y="491.71572875"/>
      <point x="241.71572875" y="485.0"/>
      <point x="250.0" y="485.0" type="curve" smooth="yes"/>
      <point x="258.28427125" y="485.0"/>
      <point x="265.0" y="491.71572875"/>
    </contour>
    <contour>
      <point x="265.0" y="140" type="curve" smooth="yes"/>
      <point x="265.0" y="148.28427125"/>
      <point x="258.28427125" y="155.0"/>
      <point x="250.0" y="155.0" type="curve" smooth="yes"/>
      <point x="241.71572875" y="155.0"/>
      <point x="235.0" y="148.28427125"/>
      <point x="235.0" y="140" type="curve" smooth="yes"/>
      <point x="235.0" y="131.71572875"/>
      <point x="241.71572875" y="125.0"/>
      <point x="250.0" y="125.0" type="curve" smooth="yes"/>
      <point x="258.28427125" y="125.0"/>
      <point x="265.0" y="131.71572875"/>
    </contour>
  </outline>
</glyph>
<glyph name="uni0101" format="2">
  <advance width="440"/>
  <unicode hex="0101"/>
  <outline>
    <contour>
      <point x="152.0" y="597" type="line"/>
      <point x="288.0" y="597" type="line"/>
      <point x="288.0" y="615" type="line"/>
      <point x="152.0" y="615" type="line"/>
    </contour>
    <component base="a"/>
  </outline>
</glyph>
<glyph name="uni0105" format="2">
  <advance width="440"/>
  <unicode hex="0105"/>
  <outline>
    <contour>
      <point x="240.75576348838518" y="12.082451856697016" type="line"/>
      <point x="284.7557634883852" y="-172.91754814330298" type="line"/>
      <point x="267.2442365116148" y="-177.08245185669702" type="line"/>
      <point x="223.24423651161482" y="7.917548143302983" type="line"/>
    </contour>
    <component base="a"/>
  </outline>
</glyph>
<glyph name="uni0111" format="2">
  <advance width="500"/>
  <unicode hex="0111"/>
  <outline>
    <contour>
      <point x="126.76918196017543" y="103.64055413299933" type="line"/>
      <point x="356.76918196017544" y="623.6405541329993" type="line"/>
      <point x="373.23081803982456" y="616.3594458670007" type="line"/>
      <point x="143.23081803982456" y="96.35944586700067" type="line"/>
    </contour>
    <component base="d"/>
  </outline>
</glyph>
<glyph name="uni0113" format="2">
  <advance width="500"/>
  <unicode hex="0113"/>
  <outline>
    <contour>
      <point x="182.0" y="597" type="line"/>
      <point x="318.0" y="597" type="line"/>
      <point x="318.0" y="615" type="line"/>
      <point x="182.0" y="615" type="line"/>
    </contour>
    <component base="e"/>
  </outline>
</glyph>
<glyph name="uni0117" format="2">
  <advance width="500"/>
  <unicode hex="0117"/>
  <outline>
    <contour>
      <point x="259.0" y="615" type="curve" smooth="yes"/>
      <point x="259.0" y="619.97056275"/>
      <point x="254.97056275" y="624.0"/>
      <point x="250.0" y="624.0" type="curve" smooth="yes"/>
      <point x="245.02943725" y="624.0"/>
      <point x="241.0" y="619.97056275"/>
      <point x="241.0" y="615" type="curve" smooth="yes"/>
      <point x="241.0" y="610.02943725"/>
      <point x="245.02943725" y="606.0"/>
      <point x="250.0" y="606.0" type="curve" smooth="yes"/>
      <point x="254.97056275" y="606.0"/>
      <point x="259.0" y="610.02943725"/>
    </contour>
    <component base="e"/>
  </outline>
</glyph>
<glyph name="uni011F" format="2">
  <advance width="500"/>
  <unicode hex="011F"/>
  <outline>
    <contour>
      <point x="314.0" y="615" type="curve" smooth="yes"/>
      <point x="314.0" y="595.67003375"/>
      <point x="285.346224" y="580"/>
      <point x="250.0" y="580" type="curve" smooth="yes"/>
      <point x="214.653776" y="580"/>
      <point x="186.0" y="595.67003375"/>
      <point x="186.0" y="615" type="curve" smooth="yes"/>
      <point x="186.0" y="634.32996625"/>
      <point x="214.653776" y="650"/>
      <point x="250.0" y="650" type="curve" smooth="yes"/>
      <point x="285.346224" y="650"/>
      <point x="314.0" y="634.32996625"/>
    </contour>
    <contour>
      <point x="180.0" y="579" type="line"/>
      <point x="320.0" y="579" type="line"/>
      <point x="320.0" y="617" type="line"/>
      <point x="180.0" y="617" type="line"/>
    </contour>
    <component base="g"/>
  </outline>
</glyph>
<glyph name="uni0120" format="2">
  <advance width="500"/>
  <unicode hex="0120"/>
  <outline>
    <contour>
      <point x="259.0" y="764" type="curve" smooth="yes"/>
      <point x="259.0" y="768.97056275"/>
      <point x="254.97056275" y="773.0"/>
      <point x="250.0" y="773.0" type="curve" smooth="yes"/>
      <point x="245.02943725" y="773.0"/>
      <point x="241.0" y="768.97056275"/>
      <point x="241.0" y="764" type="curve" smooth="yes"/>
      <point x="241.0" y="759.02943725"/>
      <point x="245.02943725" y="755.0"/>
      <point x="250.0" y="755.0" type="curve" smooth="yes"/>
      <point x="254.97056275" y="755.0"/>
      <point x="259.0" y="759.02943725"/>
    </contour>
    <component base="G"/>
  </outline>
</glyph>
<glyph name="uni0128" format="2">
  <advance width="250"/>
  <unicode hex="0128"/>
  <outline>
    <contour>
      <point x="63.0" y="754" type="line"/>
      <point x="87.0" y="780" type="line"/>
      <point x="111.0" y="780" type="line"/>
      <point x="135.0" y="754" type="line"/>
      <point x="159.0" y="754" type="line"/>
      <point x="187.0" y="780" type="line"/>
      <point x="187.0" y="769.56" type="line"/>
      <point x="159.0" y="743.56" type="line"/>
      <point x="135.0" y="743.56" type="line"/>
      <point x="111.0" y="769.56" type="line"/>
      <point x="87.0" y="769.56" type="line"/>
      <point x="63.0" y="743.56" type="line"/>
    </contour>
    <component base="I"/>
  </outline>
</glyph>
<glyph name="uni012A" format="2">
  <advance width="250"/>
  <unicode hex="012A"/>
  <outline>
    <contour>
      <point x="57.0" y="746" type="line"/>
      <point x="193.0" y="746" type="line"/>
      <point x="193.0" y="764" type="line"/>
      <point x="57.0" y="764" type="line"/>
    </contour>
    <component base="I"/>
  </outline>
</glyph>
<glyph name="uni012D" format="2">
  <advance width="250"/>
  <unicode hex="012D"/>
  <outline>
    <contour>
      <point x="189.0" y="615" type="curve" smooth="yes"/>
      <point x="189.0" y="595.67003375"/>
      <point x="160.346224" y="580"/>
      <point x="125.0" y="580" type="curve" smooth="yes"/>
      <point x="89.653776" y="580"/>
      <point x="61.0" y="595.67003375"/>
      <point x="61.0" y="615" type="curve" smooth="yes"/>
      <point x="61.0" y="634.32996625"/>
      <point x="89.653776" y="650"/>
      <point x="125.0" y="650" type="curve" smooth="yes"/>
      <point x="160.346224" y="650"/>
      <point x="189.0" y="634.32996625"/>
    </contour>
    <contour>
      <point x="55.0" y="579" type="line"/>
      <point x="195.0" y="579" type="line"/>
      <point x="195.0" y="617" type="line"/>
      <point x="55.0" y="617" type="line"/>
    </contour>
    <component base="i"/>
  </outline>
</glyph>
<glyph name="uni012E" format="2">
  <advance width="250"/>
  <unicode hex="012E"/>
  <outline>
    <contour>
      <point x="145.75576348838518" y="12.082451856697016" type="line"/>
      <point x="189.75576348838518" y="-172.91754814330298" type="line"/>
      <point x="172.24423651161482" y="-177.08245185669702" type="line"/>
      <point x="128.24423651161482" y="7.917548143302983" type="line"/>
    </contour>
    <component base="I"/>
  </outline>
</glyph>
<glyph name="uni0130" format="2">
  <advance width="250"/>
  <unicode hex="0130"/>
  <outline>
    <contour>
      <point x="134.0" y="764" type="curve" smooth="yes"/>
      <point x="134.0" y="768.97056275"/>
      <point x="129.97056275" y="773.0"/>
      <point x="125.0" y="773.0" type="curve" smooth="yes"/>
      <point x="120.02943725" y="773.0"/>
      <point x="116.0" y="768.97056275"/>
      <point x="116.0" y="764" type="curve" smooth="yes"/>
      <point x="116.0" y="759.02943725"/>
      <point x="120.02943725" y="755.0"/>
      <point x="125.0" y="755.0" type="curve" smooth="yes"/>
      <point x="129.97056275" y="755.0"/>
      <point x="134.0" y="759.02943725"/>
    </contour>
    <component base="I"/>
  </outline>
</glyph>
<glyph name="uni0134" format="2">
  <advance width="500"/>
  <unicode hex="0134"/>
  <outline>
    <contour>
      <point x="185.19544837391626" y="726.8905073778038" type="line"/>
      <point x="243.19544837391626" y="793.8905073778038" type="line"/>
      <point x="256.8045516260837" y="782.1094926221962" type="line"/>
      <point x="198.80455162608374" y="715.1094926221962" type="line"/>
    </contour>
    <contour>
      <point x="256.8045516260837" y="793.8905073778038" type="line"/>
      <point x="314.8045516260837" y="726.8905073778038" type="line"/>
      <point x="301.1954483739163" y="715.1094926221962" type="line"/>
      <point x="243.19544837391626" y="782.1094926221962" type="line"/>
    </contour>
    <component base="J"/>
  </outline>
</glyph>
<glyph name="uni0135" format="2">
  <advance width="500"/>
  <unicode hex="0135"/>
  <outline>
    <contour>
      <point x="185.19544837391626" y="577.8905073778038" type="line"/>
      <point x="243.19544837391626" y="644.8905073778038" type="line"/>
      <point x="256.8045516260837" y="633.1094926221962" type="line"/>
      <point x="198.80455162608374" y="566.1094926221962" type="line"/>
    </contour>
    <contour>
      <point x="256.8045516260837" y="644.8905073778038" type="line"/>
      <point x="314.8045516260837" y="577.8905073778038" type="line"/>
      <point x="301.1954483739163" y="566.1094926221962" type="line"/>
      <point x="243.19544837391626" y="633.1094926221962" type="line"/>
    </contour>
    <component base="j"/>
  </outline>
</glyph>
<glyph name="uni0139" format="2">
  <advance width="500"/>
  <unicode hex="0139"/>
  <outline>
    <contour>
      <point x="205.55393370669577" y="710.2807825421938" type="line"/>
      <point x="281.5539337066958" y="788.2807825421938" type="line"/>
      <point x="294.4460662933042" y="775.7192174578062" type="line"/>
      <point x="218.44606629330423" y="697.7192174578062" type="line"/>
    </contour>
    <component base="L"/>
  </outline>
</glyph>
<glyph name="uni013C" format="2">
  <advance width="250"/>
  <unicode hex="013C"/>
  <outline>
    <contour>
      <point x="134.0" y="-105.0" type="curve" smooth="yes"/>
      <point x="134.0" y="-100.02943725"/>
      <point x="129.97056275" y="-96.0"/>
      <point x="125.0" y="-96.0" type="curve" smooth="yes"/>
      <point x="120.02943725" y="-96.0"/>
      <point x="116.0" y="-100.02943725"/>
      <point x="116.0" y="-105.0" type="curve" smooth="yes"/>
      <point x="116.0" y="-109.97056275"/>
      <point x="120.02943725" y="-114.0"/>
      <point x="125.0" y="-114.0" type="curve" smooth="yes"/>
      <point x="129.97056275" y="-114.0"/>
      <point x="134.0" y="-109.97056275"/>
    </contour>
    <contour>
      <point x="133.86969111921337" y="-13.525968364595851" type="line"/>
      <point x="101.86969111921337" y="-199.52596836459585" type="line"/>
      <point x="84.13030888078663" y="-196.47403163540415" type="line"/>
      <point x="116.13030888078663" y="-10.474031635404149" type="line"/>
    </contour>
    <component base="l"/>
  </outline>
</glyph>
<glyph name="uni013E" format="2">
  <advance width="250"/>
  <unicode hex="013E"/>
  <outline>
    <contour>
      <point x="73.80455162608374" y="644.8905073778038" type="line"/>
      <point x="131.80455162608374" y="577.8905073778038" type="line"/>
      <point x="118.19544837391626" y="566.1094926221962" type="line"/>
      <point x="60.19544837391627" y="633.1094926221962" type="line"/>
    </contour>
    <contour>
      <point x="118.19544837391626" y="577.8905073778038" type="line"/>
      <point x="176.19544837391626" y="644.8905073778038" type="line"/>
      <point x="189.80455162608374" y="633.1094926221962" type="line"/>
      <point x="131.80455162608374" y="566.1094926221962" type="line"/>
    </contour>
    <component base="l"/>
  </outline>
</glyph>
<glyph name="uni013F" format="2">
  <advance width="500"/>
  <unicode hex="013F"/>
  <outline>
    <contour>
      <point x="377.0" y="266.4" type="curve" smooth="yes"/>
      <point x="377.0" y="273.02741699999996"/>
      <point x="371.627417" y="278.4"/>
      <point x="365.0" y="278.4" type="curve" smooth="yes"/>
      <point x="358.372583" y="278.4"/>
      <point x="353.0" y="273.02741699999996"/>
      <point x="353.0" y="266.4" type="curve" smooth="yes"/>
      <point x="353.0" y="259.772583"/>
      <point x="358.372583" y="254.39999999999998"/>
      <point x="365.0" y="254.39999999999998" type="curve" smooth="yes"/>
      <point x="371.627417" y="254.39999999999998"/>
      <point x="377.0" y="259.772583"/>
    </contour>
    <component base="L"/>
  </outline>
</glyph>
<glyph name="uni0140" format="2">
  <advance width="250"/>
  <unicode hex="0140"/>
  <outline>
    <contour>
      <point x="194.5" y="266.4" type="curve" smooth="yes"/>
      <point x="194.5" y="273.02741699999996"/>
      <point x="189.127417" y="278.4"/>
      <point x="182.5" y="278.4" type="curve" smooth="yes"/>
      <point x="175.872583" y="278.4"/>
      <point x="170.5" y="273.02741699999996"/>
      <point x="170.5" y="266.4" type="curve" smooth="yes"/>
      <point x="170.5" y="259.772583"/>
      <point x="175.872583" y="254.39999999999998"/>
      <point x="182.5" y="254.39999999999998" type="curve" smooth="yes"/>
      <point x="189.127417" y="254.39999999999998"/>
      <point x="194.5" y="259.772583"/>
    </contour>
    <component base="l"/>
  </outline>
</glyph>
<glyph name="uni0142" format="2">
  <advance width="250"/>
  <unicode hex="0142"/>
  <outline>
    <contour>
      <point x="58.712332853711786" y="101.94342638812144" type="line"/>
      <point x="173.71233285371179" y="621.9434263881215" type="line"/>
      <point x="191.28766714628821" y="618.0565736118785" type="line"/>
      <point x="76.28766714628821" y="98.05657361187856" type="line"/>
    </contour>
    <component base="l"/>
  </outline>
</glyph>
<glyph name="uni0149" format="2">
  <advance width="500"/>
  <unicode hex="0149"/>
  <outline>
    <contour>
      <point x="148.05405486300432" y="566.0308884931453" type="line"/>
      <point x="108.05405486300432" y="636.0308884931453" type="line"/>
      <point x="121.94594513699568" y="643.9691115068547" type="line"/>
      <point x="161.94594513699568" y="573.9691115068547" type="line"/>
    </contour>
    <component base="n"/>
  </outline>
</glyph>
<glyph name="uni0150" format="2">
  <advance width="500"/>
  <unicode hex="0150"/>
  <outline>
    <contour>
      <point x="187.63208273409202" y="726.1685389775772" type="line"/>
      <point x="234.63208273409202" y="793.1685389775772" type="line"/>
      <point x="249.36791726590798" y="782.8314610224228" type="line"/>
      <point x="202.36791726590798" y="715.8314610224228" type="line"/>
    </contour>
    <contour>
      <point x="250.63208273409202" y="726.1685389775772" type="line"/>
      <point x="297.632082734092" y="793.1685389775772" type="line"/>
      <point x="312.367917265908" y="782.8314610224228" type="line"/>
      <point x="265.367917265908" y="715.8314610224228" type="line"/>
    </contour>
    <component base="O"/>
  </outline>
</glyph>
<glyph name="uni0151" format="2">
  <advance width="500"/>
  <unicode hex="0151"/>
  <outline>
    <contour>
      <point x="187.63208273409202" y="577.1685389775772" type="line"/>
      <point x="234.63208273409202" y="644.1685389775772" type="line"/>
      <point x="249.36791726590798" y="633.8314610224228" type="line"/>
      <point x="202.36791726590798" y="566.8314610224228" type="line"/>
    </contour>
    <contour>
      <point x="250.63208273409202" y="577.1685389775772" type="line"/>
      <point x="297.632082734092" y="644.1685389775772" type="line"/>
      <point x="312.367917265908" y="633.8314610224228" type="line"/>
      <point x="265.367917265908" y="566.8314610224228" type="line"/>
    </contour>
    <component base="o"/>
  </outline>
</glyph>
<glyph name="uni0160" format="2">
  <advance width="500"/>
  <unicode hex="0160"/>
  <outline>
    <contour>
      <point x="198.80455162608374" y="793.8905073778038" type="line"/>
      <point x="256.8045516260837" y="726.8905073778038" type="line"/>
      <point x="243.19544837391626" y="715.1094926221962" type="line"/>
      <point x="185.19544837391626" y="782.1094926221962" type="line"/>
    </contour>
    <contour>
      <point x="243.19544837391626" y="726.8905073778038" type="line"/>
      <point x="301.1954483739163" y="793.8905073778038" type="line"/>
      <point x="314.8045516260837" y="782.1094926221962" type="line"/>
      <point x="256.8045516260837" y="715.1094926221962" type="line"/>
    </contour>
    <component base="S"/>
  </outline>
</glyph>
<glyph name="uni0174" format="2">
  <advance width="560"/>
  <unicode hex="0174"/>
  <outline>
    <contour>
      <point x="215.19544837391626" y="726.8905073778038" type="line"/>
      <point x="273.1954483739163" y="793.8905073778038" type="line"/>
      <point x="286.8045516260837" y="782.1094926221962" type="line"/>
      <point x="228.80455162608374" y="715.1094926221962" type="line"/>
    </contour>
    <contour>
      <point x="286.8045516260837" y="793.8905073778038" type="line"/>
      <point x="344.8045516260837" y="726.8905073778038" type="line"/>
      <point x="331.1954483739163" y="715.1094926221962" type="line"/>
      <point x="273.1954483739163" y="782.1094926221962" type="line"/>
    </contour>
    <component base="W"/>
  </outline>
</glyph>
<glyph name="uni0175" format="2">
  <advance width="560"/>
  <unicode hex="0175"/>
  <outline>
    <contour>
      <point x="215.19544837391626" y="577.8905073778038" type="line"/>
      <point x="273.1954483739163" y="644.8905073778038" type="line"/>
      <point x="286.8045516260837" y="633.1094926221962" type="line"/>
      <point x="228.80455162608374" y="566.1094926221962" type="line"/>
    </contour>
    <contour>
      <point x="286.8045516260837" y="644.8905073778038" type="line"/>
      <point x="344.8045516260837" y="577.8905073778038" type="line"/>
      <point x="331.1954483739163" y="566.1094926221962" type="line"/>
      <point x="273.1954483739163" y="633.1094926221962" type="line"/>
    </contour>
    <component base="w"/>
  </outline>
</glyph>
<glyph name="uni01A1" format="2">
  <advance width="500"/>
  <unicode hex="01A1"/>
  <outline>
    <contour>
      <point x="312.0" y="603" type="line"/>
      <point x="334.0" y="611" type="line"/>
      <point x="366.0" y="645" type="line"/>
      <point x="354.0" y="645" type="line"/>
      <point x="318.0" y="617" type="line"/>
      <point x="312.0" y="591" type="line"/>
    </contour>
    <component base="o"/>
  </outline>
</glyph>
<glyph name="uni01B0" format="2">
  <advance width="500"/>
  <unicode hex="01B0"/>
  <outline>
    <contour>
      <point x="312.0" y="603" type="line"/>
      <point x="334.0" y="611" type="line"/>
      <point x="366.0" y="645" type="line"/>
      <point x="354.0" y="645" type="line"/>
      <point x="318.0" y="617" type="line"/>
      <point x="312.0" y="591" type="line"/>
    </contour>
    <component base="u"/>
  </outline>
</glyph>
<glyph name="uni021A" format="2">
  <advance width="500"/>
  <unicode hex="021A"/>
  <outline>
    <contour>
      <point x="259.0" y="-105.0" type="curve" smooth="yes"/>
      <point x="259.0" y="-100.02943725"/>
      <point x="254.97056275" y="-96.0"/>
      <point x="250.0" y="-96.0" type="curve" smooth="yes"/>
      <point x="245.02943725" y="-96.0"/>
      <point x="241.0" y="-100.02943725"/>
      <point x="241.0" y="-105.0" type="curve" smooth="yes"/>
      <point x="241.0" y="-109.97056275"/>
      <point x="245.02943725" y="-114.0"/>
      <point x="250.0" y="-114.0" type="curve" smooth="yes"/>
      <point x="254.97056275" y="-114.0"/>
      <point x="259.0" y="-109.97056275"/>
    </contour>
    <contour>
      <point x="262.92600079970623" y="-13.15174203867177" type="line"/>
      <point x="238.92600079970623" y="-199.15174203867178" type="line"/>
      <point x="221.07399920029377" y="-196.84825796132822" type="line"/>
      <point x="245.07399920029377" y="-10.84825796132823" type="line"/>
    </contour>
    <component base="T"/>
  </outline>
</glyph>
<glyph name="uni038F" format="2">
  <advance width="500"/>
  <unicode hex="038F"/>
  <outline>
    <contour>
      <point x="66.4" y="0" type="curve"/>
      <point x="161.6" y="0" type="line"/>
      <point x="166.23919189999998" y="0"/>
      <point x="170" y="3.7608081"/>
      <point x="170" y="8.4" type="curve"/>
      <point x="170" y="21.6" type="line"/>
      <point x="170" y="26.2391919"/>
      <point x="166.23919189999998" y="30"/>
      <point x="161.6" y="30" type="curve"/>
      <point x="66.4" y="30" type="line"/>
      <point x="61.760808100000006" y="30"/>
      <point x="58" y="26.2391919"/>
      <point x="58" y="21.6" type="curve"/>
      <point x="58" y="8.4" type="line"/>
      <point x="58" y="3.7608081"/>
      <point x="61.760808100000006" y="0"/>
    </contour>
    <contour>
      <point x="338.4" y="0" type="curve"/>
      <point x="433.6" y="0" type="line"/>
      <point x="438.23919190000004" y="0"/>
      <point x="442" y="3.7608081"/>
      <point x="442" y="8.4" type="curve"/>
      <point x="442" y="21.6" type="line"/>
      <point x="442" y="26.2391919"/>
      <point x="438.23919190000004" y="30"/>
      <point x="433.6" y="30" type="curve"/>
      <point x="338.4" y="30" type="line"/>
      <point x="333.76080809999996" y="30"/>
      <point x="330" y="26.2391919"/>
      <point x="330" y="21.6" type="curve"/>
      <point x="330" y="8.4" type="line"/>
      <point x="330" y="3.7608081"/>
      <point x="333.76080809999996" y="0"/>
    </contour>
    <contour>
      <point x="92" y="44" type="line"/>
      <point x="38" y="190"/>
      <point x="68" y="708"/>
      <point x="250" y="708" type="curve"/>
      <point x="432" y="708"/>
      <point x="462" y="190"/>
      <point x="408" y="44" type="curve"/>
      <point x="344" y="44" type="line"/>
      <point x="384" y="172"/>
      <point x="360" y="642"/>
      <point x="250" y="642" type="curve"/>
      <point x="140" y="642"/>
      <point x="116" y="172"/>
      <point x="156" y="44" type="curve"/>
    </contour>
    <contour>
      <point x="205.55393370669577" y="710.2807825421938" type="line"/>
      <point x="281.5539337066958" y="788.2807825421938" type="line"/>
      <point x="294.4460662933042" y="775.7192174578062" type="line"/>
      <point x="218.44606629330423" y="697.7192174578062" type="line"/>
    </contour>
  </outline>
</glyph>
<glyph name="uni0390" format="2">
  <advance width="250"/>
  <unicode hex="0390"/>
  <outline>
    <contour>
      <point x="96.0" y="615" type="curve"/>
      <point x="96.0" y="619.97056275"/>
      <point x="91.97056275" y="624.0"/>
      <point x="87.0" y="624.0" type="curve"/>
      <point x="82.02943725" y="624.0"/>
      <point x="78.0" y="619.97056275"/>
      <point x="78.0" y="615" type="curve"/>
      <point x="78.0" y="610.02943725"/>
      <point x="82.02943725" y="606.0"/>
      <point x="87.0" y="606.0" type="curve"/>
      <point x="91.97056275" y="606.0"/>
      <point x="96.0" y="610.02943725"/>
    </contour>
    <contour>
      <point x="172.0" y="615" type="curve"/>
      <point x="172.0" y="619.97056275"/>
      <point x="167.97056275" y="624.0"/>
      <point x="163.0" y="624.0" type="curve"/>
      <point x="158.02943725" y="624.0"/>
      <point x="154.0" y="619.97056275"/>
      <point x="154.0" y="615" type="curve"/>
      <point x="154.0" y="610.02943725"/>
      <point x="158.02943725" y="606.0"/>
      <point x="163.0" y="606.0" type="curve"/>
      <point x="167.97056275" y="606.0"/>
      <point x="172.0" y="610.02943725"/>
    </contour>
    <contour>
      <point x="80.55393370669577" y="561.2807825421938" type="line"/>
      <point x="156.55393370669577" y="639.2807825421938" type="line"/>
      <point x="169.44606629330423" y="626.7192174578062" type="line"/>
      <point x="93.44606629330423" y="548.7192174578062" type="line"/>
    </contour>
    <component base="i"/>
  </outline>
</glyph>
<glyph name="uni0393" format="2">
  <advance width="500"/>
  <unicode hex="0393"/>
  <outline>
    <contour>
      <point x="66.4" y="0" type="curve"/>
      <point x="79.6" y="0" type="line"/>
      <point x="84.2391919" y="0"/>
      <point x="88" y="3.7608081"/>
      <point x="88" y="8.4" type="curve"/>
      <point x="88" y="691.6" type="line"/>
      <point x="88" y="696.2391919"/>
      <point x="84.2391919" y="700"/>
      <point x="79.6" y="700" type="curve"/>
      <point x="66.4" y="700" type="line"/>
      <point x="61.760808100000006" y="700"/>
      <point x="58" y="696.2391919"/>
      <point x="58" y="691.6" type="curve"/>
      <point x="58" y="8.4" type="line"/>
      <point x="58" y="3.7608081"/>
      <point x="61.760808100000006" y="0"/>
    </contour>
    <contour>
      <point x="58" y="670" type="line"/>
      <point x="408" y="670" type="line"/>
      <point x="408" y="700" type="line"/>
      <point x="58" y="700" type="line"/>
    </contour>
  </outline>
</glyph>
<glyph name="uni0394" format="2">
  <advance width="500"/>
  <unicode hex="0394"/>
  <outline>
    <contour>
      <point x="53.48266239817592" y="3.774507776474261" type="line"/>
      <point x="235.48266239817593" y="703.7745077764743" type="line"/>
      <point x="264.51733760182407" y="696.2254922235257" type="line"/>
      <point x="82.51733760182408" y="-3.774507776474261" type="line"/>
    </contour>
    <contour>
      <point x="417.48266239817593" y="-3.774507776474261" type="line"/>
      <point x="235.48266239817593" y="696.2254922235257" type="line"/>
      <point x="264.51733760182407" y="703.7745077764743" type="line"/>
      <point x="446.51733760182407" y="3.774507776474261" type="line"/>
    </contour>
    <contour>
      <point x="80.4" y="0" type="curve"/>
      <point x="419.6" y="0" type="line"/>
      <point x="424.23919190000004" y="0"/>
      <point x="428" y="3.7608081"/>
      <point x="428" y="8.4" type="curve"/>
      <point x="428" y="21.6" type="line"/>
      <point x="428" y="26.2391919"/>
      <point x="424.23919190000004" y="30"/>
      <point x="419.6" y="30" type="curve"/>
      <point x="80.4" y="30" type="line"/>
      <point x="75.7608081" y="30"/>
      <point x="72" y="26.2391919"/>
      <point x="72" y="21.6" type="curve"/>
      <point x="72" y="8.4" type="line"/>
      <point x="72" y="3.7608081"/>
      <point x="75.7608081" y="0"/>
    </contour>
  </outline>
</glyph>
<glyph name="uni039B" format="2">
  <advance width="500"/>
  <unicode hex="039B"/>
  <outline>
    <contour>
      <point x="53.48266239817592" y="3.774507776474261" type="line"/>
      <point x="235.48266239817593" y="703.7745077764743" type="line"/>
      <point x="264.51733760182407" y="696.2254922235257" type="line"/>
      <point x="82.51733760182408" y="-3.774507776474261" type="line"/>
    </contour>
    <contour>
      <point x="417.48266239817593" y="-3.774507776474261" type="line"/>
      <point x="235.48266239817593" y="696.2254922235257" type="line"/>
      <point x="264.51733760182407" y="703.7745077764743" type="line"/>
      <point x="446.51733760182407" y="3.774507776474261" type="line"/>
    </contour>
  </outline>
</glyph>
<glyph name="uni03A0" format="2">
  <advance width="500"/>
  <unicode hex="03A0"/>
  <outline>
    <contour>
      <point x="68.4" y="0" type="curve"/>
      <point x="81.6" y="0" type="line"/>
      <point x="86.2391919" y="0"/>
      <point x="90" y="3.7608081"/>
      <point x="90" y="8.4" type="curve"/>
      <point x="90" y="691.6" type="line"/>
      <point x="90" y="696.2391919"/>
      <point x="86.2391919" y="700"/>
      <point x="81.6" y="700" type="curve"/>
      <point x="68.4" y="700" type="line"/>
      <point x="63.760808100000006" y="700"/>
      <point x="60" y="696.2391919"/>
      <point x="60" y="691.6" type="curve"/>
      <point x="60" y="8.4" type="line"/>
      <point x="60" y="3.7608081"/>
      <point x="63.760808100000006" y="0"/>
    </contour>
    <contour>
      <point x="384.4" y="0" type="curve"/>
      <point x="397.6" y="0" type="line"/>
      <point x="402.23919190000004" y="0"/>
      <point x="406" y="3.7608081"/>
      <point x="406" y="8.4" type="curve"/>
      <point x="406" y="691.6" type="line"/>
      <point x="406" y="696.2391919"/>
      <point x="402.23919190000004" y="700"/>
      <point x="397.6" y="700" type="curve"/>
      <point x="384.4" y="700" type="line"/>
      <point x="379.76080809999996" y="700"/>
      <point x="376" y="696.2391919"/>
      <point x="376" y="691.6" type="curve"/>
      <point x="376" y="8.4" type="line"/>
      <point x="376" y="3.7608081"/>
      <point x="379.76080809999996" y="0"/>
    </contour>
    <contour>
      <point x="60" y="670" type="line"/>
      <point x="440" y="670" type="line"/>
      <point x="440" y="700" type="line"/>
      <point x="60" y="700" type="line"/>
    </contour>
  </outline>
</glyph>
<glyph name="uni03A3" format="2">
  <advance width="500"/>
  <unicode hex="03A3"/>
  <outline>
    <contour>
      <point x="90.4" y="670" type="curve"/>
      <point x="413.6" y="670" type="line"/>
      <point x="418.23919190000004" y="670"/>
      <point x="422" y="673.7608081"/>
      <point x="422" y="678.4" type="curve"/>
      <point x="422" y="691.6" type="line"/>
      <point x="422" y="696.2391919"/>
      <point x="418.23919190000004" y="700"/>
      <point x="413.6" y="700" type="curve"/>
      <point x="90.4" y="700" type="line"/>
      <point x="85.7608081" y="700"/>
      <point x="82" y="696.2391919"/>
      <point x="82" y="691.6" type="curve"/>
      <point x="82" y="678.4" type="line"/>
      <point x="82" y="673.7608081"/>
      <point x="85.7608081" y="670"/>
    </contour>
    <contour>
      <point x="410.0559074729243" y="676.0750296916859" type="line"/>
      <point x="162.05590747292428" y="341.0750296916859" type="line"/>
      <point x="137.94409252707572" y="358.9249703083141" type="line"/>
      <point x="385.9440925270757" y="693.9249703083141" type="line"/>
    </contour>
    <contour>
      <point x="162.05590747292428" y="358.9249703083141" type="line"/>
      <point x="410.0559074729243" y="23.9249703083141" type="line"/>
      <point x="385.9440925270757" y="6.075029691685899" type="line"/>
      <point x="137.94409252707572" y="341.0750296916859" type="line"/>
    </contour>
    <contour>
      <point x="90.4" y="0" type="curve"/>
      <point x="413.6" y="0" type="line"/>
      <point x="418.23919190000004" y="0"/>
      <point x="422" y="3.7608081"/>
      <point x="422" y="8.4" type="curve"/>
      <point x="422" y="21.6" type="line"/>
      <point x="422" y="26.2391919"/>
      <point x="418.23919190000004" y="30"/>
      <point x="413.6" y="30" type="curve"/>
      <point x="90.4" y="30" type="line"/>
      <point x="85.7608081" y="30"/>
      <point x="82" y="26.2391919"/>
      <point x="82" y="21.6" type="curve"/>
      <point x="82" y="8.4" type="line"/>
      <point x="82" y="3.7608081"/>
      <point x="85.7608081" y="0"/>
    </contour>
  </outline>
</glyph>
<glyph name="uni03A6" format="2">
  <advance width="500"/>
  <unicode hex="03A6"/>
  <outline>
    <contour>
      <point x="428" y="350.0" type="curve"/>
      <point x="428" y="488.0711875"/>
      <point x="348.3066855" y="600.0"/>
      <point x="250" y="600.0" type="curve"/>
      <point x="151.69331449999999" y="600.0"/>
      <point x="72" y="488.0711875"/>
      <point x="72" y="350.0" type="curve"/>
      <point x="72" y="211.9288125"/>
      <point x="151.69331449999999" y="100.0"/>
      <point x="250" y="100.0" type="curve"/>
      <point x="348.3066855" y="100.0"/>
      <point x="428" y="211.9288125"/>
    </contour>
    <contour>
      <point x="398" y="350.0" type="curve"/>
      <point x="398" y="228.497355"/>
      <point x="331.738143" y="130.0"/>
      <point x="250" y="130.0" type="curve"/>
      <point x="168.26185700000002" y="130.0"/>
      <point x="102" y="228.497355"/>
      <point x="102" y="350.0" type="curve"/>
      <point x="102" y="471.50264500000003"/>
      <point x="168.26185700000002" y="570.0"/>
      <point x="250" y="570.0" type="curve"/>
      <point x="331.738143" y="570.0"/>
      <point x="398" y="471.50264500000003"/>
    </contour>
    <contour>
      <point x="243.4" y="-56" type="curve"/>
      <point x="256.6" y="-56" type="line"/>
      <point x="261.23919190000004" y="-56"/>
      <point x="265.0" y="-52.2391919"/>
      <point x="265.0" y="-47.6" type="curve"/>
      <point x="265.0" y="747.6" type="line"/>
      <point x="265.0" y="752.2391919"/>
      <point x="261.23919190000004" y="756"/>
      <point x="256.6" y="756" type="curve"/>
      <point x="243.4" y="756" type="line"/>
      <point x="238.76080810000002" y="756"/>
      <point x="235.0" y="752.2391919"/>
      <point x="235.0" y="747.6" type="curve"/>
      <point x="235.0" y="-47.6" type="line"/>
      <point x="235.0" y="-52.2391919"/>
      <point x="238.76080810000002" y="-56"/>
    </contour>
  </outline>
</glyph>
<glyph name="uni03A8" format="2">
  <advance width="500"/>
  <unicode hex="03A8"/>
  <outline>
    <contour>
      <point x="428" y="478" type="curve"/>
      <point x="428" y="575.202116"/>
      <point x="348.3066855" y="654"/>
      <point x="250" y="654" type="curve"/>
      <point x="151.69331449999999" y="654"/>
      <point x="72" y="575.202116"/>
      <point x="72" y="478" type="curve"/>
      <point x="72" y="380.797884"/>
      <point x="151.69331449999999" y="302"/>
      <point x="250" y="302" type="curve"/>
      <point x="348.3066855" y="302"/>
      <point x="428" y="380.797884"/>
    </contour>
    <contour>
      <point x="398" y="478" type="curve"/>
      <point x="398" y="397.3664265"/>
      <point x="331.738143" y="332"/>
      <point x="250" y="332" type="curve"/>
      <point x="168.26185700000002" y="332"/>
      <point x="102" y="397.3664265"/>
      <point x="102" y="478" type="curve"/>
      <point x="102" y="558.6335735"/>
      <point x="168.26185700000002" y="624"/>
      <point x="250" y="624" type="curve"/>
      <point x="331.738143" y="624"/>
      <point x="398" y="558.6335735"/>
    </contour>
    <contour>
      <point x="243.4" y="0" type="curve"/>
      <point x="256.6" y="0" type="line"/>
      <point x="261.23919190000004" y="0"/>
      <point x="265.0" y="3.7608081"/>
      <point x="265.0" y="8.4" type="curve"/>
      <point x="265.0" y="461.6" type="line"/>
      <point x="265.0" y="466.23919190000004"/>
      <point x="261.23919190000004" y="470"/>
      <point x="256.6" y="470" type="curve"/>
      <point x="243.4" y="470" type="line"/>
      <point x="238.76080810000002" y="470"/>
      <point x="235.0" y="466.23919190000004"/>
      <point x="235.0" y="461.6" type="curve"/>
      <point x="235.0" y="8.4" type="line"/>
      <point x="235.0" y="3.7608081"/>
      <point x="238.76080810000002" y="0"/>
    </contour>
  </outline>
</glyph>
<glyph name="uni03AA" format="2">
  <advance width="250"/>
  <unicode hex="03AA"/>
  <outline>
    <contour>
      <point x="96.0" y="764" type="curve"/>
      <point x="96.0" y="768.97056275"/>
      <point x="91.97056275" y="773.0"/>
      <point x="87.0" y="773.0" type="curve"/>
      <point x="82.02943725" y="773.0"/>
      <point x="78.0" y="768.97056275"/>
      <point x="78.0" y="764" type="curve"/>
      <point x="78.0" y="759.02943725"/>
      <point x="82.02943725" y="755.0"/>
      <point x="87.0" y="755.0" type="curve"/>
      <point x="91.97056275" y="755.0"/>
      <point x="96.0" y="759.02943725"/>
    </contour>
    <contour>
      <point x="172.0" y="764" type="curve"/>
      <point x="172.0" y="768.97056275"/>
      <point x="167.97056275" y="773.0"/>
      <point x="163.0" y="773.0" type="curve"/>
      <point x="158.02943725" y="773.0"/>
      <point x="154.0" y="768.97056275"/>
      <point x="154.0" y="764" type="curve"/>
      <point x="154.0" y="759.02943725"/>
      <point x="158.02943725" y="755.0"/>
      <point x="163.0" y="755.0" type="curve"/>
      <point x="167.97056275" y="755.0"/>
      <point x="172.0" y="759.02943725"/>
    </contour>
    <component base="I"/>
  </outline>
</glyph>
<glyph name="uni03AD" format="2">
  <advance width="500"/>
  <unicode hex="03AD"/>
  <outline>
    <contour>
      <point x="396.15999999999997" y="443.92" type="line"/>
      <point x="333.52" y="522"/>
      <point x="176.92000000000002" y="522"/>
      <point x="76" y="382.92" type="curve"/>
      <point x="76" y="173.07999999999998"/>
      <point x="176.92000000000002" y="34"/>
      <point x="333.52" y="34" type="curve"/>
      <point x="377.02" y="95.0"/>
      <point x="396.15999999999997" y="136.48000000000002"/>
      <point x="396.15999999999997" y="156.0" type="curve"/>
      <point x="370.96" y="182.84" type="line"/>
      <point x="316.12" y="64"/>
      <point x="106" y="199.92000000000002"/>
      <point x="106" y="278" type="curve"/>
      <point x="106" y="356.08"/>
      <point x="316.12" y="492"/>
      <point x="370.96" y="373.15999999999997" type="curve"/>
    </contour>
    <contour>
      <point x="227.2" y="246" type="curve"/>
      <point x="372.8" y="246" type="line"/>
      <point x="376.7764502" y="246"/>
      <point x="380" y="249.2235498"/>
      <point x="380" y="253.2" type="curve"/>
      <point x="380" y="268.8" type="line"/>
      <point x="380" y="272.7764502"/>
      <point x="376.7764502" y="276"/>
      <point x="372.8" y="276" type="curve"/>
      <point x="227.2" y="276" type="line"/>
      <point x="223.2235498" y="276"/>
      <point x="220" y="272.7764502"/>
      <point x="220" y="268.8" type="curve"/>
      <point x="220" y="253.2" type="line"/>
      <point x="220" y="249.2235498"/>
      <point x="223.2235498" y="246"/>
    </contour>
    <contour>
      <point x="205.55393370669577" y="561.2807825421938" type="line"/>
      <point x="281.5539337066958" y="639.2807825421938" type="line"/>
      <point x="294.4460662933042" y="626.7192174578062" type="line"/>
      <point x="218.44606629330423" y="548.7192174578062" type="line"/>
    </contour>
  </outline>
</glyph>
<glyph name="uni03AE" format="2">
  <advance width="500"/>
  <unicode hex="03AE"/>
  <outline>
    <contour>
      <point x="68.4" y="0" type="curve"/>
      <point x="81.6" y="0" type="line"/>
      <point x="86.2391919" y="0"/>
      <point x="90" y="3.7608081"/>
      <point x="90" y="8.4" type="curve"/>
      <point x="90" y="546.6" type="line"/>
      <point x="90" y="551.2391919"/>
      <point x="86.2391919" y="555"/>
      <point x="81.6" y="555" type="curve"/>
      <point x="68.4" y="555" type="line"/>
      <point x="63.760808100000006" y="555"/>
      <point x="60" y="551.2391919"/>
      <point x="60" y="546.6" type="curve"/>
      <point x="60" y="8.4" type="line"/>
      <point x="60" y="3.7608081"/>
      <point x="63.760808100000006" y="0"/>
    </contour>
    <contour>
      <point x="124" y="-210" type="line"/>
      <point x="124" y="555" type="line"/>
      <point x="198.8" y="565"/>
      <point x="344" y="424.95"/>
      <point x="344" y="271.95" type="curve"/>
      <point x="344" y="-210" type="line"/>
      <point x="314" y="-210" type="line"/>
      <point x="314" y="271.95" type="line"/>
      <point x="314" y="538.5"/>
      <point x="228.8" y="525"/>
      <point x="154" y="525" type="curve"/>
      <point x="154" y="-210" type="line"/>
    </contour>
    <contour>
      <point x="205.55393370669577" y="561.2807825421938" type="line"/>
      <point x="281.5539337066958" y="639.2807825421938" type="line"/>
      <point x="294.4460662933042" y="626.7192174578062" type="line"/>
      <point x="218.44606629330423" y="548.7192174578062" type="line"/>
    </contour>
  </outline>
</glyph>
<glyph name="uni03B0" format="2">
  <advance width="500"/>
  <unicode hex="03B0"/>
  <outline>
    <contour>
      <point x="221.0" y="615" type="curve"/>
      <point x="221.0" y="619.97056275"/>
      <point x="216.97056275" y="624.0"/>
      <point x="212.0" y="624.0" type="curve"/>
      <point x="207.02943725" y="624.0"/>
      <point x="203.0" y="619.97056275"/>
      <point x="203.0" y="615" type="curve"/>
      <point x="203.0" y="610.02943725"/>
      <point x="207.02943725" y="606.0"/>
      <point x="212.0" y="606.0" type="curve"/>
      <point x="216.97056275" y="606.0"/>
      <point x="221.0" y="610.02943725"/>
    </contour>
    <contour>
      <point x="297.0" y="615" type="curve"/>
      <point x="297.0" y="619.97056275"/>
      <point x="292.97056275" y="624.0"/>
      <point x="288.0" y="624.0" type="curve"/>
      <point x="283.02943725" y="624.0"/>
      <point x="279.0" y="619.97056275"/>
      <point x="279.0" y="615" type="curve"/>
      <point x="279.0" y="610.02943725"/>
      <point x="283.02943725" y="606.0"/>
      <point x="288.0" y="606.0" type="curve"/>
      <point x="292.97056275" y="606.0"/>
      <point x="297.0" y="610.02943725"/>
    </contour>
    <contour>
      <point x="205.55393370669577" y="561.2807825421938" type="line"/>
      <point x="281.5539337066958" y="639.2807825421938" type="line"/>
      <point x="294.4460662933042" y="626.7192174578062" type="line"/>
      <point x="218.44606629330423" y="548.7192174578062" type="line"/>
    </contour>
    <component base="u"/>
  </outline>
</glyph>
<glyph name="uni03B1" format="2">
  <advance width="500"/>
  <unicode hex="03B1"/>
  <outline>
    <contour>
      <point x="359" y="246" type="curve"/>
      <point x="359" y="381.8620485"/>
      <point x="294.08128875" y="492"/>
      <point x="214" y="492" type="curve"/>
      <point x="133.91871125" y="492"/>
      <point x="69" y="381.8620485"/>
      <point x="69" y="246" type="curve"/>
      <point x="69" y="110.13795150000001"/>
      <point x="133.91871125" y="0"/>
      <point x="214" y="0" type="curve"/>
      <point x="294.08128875" y="0"/>
      <point x="359" y="110.13795150000001"/>
    </contour>
    <contour>
      <point x="329" y="246" type="curve"/>
      <point x="329" y="126.706494"/>
      <point x="277.51274625" y="30"/>
      <point x="214" y="30" type="curve"/>
      <point x="150.48725375" y="30"/>
      <point x="99" y="126.706494"/>
      <point x="99" y="246" type="curve"/>
      <point x="99" y="365.293506"/>
      <point x="150.48725375" y="462"/>
      <point x="214" y="462" type="curve"/>
      <point x="277.51274625" y="462"/>
      <point x="329" y="365.293506"/>
    </contour>
    <contour>
      <point x="373.4" y="0" type="curve"/>
      <point x="386.6" y="0" type="line"/>
      <point x="391.23919190000004" y="0"/>
      <point x="395" y="3.7608081"/>
      <point x="395" y="8.4" type="curve"/>
      <point x="395" y="546.6" type="line"/>
      <point x="395" y="551.2391919"/>
      <point x="391.23919190000004" y="555"/>
      <point x="386.6" y="555" type="curve"/>
      <point x="373.4" y="555" type="line"/>
      <point x="368.76080809999996" y="555"/>
      <point x="365" y="551.2391919"/>
      <point x="365" y="546.6" type="curve"/>
      <point x="365" y="8.4" type="line"/>
      <point x="365" y="3.7608081"/>
      <point x="368.76080809999996" y="0"/>
    </contour>
    <contour>
      <point x="365" y="0" type="line"/>
      <point x="430" y="0" type="line"/>
      <point x="430" y="30" type="line"/>
      <point x="365" y="30" type="line"/>
    </contour>
  </outline>
</glyph>
<glyph name="uni03B2" format="2">
  <advance width="500"/>
  <unicode hex="03B2"/>
  <outline>
    <contour>
      <point x="80.4" y="-210" type="curve"/>
      <point x="93.6" y="-210" type="line"/>
      <point x="98.2391919" y="-210"/>
      <point x="102" y="-206.23919189999998"/>
      <point x="102" y="-201.6" type="curve"/>
      <point x="102" y="751.6" type="line"/>
      <point x="102" y="756.2391919"/>
      <point x="98.2391919" y="760"/>
      <point x="93.6" y="760" type="curve"/>
      <point x="80.4" y="760" type="line"/>
      <point x="75.7608081" y="760"/>
      <point x="72" y="756.2391919"/>
      <point x="72" y="751.6" type="curve"/>
      <point x="72" y="-201.6" type="line"/>
      <point x="72" y="-206.23919189999998"/>
      <point x="75.7608081" y="-210"/>
    </contour>
    <contour>
      <point x="382" y="386" type="curve"/>
      <point x="382" y="478.783838"/>
      <point x="316.6335735" y="554"/>
      <point x="236" y="554" type="curve"/>
      <point x="155.3664265" y="554"/>
      <point x="90" y="478.783838"/>
      <point x="90" y="386" type="curve"/>
      <point x="90" y="293.216162"/>
      <point x="155.3664265" y="218"/>
      <point x="236" y="218" type="curve"/>
      <point x="316.6335735" y="218"/>
      <point x="382" y="293.216162"/>
    </contour>
    <contour>
      <point x="352" y="386" type="curve"/>
      <point x="352" y="309.7847045"/>
      <point x="300.065031" y="248"/>
      <point x="236" y="248" type="curve"/>
      <point x="171.934969" y="248"/>
      <point x="120" y="309.7847045"/>
      <point x="120" y="386" type="curve"/>
      <point x="120" y="462.2152955"/>
      <point x="171.934969" y="524"/>
      <point x="236" y="524" type="curve"/>
      <point x="300.065031" y="524"/>
      <point x="352" y="462.2152955"/>
    </contour>
    <contour>
      <point x="382" y="142" type="curve"/>
      <point x="382" y="224.8427125"/>
      <point x="316.6335735" y="292"/>
      <point x="236" y="292" type="curve"/>
      <point x="155.3664265" y="292"/>
      <point x="90" y="224.8427125"/>
      <point x="90" y="142" type="curve"/>
      <point x="90" y="59.157287499999995"/>
      <point x="155.3664265" y="-8"/>
      <point x="236" y="-8" type="curve"/>
      <point x="316.6335735" y="-8"/>
      <point x="382" y="59.157287499999995"/>
    </contour>
    <contour>
      <point x="352" y="142" type="curve"/>
      <point x="352" y="75.72583"/>
      <point x="300.065031" y="22"/>
      <point x="236" y="22" type="curve"/>
      <point x="171.934969" y="22"/>
      <point x="120" y="75.72583"/>
      <point x="120" y="142" type="curve"/>
      <point x="120" y="208.27417"/>
      <point x="171.934969" y="262"/>
      <point x="236" y="262" type="curve"/>
      <point x="300.065031" y="262"/>
      <point x="352" y="208.27417"/>
    </contour>
  </outline>
</glyph>
<glyph name="uni03B3" format="2">
  <advance width="500"/>
  <unicode hex="03B3"/>
  <outline>
    <contour>
      <point x="87.9960902137895" y="560.3953182230027" type="line"/>
      <point x="257.9960902137895" y="119.39531822300276" type="line"/>
      <point x="230.0039097862105" y="108.60468177699724" type="line"/>
      <point x="60.00390978621049" y="549.6046817769973" type="line"/>
    </contour>
    <contour>
      <point x="439.86560900302464" y="549.2776851733549" type="line"/>
      <point x="257.86560900302464" y="108.27768517335491" type="line"/>
      <point x="230.13439099697536" y="119.72231482664509" type="line"/>
      <point x="412.13439099697536" y="560.7223148266451" type="line"/>
    </contour>
    <contour>
      <point x="220.4" y="-210" type="curve"/>
      <point x="233.6" y="-210" type="line"/>
      <point x="238.23919189999998" y="-210"/>
      <point x="242" y="-206.23919189999998"/>
      <point x="242" y="-201.6" type="curve"/>
      <point x="242" y="-64.4" type="line"/>
      <point x="242" y="-59.760808100000006"/>
      <point x="238.23919189999998" y="-56"/>
      <point x="233.6" y="-56" type="curve"/>
      <point x="220.4" y="-56" type="line"/>
      <point x="215.76080810000002" y="-56"/>
      <point x="212" y="-59.760808100000006"/>
      <point x="212" y="-64.4" type="curve"/>
      <point x="212" y="-201.6" type="line"/>
      <point x="212" y="-206.23919189999998"/>
      <point x="215.76080810000002" y="-210"/>
    </contour>
  </outline>
</glyph>
<glyph name="uni03B4" format="2">
  <advance width="500"/>
  <unicode hex="03B4"/>
  <outline>
    <contour>
      <point x="396" y="226" type="curve"/>
      <point x="396" y="350.8163535"/>
      <point x="328.8427125" y="452"/>
      <point x="246" y="452" type="curve"/>
      <point x="163.1572875" y="452"/>
      <point x="96" y="350.8163535"/>
      <point x="96" y="226" type="curve"/>
      <point x="96" y="101.18364650000001"/>
      <point x="163.1572875" y="0"/>
      <point x="246" y="0" type="curve"/>
      <point x="328.8427125" y="0"/>
      <point x="396" y="101.18364650000001"/>
    </contour>
    <contour>
      <point x="366" y="226" type="curve"/>
      <point x="366" y="117.752189"/>
      <point x="312.27417" y="30"/>
      <point x="246" y="30" type="curve"/>
      <point x="179.72583" y="30"/>
      <point x="126" y="117.752189"/>
      <point x="126" y="226" type="curve"/>
      <point x="126" y="334.247811"/>
      <point x="179.72583" y="422"/>
      <point x="246" y="422" type="curve"/>
      <point x="312.27417" y="422"/>
      <point x="366" y="334.247811"/>
    </contour>
    <contour>
      <point x="154" y="420" type="line"/>
      <point x="120" y="620"/>
      <point x="220" y="748"/>
      <point x="374" y="706" type="curve"/>
      <point x="356" y="642" type="line"/>
      <point x="258" y="658"/>
      <point x="214" y="586"/>
      <point x="218" y="438" type="curve"/>
    </contour>
  </outline>
</glyph>
<glyph name="uni03B8" format="2">
  <advance width="500"/>
  <unicode hex="03B8"/>
  <outline>
    <contour>
      <point x="420" y="278" type="curve"/>
      <point x="420" y="431.53516049999996"/>
      <point x="343.88840749999997" y="556"/>
      <point x="250" y="556" type="curve"/>
      <point x="156.1115925" y="556"/>
      <point x="80" y="431.53516049999996"/>
      <point x="80" y="278" type="curve"/>
      <point x="80" y="124.46483950000001"/>
      <point x="156.1115925" y="0"/>
      <point x="250" y="0" type="curve"/>
      <point x="343.88840749999997" y="0"/>
      <point x="420" y="124.46483950000001"/>
    </contour>
    <contour>
      <point x="390" y="278" type="curve"/>
      <point x="390" y="141.033382"/>
      <point x="327.319865" y="30"/>
      <point x="250" y="30" type="curve"/>
      <point x="172.680135" y="30"/>
      <point x="110" y="141.033382"/>
      <point x="110" y="278" type="curve"/>
      <point x="110" y="414.96661800000004"/>
      <point x="172.680135" y="526"/>
      <point x="250" y="526" type="curve"/>
      <point x="327.319865" y="526"/>
      <point x="390" y="414.96661800000004"/>
    </contour>
    <contour>
      <point x="111.2" y="246" type="curve"/>
      <point x="388.8" y="246" type="line"/>
      <point x="392.7764502" y="246"/>
      <point x="396" y="249.2235498"/>
      <point x="396" y="253.2" type="curve"/>
      <point x="396" y="268.8" type="line"/>
      <point x="396" y="272.7764502"/>
      <point x="392.7764502" y="276"/>
      <point x="388.8" y="276" type="curve"/>
      <point x="111.2" y="276" type="line"/>
      <point x="107.2235498" y="276"/>
      <point x="104" y="272.7764502"/>
      <point x="104" y="268.8" type="curve"/>
      <point x="104" y="253.2" type="line"/>
      <point x="104" y="249.2235498"/>
      <point x="107.2235498" y="246"/>
    </contour>
  </outline>
</glyph>
<glyph name="uni03BC" format="2">
  <advance width="500"/>
  <unicode hex="03BC"/>
  <outline>
    <contour>
      <point x="68.4" y="-210" type="curve"/>
      <point x="81.6" y="-210" type="line"/>
      <point x="86.2391919" y="-210"/>
      <point x="90" y="-206.23919189999998"/>
      <point x="90" y="-201.6" type="curve"/>
      <point x="90" y="546.6" type="line"/>
      <point x="90" y="551.2391919"/>
      <point x="86.2391919" y="555"/>
      <point x="81.6" y="555" type="curve"/>
      <point x="68.4" y="555" type="line"/>
      <point x="63.760808100000006" y="555"/>
      <point x="60" y="551.2391919"/>
      <point x="60" y="546.6" type="curve"/>
      <point x="60" y="-201.6" type="line"/>
      <point x="60" y="-206.23919189999998"/>
      <point x="63.760808100000006" y="-210"/>
    </contour>
    <contour>
      <point x="322.4" y="0" type="curve"/>
      <point x="335.6" y="0" type="line"/>
      <point x="340.23919190000004" y="0"/>
      <point x="344" y="3.7608081"/>
      <point x="344" y="8.4" type="curve"/>
      <point x="344" y="546.6" type="line"/>
      <point x="344" y="551.2391919"/>
      <point x="340.23919190000004" y="555"/>
      <point x="335.6" y="555" type="curve"/>
      <point x="322.4" y="555" type="line"/>
      <point x="317.76080809999996" y="555"/>
      <point x="314" y="551.2391919"/>
      <point x="314" y="546.6" type="curve"/>
      <point x="314" y="8.4" type="line"/>
      <point x="314" y="3.7608081"/>
      <point x="317.76080809999996" y="0"/>
    </contour>
    <contour>
      <point x="124" y="180" type="line"/>
      <point x="124" y="70"/>
      <point x="160" y="48"/>
      <point x="234" y="48" type="curve"/>
      <point x="306" y="48"/>
      <point x="344" y="92"/>
      <point x="344" y="190" type="curve"/>
      <point x="280" y="190" type="line"/>
      <point x="280" y="106"/>
      <point x="264" y="54"/>
      <point x="234" y="54" type="curve"/>
      <point x="202" y="54"/>
      <point x="124" y="96"/>
      <point x="124" y="190" type="curve"/>
    </contour>
  </outline>
</glyph>
<glyph name="uni03C0" format="2">
  <advance width="500"/>
  <unicode hex="03C0"/>
  <outline>
    <contour>
      <point x="66.4" y="525" type="curve"/>
      <point x="433.6" y="525" type="line"/>
      <point x="438.23919190000004" y="525"/>
      <point x="442" y="528.7608081"/>
      <point x="442" y="533.4" type="curve"/>
      <point x="442" y="546.6" type="line"/>
      <point x="442" y="551.2391919"/>
      <point x="438.23919190000004" y="555"/>
      <point x="433.6" y="555" type="curve"/>
      <point x="66.4" y="555" type="line"/>
      <point x="61.760808100000006" y="555"/>
      <point x="58" y="551.2391919"/>
      <point x="58" y="546.6" type="curve"/>
      <point x="58" y="533.4" type="line"/>
      <point x="58" y="528.7608081"/>
      <point x="61.760808100000006" y="525"/>
    </contour>
    <contour>
      <point x="108.4" y="0" type="curve"/>
      <point x="121.6" y="0" type="line"/>
      <point x="126.2391919" y="0"/>
      <point x="130" y="3.7608081"/>
      <point x="130" y="8.4" type="curve"/>
      <point x="130" y="546.6" type="line"/>
      <point x="130" y="551.2391919"/>
      <point x="126.2391919" y="555"/>
      <point x="121.6" y="555" type="curve"/>
      <point x="108.4" y="555" type="line"/>
      <point x="103.7608081" y="555"/>
      <point x="100" y="551.2391919"/>
      <point x="100" y="546.6" type="curve"/>
      <point x="100" y="8.4" type="line"/>
      <point x="100" y="3.7608081"/>
      <point x="103.7608081" y="0"/>
    </contour>
    <contour>
      <point x="350.4" y="0" type="curve"/>
      <point x="363.6" y="0" type="line"/>
      <point x="368.23919190000004" y="0"/>
      <point x="372" y="3.7608081"/>
      <point x="372" y="8.4" type="curve"/>
      <point x="372" y="546.6" type="line"/>
      <point x="372" y="551.2391919"/>
      <point x="368.23919190000004" y="555"/>
      <point x="363.6" y="555" type="curve"/>
      <point x="350.4" y="555" type="line"/>
      <point x="345.76080809999996" y="555"/>
      <point x="342" y="551.2391919"/>
      <point x="342" y="546.6" type="curve"/>
      <point x="342" y="8.4" type="line"/>
      <point x="342" y="3.7608081"/>
      <point x="345.76080809999996" y="0"/>
    </contour>
  </outline>
</glyph>
<glyph name="uni03C1" format="2">
  <advance width="500"/>
  <unicode hex="03C1"/>
  <outline>
    <contour>
      <point x="74.4" y="-210" type="curve"/>
      <point x="87.6" y="-210" type="line"/>
      <point x="92.2391919" y="-210"/>
      <point x="96" y="-206.23919189999998"/>
      <point x="96" y="-201.6" type="curve"/>
      <point x="96" y="546.6" type="line"/>
      <point x="96" y="551.2391919"/>
      <point x="92.2391919" y="555"/>
      <point x="87.6" y="555" type="curve"/>
      <point x="74.4" y="555" type="line"/>
      <point x="69.7608081" y="555"/>
      <point x="66" y="551.2391919"/>
      <point x="66" y="546.6" type="curve"/>
      <point x="66" y="-201.6" type="line"/>
      <point x="66" y="-206.23919189999998"/>
      <point x="69.7608081" y="-210"/>
    </contour>
    <contour>
      <point x="382" y="278" type="curve"/>
      <point x="382" y="413.8620485"/>
      <point x="314.8427125" y="524"/>
      <point x="232" y="524" type="curve"/>
      <point x="149.1572875" y="524"/>
      <point x="82" y="413.8620485"/>
      <point x="82" y="278" type="curve"/>
      <point x="82" y="142.1379515"/>
      <point x="149.1572875" y="32"/>
      <point x="232" y="32" type="curve"/>
      <point x="314.8427125" y="32"/>
      <point x="382" y="142.1379515"/>
    </contour>
    <contour>
      <point x="352" y="278" type="curve"/>
      <point x="352" y="158.70649400000002"/>
      <point x="298.27417" y="62"/>
      <point x="232" y="62" type="curve"/>
      <point x="165.72583" y="62"/>
      <point x="112" y="158.70649400000002"/>
      <point x="112" y="278" type="curve"/>
      <point x="112" y="397.293506"/>
      <point x="165.72583" y="494"/>
      <point x="232" y="494" type="curve"/>
      <point x="298.27417" y="494"/>
      <point x="352" y="397.293506"/>
    </contour>
  </outline>
</glyph>
<glyph name="uni03C2" format="2">
  <advance width="500"/>
  <unicode hex="03C2"/>
  <outline>
    <contour>
      <point x="408.4" y="467.04" type="line"/>
      <point x="336.4" y="556"/>
      <point x="174.4" y="556"/>
      <point x="70" y="397.53999999999996" type="curve"/>
      <point x="70" y="158.46"/>
      <point x="174.4" y="0"/>
      <point x="336.4" y="0" type="curve"/>
      <point x="381.4" y="69.5"/>
      <point x="408.4" y="116.76000000000002"/>
      <point x="408.4" y="139.0" type="curve"/>
      <point x="382.0" y="169.57999999999998" type="line"/>
      <point x="318.4" y="30"/>
      <point x="100" y="189.04"/>
      <point x="100" y="278" type="curve"/>
      <point x="100" y="366.96000000000004"/>
      <point x="318.4" y="526"/>
      <point x="382.0" y="386.42" type="curve"/>
    </contour>
    <contour>
      <point x="308.4" y="-210" type="curve"/>
      <point x="321.6" y="-210" type="line"/>
      <point x="326.23919190000004" y="-210"/>
      <point x="330" y="-206.23919189999998"/>
      <point x="330" y="-201.6" type="curve"/>
      <point x="330" y="-56.4" type="line"/>
      <point x="330" y="-51.7608081"/>
      <point x="326.23919190000004" y="-48"/>
      <point x="321.6" y="-48" type="curve"/>
      <point x="308.4" y="-48" type="line"/>
      <point x="303.76080809999996" y="-48"/>
      <point x="300" y="-51.7608081"/>
      <point x="300" y="-56.4" type="curve"/>
      <point x="300" y="-201.6" type="line"/>
      <point x="300" y="-206.23919189999998"/>
      <point x="303.76080809999996" y="-210"/>
    </contour>
  </outline>
</glyph>
<glyph name="uni03C4" format="2">
  <advance width="500"/>
  <unicode hex="03C4"/>
  <outline>
    <contour>
      <point x="80.4" y="525" type="curve"/>
      <point x="419.6" y="525" type="line"/>
      <point x="424.23919190000004" y="525"/>
      <point x="428" y="528.7608081"/>
      <point x="428" y="533.4" type="curve"/>
      <point x="428" y="546.6" type="line"/>
      <point x="428" y="551.2391919"/>
      <point x="424.23919190000004" y="555"/>
      <point x="419.6" y="555" type="curve"/>
      <point x="80.4" y="555" type="line"/>
      <point x="75.7608081" y="555"/>
      <point x="72" y="551.2391919"/>
      <point x="72" y="546.6" type="curve"/>
      <point x="72" y="533.4" type="line"/>
      <point x="72" y="528.7608081"/>
      <point x="75.7608081" y="525"/>
    </contour>
    <contour>
      <point x="226.4" y="0" type="curve"/>
      <point x="239.6" y="0" type="line"/>
      <point x="244.23919189999998" y="0"/>
      <point x="248" y="3.7608081"/>
      <point x="248" y="8.4" type="curve"/>
      <point x="248" y="546.6" type="line"/>
      <point x="248" y="551.2391919"/>
      <point x="244.23919189999998" y="555"/>
      <point x="239.6" y="555" type="curve"/>
      <point x="226.4" y="555" type="line"/>
      <point x="221.76080810000002" y="555"/>
      <point x="218" y="551.2391919"/>
      <point x="218" y="546.6" type="curve"/>
      <point x="218" y="8.4" type="line"/>
      <point x="218" y="3.7608081"/>
      <point x="221.76080810000002" y="0"/>
    </contour>
  </outline>
</glyph>
<glyph name="uni03C6" format="2">
  <advance width="500"/>
  <unicode hex="03C6"/>
  <outline>
    <contour>
      <point x="428" y="278" type="curve"/>
      <point x="428" y="411.65290949999996"/>
      <point x="348.3066855" y="520"/>
      <point x="250" y="520" type="curve"/>
      <point x="151.69331449999999" y="520"/>
      <point x="72" y="411.65290949999996"/>
      <point x="72" y="278" type="curve"/>
      <point x="72" y="144.3470905"/>
      <point x="151.69331449999999" y="36"/>
      <point x="250" y="36" type="curve"/>
      <point x="348.3066855" y="36"/>
      <point x="428" y="144.3470905"/>
    </contour>
    <contour>
      <point x="398" y="278" type="curve"/>
      <point x="398" y="160.915633"/>
      <point x="331.738143" y="66"/>
      <point x="250" y="66" type="curve"/>
      <point x="168.26185700000002" y="66"/>
      <point x="102" y="160.915633"/>
      <point x="102" y="278" type="curve"/>
      <point x="102" y="395.084367"/>
      <point x="168.26185700000002" y="490"/>
      <point x="250" y="490" type="curve"/>
      <point x="331.738143" y="490"/>
      <point x="398" y="395.084367"/>
    </contour>
    <contour>
      <point x="243.4" y="-210" type="curve"/>
      <point x="256.6" y="-210" type="line"/>
      <point x="261.23919190000004" y="-210"/>
      <point x="265.0" y="-206.23919189999998"/>
      <point x="265.0" y="-201.6" type="curve"/>
      <point x="265.0" y="751.6" type="line"/>
      <point x="265.0" y="756.2391919"/>
      <point x="261.23919190000004" y="760"/>
      <point x="256.6" y="760" type="curve"/>
      <point x="243.4" y="760" type="line"/>
      <point x="238.76080810000002" y="760"/>
      <point x="235.0" y="756.2391919"/>
      <point x="235.0" y="751.6" type="curve"/>
      <point x="235.0" y="-201.6" type="line"/>
      <point x="235.0" y="-206.23919189999998"/>
      <point x="238.76080810000002" y="-210"/>
    </contour>
  </outline>
</glyph>
<glyph name="uni03C8" format="2">
  <advance width="500"/>
  <unicode hex="03C8"/>
  <outline>
    <contour>
      <point x="243.4" y="-210" type="curve"/>
      <point x="256.6" y="-210" type="line"/>
      <point x="261.23919190000004" y="-210"/>
      <point x="265.0" y="-206.23919189999998"/>
      <point x="265.0" y="-201.6" type="curve"/>
      <point x="265.0" y="546.6" type="line"/>
      <point x="265.0" y="551.2391919"/>
      <point x="261.23919190000004" y="555"/>
      <point x="256.6" y="555" type="curve"/>
      <point x="243.4" y="555" type="line"/>
      <point x="238.76080810000002" y="555"/>
      <point x="235.0" y="551.2391919"/>
      <point x="235.0" y="546.6" type="curve"/>
      <point x="235.0" y="-201.6" type="line"/>
      <point x="235.0" y="-206.23919189999998"/>
      <point x="238.76080810000002" y="-210"/>
    </contour>
    <contour>
      <point x="225.2" y="482.8" type="line"/>
      <point x="208.4" y="550"/>
      <point x="113.9" y="550"/>
      <point x="53" y="430.3" type="curve"/>
      <point x="53" y="249.7"/>
      <point x="113.9" y="130"/>
      <point x="208.4" y="130" type="curve"/>
      <point x="234.64999999999998" y="182.5"/>
      <point x="225.2" y="218.2"/>
      <point x="225.2" y="235.0" type="curve"/>
      <point x="206.0" y="258.1" type="line"/>
      <point x="197.9" y="160"/>
      <point x="83" y="272.8"/>
      <point x="83" y="340" type="curve"/>
      <point x="83" y="407.2"/>
      <point x="197.9" y="520"/>
      <point x="206.0" y="421.9" type="curve"/>
    </contour>
    <contour>
      <point x="409.2" y="482.8" type="line"/>
      <point x="392.4" y="550"/>
      <point x="297.9" y="550"/>
      <point x="237" y="430.3" type="curve"/>
      <point x="237" y="249.7"/>
      <point x="297.9" y="130"/>
      <point x="392.4" y="130" type="curve"/>
      <point x="418.65" y="182.5"/>
      <point x="409.2" y="218.2"/>
      <point x="409.2" y="235.0" type="curve"/>
      <point x="390.0" y="258.1" type="line"/>
      <point x="381.9" y="160"/>
      <point x="267" y="272.8"/>
      <point x="267" y="340" type="curve"/>
      <point x="267" y="407.2"/>
      <point x="381.9" y="520"/>
      <point x="390.0" y="421.9" type="curve"/>
    </contour>
  </outline>
</glyph>
<glyph name="uni03CA" format="2">
  <advance width="250"/>
  <unicode hex="03CA"/>
  <outline>
    <contour>
      <point x="96.0" y="615" type="curve"/>
      <point x="96.0" y="619.97056275"/>
      <point x="91.97056275" y="624.0"/>
      <point x="87.0" y="624.0" type="curve"/>
      <point x="82.02943725" y="624.0"/>
      <point x="78.0" y="619.97056275"/>
      <point x="78.0" y="615" type="curve"/>
      <point x="78.0" y="610.02943725"/>
      <point x="82.02943725" y="606.0"/>
      <point x="87.0" y="606.0" type="curve"/>
      <point x="91.97056275" y="606.0"/>
      <point x="96.0" y="610.02943725"/>
    </contour>
    <contour>
      <point x="172.0" y="615" type="curve"/>
      <point x="172.0" y="619.97056275"/>
      <point x="167.97056275" y="624.0"/>
      <point x="163.0" y="624.0" type="curve"/>
      <point x="158.02943725" y="624.0"/>
      <point x="154.0" y="619.97056275"/>
      <point x="154.0" y="615" type="curve"/>
      <point x="154.0" y="610.02943725"/>
      <point x="158.02943725" y="606.0"/>
      <point x="163.0" y="606.0" type="curve"/>
      <point x="167.97056275" y="606.0"/>
      <point x="172.0" y="610.02943725"/>
    </contour>
    <component base="i"/>
  </outline>
</glyph>
<glyph name="uni03CE" format="2">
  <advance width="500"/>
  <unicode hex="03CE"/>
  <outline>
    <contour>
      <point x="64.4" y="0" type="curve"/>
      <point x="77.6" y="0" type="line"/>
      <point x="82.2391919" y="0"/>
      <point x="86" y="3.7608081"/>
      <point x="86" y="8.4" type="curve"/>
      <point x="86" y="241.6" type="line"/>
      <point x="86" y="246.23919189999998"/>
      <point x="82.2391919" y="250"/>
      <point x="77.6" y="250" type="curve"/>
      <point x="64.4" y="250" type="line"/>
      <point x="59.760808100000006" y="250"/>
      <point x="56" y="246.23919189999998"/>
      <point x="56" y="241.6" type="curve"/>
      <point x="56" y="8.4" type="line"/>
      <point x="56" y="3.7608081"/>
      <point x="59.760808100000006" y="0"/>
    </contour>
    <contour>
      <point x="390.4" y="0" type="curve"/>
      <point x="403.6" y="0" type="line"/>
      <point x="408.23919190000004" y="0"/>
      <point x="412" y="3.7608081"/>
      <point x="412" y="8.4" type="curve"/>
      <point x="412" y="241.6" type="line"/>
      <point x="412" y="246.23919189999998"/>
      <point x="408.23919190000004" y="250"/>
      <point x="403.6" y="250" type="curve"/>
      <point x="390.4" y="250" type="line"/>
      <point x="385.76080809999996" y="250"/>
      <point x="382" y="246.23919189999998"/>
      <point x="382" y="241.6" type="curve"/>
      <point x="382" y="8.4" type="line"/>
      <point x="382" y="3.7608081"/>
      <point x="385.76080809999996" y="0"/>
    </contour>
    <contour>
      <point x="56" y="248" type="line"/>
      <point x="56" y="480"/>
      <point x="154" y="560"/>
      <point x="250" y="394" type="curve"/>
      <point x="346" y="560"/>
      <point x="444" y="480"/>
      <point x="444" y="248" type="curve"/>
      <point x="380" y="248" type="line"/>
      <point x="380" y="413"/>
      <point x="326" y="452"/>
      <point x="250" y="276" type="curve"/>
      <point x="174" y="452"/>
      <point x="120" y="413"/>
      <point x="120" y="248" type="curve"/>
    </contour>
    <contour>
      <point x="205.55393370669577" y="561.2807825421938" type="line"/>
      <point x="281.5539337066958" y="639.2807825421938" type="line"/>
      <point x="294.4460662933042" y="626.7192174578062" type="line"/>
      <point x="218.44606629330423" y="548.7192174578062" type="line"/>
    </contour>
  </outline>
</glyph>
<glyph name="uni0414" format="2">
  <advance width="500"/>
  <unicode hex="0414"/>
  <outline>
    <contour>
      <point x="77.2227542745724" y="2.5754628264316692" type="line"/>
      <point x="199.2227542745724" y="702.5754628264317" type="line"/>
      <point x="228.7772457254276" y="697.4245371735683" type="line"/>
      <point x="106.7772457254276" y="-2.5754628264316692" type="line"/>
    </contour>
    <contour>
      <point x="393.22275427457237" y="-2.5754628264316692" type="line"/>
      <point x="271.22275427457237" y="697.4245371735683" type="line"/>
      <point x="300.77724572542763" y="702.5754628264317" type="line"/>
      <point x="422.77724572542763" y="2.5754628264316692" type="line"/>
    </contour>
    <contour>
      <point x="60.4" y="0" type="curve"/>
      <point x="439.6" y="0" type="line"/>
      <point x="444.23919190000004" y="0"/>
      <point x="448" y="3.7608081"/>
      <point x="448" y="8.4" type="curve"/>
      <point x="448" y="21.6" type="line"/>
      <point x="448" y="26.2391919"/>
      <point x="444.23919190000004" y="30"/>
      <point x="439.6" y="30" type="curve"/>
      <point x="60.4" y="30" type="line"/>
      <point x="55.7608081" y="30"/>
      <point x="52" y="26.2391919"/>
      <point x="52" y="21.6" type="curve"/>
      <point x="52" y="8.4" type="line"/>
      <point x="52" y="3.7608081"/>
      <point x="55.7608081" y="0"/>
    </contour>
  </outline>
</glyph>
<glyph name="uni0416" format="2">
  <advance width="500"/>
  <unicode hex="0416"/>
  <outline>
    <contour>
      <point x="243.4" y="0" type="curve"/>
      <point x="256.6" y="0" type="line"/>
      <point x="261.23919190000004" y="0"/>
      <point x="265.0" y="3.7608081"/>
      <point x="265.0" y="8.4" type="curve"/>
      <point x="265.0" y="691.6" type="line"/>
      <point x="265.0" y="696.2391919"/>
      <point x="261.23919190000004" y="700"/>
      <point x="256.6" y="700" type="curve"/>
      <point x="243.4" y="700" type="line"/>
      <point x="238.76080810000002" y="700"/>
      <point x="235.0" y="696.2391919"/>
      <point x="235.0" y="691.6" type="curve"/>
      <point x="235.0" y="8.4" type="line"/>
      <point x="235.0" y="3.7608081"/>
      <point x="238.76080810000002" y="0"/>
    </contour>
    <contour>
      <point x="87.40105740398664" y="706.7388174374332" type="line"/>
      <point x="439.40105740398667" y="6.738817437433282" type="line"/>
      <point x="412.59894259601333" y="-6.738817437433282" type="line"/>
      <point x="60.59894259601336" y="693.2611825625668" type="line"/>
    </contour>
    <contour>
      <point x="439.40105740398667" y="693.2611825625668" type="line"/>
      <point x="87.40105740398664" y="-6.738817437433282" type="line"/>
      <point x="60.59894259601336" y="6.738817437433282" type="line"/>
      <point x="412.59894259601333" y="706.7388174374332" type="line"/>
    </contour>
  </outline>
</glyph>
<glyph name="uni0417" format="2">
  <advance width="500"/>
  <unicode hex="0417"/>
  <outline>
    <contour>
      <point x="414.5" y="697.0" type="line"/>
      <point x="285.0" y="702.4"/>
      <point x="79.5" y="697.6"/>
      <point x="78.0" y="434.0" type="curve"/>
      <point x="76.5" y="357.0"/>
      <point x="229.0" y="352.4"/>
      <point x="246.5" y="350" type="curve"/>
      <point x="285.0" y="266.0"/>
      <point x="423.8" y="329.0"/>
      <point x="422.6" y="203.0" type="curve"/>
      <point x="421.4" y="1.5"/>
      <point x="208.0" y="-1.7999999999999998"/>
      <point x="76.5" y="4.2" type="curve"/>
      <point x="79.8" y="29.4" type="line"/>
      <point x="215.0" y="18.6"/>
      <point x="405.5" y="25.5"/>
      <point x="407.6" y="189.0" type="curve"/>
      <point x="408.8" y="315.0"/>
      <point x="267.5" y="308.0"/>
      <point x="236.0" y="350.9" type="curve"/>
      <point x="190.5" y="354.5"/>
      <point x="88.8" y="353.6"/>
      <point x="90.6" y="448.0" type="curve"/>
      <point x="92.4" y="681.4"/>
      <point x="278.0" y="686.5"/>
      <point x="415.4" y="670.6" type="curve"/>
    </contour>
  </outline>
</glyph>
<glyph name="uni0426" format="2">
  <advance width="500"/>
  <unicode hex="0426"/>
  <outline>
    <contour>
      <point x="66.4" y="150" type="curve"/>
      <point x="79.6" y="150" type="line"/>
      <point x="84.2391919" y="150"/>
      <point x="88" y="153.76080810000002"/>
      <point x="88" y="158.4" type="curve"/>
      <point x="88" y="691.6" type="line"/>
      <point x="88" y="696.2391919"/>
      <point x="84.2391919" y="700"/>
      <point x="79.6" y="700" type="curve"/>
      <point x="66.4" y="700" type="line"/>
      <point x="61.760808100000006" y="700"/>
      <point x="58" y="696.2391919"/>
      <point x="58" y="691.6" type="curve"/>
      <point x="58" y="158.4" type="line"/>
      <point x="58" y="153.76080810000002"/>
      <point x="61.760808100000006" y="150"/>
    </contour>
    <contour>
      <point x="384.4" y="0" type="curve"/>
      <point x="397.6" y="0" type="line"/>
      <point x="402.23919190000004" y="0"/>
      <point x="406" y="3.7608081"/>
      <point x="406" y="8.4" type="curve"/>
      <point x="406" y="691.6" type="line"/>
      <point x="406" y="696.2391919"/>
      <point x="402.23919190000004" y="700"/>
      <point x="397.6" y="700" type="curve"/>
      <point x="384.4" y="700" type="line"/>
      <point x="379.76080809999996" y="700"/>
      <point x="376" y="696.2391919"/>
      <point x="376" y="691.6" type="curve"/>
      <point x="376" y="8.4" type="line"/>
      <point x="376" y="3.7608081"/>
      <point x="379.76080809999996" y="0"/>
    </contour>
    <contour>
      <point x="58" y="0" type="line"/>
      <point x="440" y="0" type="line"/>
      <point x="440" y="30" type="line"/>
      <point x="58" y="30" type="line"/>
    </contour>
    <contour>
      <point x="384.4" y="-210" type="curve"/>
      <point x="397.6" y="-210" type="line"/>
      <point x="402.23919190000004" y="-210"/>
      <point x="406" y="-206.23919189999998"/>
      <point x="406" y="-201.6" type="curve"/>
      <point x="406" y="-58.4" type="line"/>
      <point x="406" y="-53.7608081"/>
      <point x="402.23919190000004" y="-50"/>
      <point x="397.6" y="-50" type="curve"/>
      <point x="384.4" y="-50" type="line"/>
      <point x="379.76080809999996" y="-50"/>
      <point x="376" y="-53.7608081"/>
      <point x="376" y="-58.4" type="curve"/>
      <point x="376" y="-201.6" type="line"/>
      <point x="376" y="-206.23919189999998"/>
      <point x="379.76080809999996" y="-210"/>
    </contour>
  </outline>
</glyph>
<glyph name="uni0427" format="2">
  <advance width="500"/>
  <unicode hex="0427"/>
  <outline>
    <contour>
      <point x="66.4" y="330" type="curve"/>
      <point x="79.6" y="330" type="line"/>
      <point x="84.2391919" y="330"/>
      <point x="88" y="333.76080809999996"/>
      <point x="88" y="338.4" type="curve"/>
      <point x="88" y="691.6" type="line"/>
      <point x="88" y="696.2391919"/>
      <point x="84.2391919" y="700"/>
      <point x="79.6" y="700" type="curve"/>
      <point x="66.4" y="700" type="line"/>
      <point x="61.760808100000006" y="700"/>
      <point x="58" y="696.2391919"/>
      <point x="58" y="691.6" type="curve"/>
      <point x="58" y="338.4" type="line"/>
      <point x="58" y="333.76080809999996"/>
      <point x="61.760808100000006" y="330"/>
    </contour>
    <contour>
      <point x="384.4" y="0" type="curve"/>
      <point x="397.6" y="0" type="line"/>
      <point x="402.23919190000004" y="0"/>
      <point x="406" y="3.7608081"/>
      <point x="406" y="8.4" type="curve"/>
      <point x="406" y="691.6" type="line"/>
      <point x="406" y="696.2391919"/>
      <point x="402.23919190000004" y="700"/>
      <point x="397.6" y="700" type="curve"/>
      <point x="384.4" y="700" type="line"/>
      <point x="379.76080809999996" y="700"/>
      <point x="376" y="696.2391919"/>
      <point x="376" y="691.6" type="curve"/>
      <point x="376" y="8.4" type="line"/>
      <point x="376" y="3.7608081"/>
      <point x="379.76080809999996" y="0"/>
    </contour>
    <contour>
      <point x="66.4" y="300" type="curve"/>
      <point x="431.6" y="300" type="line"/>
      <point x="436.23919190000004" y="300"/>
      <point x="440" y="303.76080809999996"/>
      <point x="440" y="308.4" type="curve"/>
      <point x="440" y="321.6" type="line"/>
      <point x="440" y="326.23919190000004"/>
      <point x="436.23919190000004" y="330"/>
      <point x="431.6" y="330" type="curve"/>
      <point x="66.4" y="330" type="line"/>
      <point x="61.760808100000006" y="330"/>
      <point x="58" y="326.23919190000004"/>
      <point x="58" y="321.6" type="curve"/>
      <point x="58" y="308.4" type="line"/>
      <point x="58" y="303.76080809999996"/>
      <point x="61.760808100000006" y="300"/>
    </contour>
  </outline>
</glyph>
<glyph name="uni0428" format="2">
  <advance width="500"/>
  <unicode hex="0428"/>
  <outline>
    <contour>
      <point x="66.4" y="0" type="curve"/>
      <point x="79.6" y="0" type="line"/>
      <point x="84.2391919" y="0"/>
      <point x="88" y="3.7608081"/>
      <point x="88" y="8.4" type="curve"/>
      <point x="88" y="691.6" type="line"/>
      <point x="88" y="696.2391919"/>
      <point x="84.2391919" y="700"/>
      <point x="79.6" y="700" type="curve"/>
      <point x="66.4" y="700" type="line"/>
      <point x="61.760808100000006" y="700"/>
      <point x="58" y="696.2391919"/>
      <point x="58" y="691.6" type="curve"/>
      <point x="58" y="8.4" type="line"/>
      <point x="58" y="3.7608081"/>
      <point x="61.760808100000006" y="0"/>
    </contour>
    <contour>
      <point x="226.4" y="0" type="curve"/>
      <point x="239.6" y="0" type="line"/>
      <point x="244.23919189999998" y="0"/>
      <point x="248" y="3.7608081"/>
      <point x="248" y="8.4" type="curve"/>
      <point x="248" y="691.6" type="line"/>
      <point x="248" y="696.2391919"/>
      <point x="244.23919189999998" y="700"/>
      <point x="239.6" y="700" type="curve"/>
      <point x="226.4" y="700" type="line"/>
      <point x="221.76080810000002" y="700"/>
      <point x="218" y="696.2391919"/>
      <point x="218" y="691.6" type="curve"/>
      <point x="218" y="8.4" type="line"/>
      <point x="218" y="3.7608081"/>
      <point x="221.76080810000002" y="0"/>
    </contour>
    <contour>
      <point x="384.4" y="0" type="curve"/>
      <point x="397.6" y="0" type="line"/>
      <point x="402.23919190000004" y="0"/>
      <point x="406" y="3.7608081"/>
      <point x="406" y="8.4" type="curve"/>
      <point x="406" y="691.6" type="line"/>
      <point x="406" y="696.2391919"/>
      <point x="402.23919190000004" y="700"/>
      <point x="397.6" y="700" type="curve"/>
      <point x="384.4" y="700" type="line"/>
      <point x="379.76080809999996" y="700"/>
      <point x="376" y="696.2391919"/>
      <point x="376" y="691.6" type="curve"/>
      <point x="376" y="8.4" type="line"/>
      <point x="376" y="3.7608081"/>
      <point x="379.76080809999996" y="0"/>
    </contour>
    <contour>
      <point x="58" y="0" type="line"/>
      <point x="440" y="0" type="line"/>
      <point x="440" y="30" type="line"/>
      <point x="58" y="30" type="line"/>
    </contour>
  </outline>
</glyph>
<glyph name="uni042E" format="2">
  <advance width="500"/>
  <unicode hex="042E"/>
  <outline>
    <contour>
      <point x="62.4" y="0" type="curve"/>
      <point x="75.6" y="0" type="line"/>
      <point x="80.2391919" y="0"/>
      <point x="84" y="3.7608081"/>
      <point x="84" y="8.4" type="curve"/>
      <point x="84" y="691.6" type="line"/>
      <point x="84" y="696.2391919"/>
      <point x="80.2391919" y="700"/>
      <point x="75.6" y="700" type="curve"/>
      <point x="62.4" y="700" type="line"/>
      <point x="57.7608081" y="700"/>
      <point x="54" y="696.2391919"/>
      <point x="54" y="691.6" type="curve"/>
      <point x="54" y="8.4" type="line"/>
      <point x="54" y="3.7608081"/>
      <point x="57.7608081" y="0"/>
    </contour>
    <contour>
      <point x="62.4" y="320" type="curve"/>
      <point x="183.6" y="320" type="line"/>
      <point x="188.23919189999998" y="320"/>
      <point x="192" y="323.76080809999996"/>
      <point x="192" y="328.4" type="curve"/>
      <point x="192" y="341.6" type="line"/>
      <point x="192" y="346.23919190000004"/>
      <point x="188.23919189999998" y="350"/>
      <point x="183.6" y="350" type="curve"/>
      <point x="62.4" y="350" type="line"/>
      <point x="57.7608081" y="350"/>
      <point x="54" y="346.23919190000004"/>
      <point x="54" y="341.6" type="curve"/>
      <point x="54" y="328.4" type="line"/>
      <point x="54" y="323.76080809999996"/>
      <point x="57.7608081" y="320"/>
    </contour>
    <contour>
      <point x="438" y="350" type="curve"/>
      <point x="438" y="488.0711875"/>
      <point x="378.901587" y="600"/>
      <point x="306" y="600" type="curve"/>
      <point x="233.098413" y="600"/>
      <point x="174" y="488.0711875"/>
      <point x="174" y="350" type="curve"/>
      <point x="174" y="211.9288125"/>
      <point x="233.098413" y="100"/>
      <point x="306" y="100" type="curve"/>
      <point x="378.901587" y="100"/>
      <point x="438" y="211.9288125"/>
    </contour>
    <contour>
      <point x="408" y="350" type="curve"/>
      <point x="408" y="228.497355"/>
      <point x="362.3330445" y="130"/>
      <point x="306" y="130" type="curve"/>
      <point x="249.6669555" y="130"/>
      <point x="204" y="228.497355"/>
      <point x="204" y="350" type="curve"/>
      <point x="204" y="471.50264500000003"/>
      <point x="249.6669555" y="570"/>
      <point x="306" y="570" type="curve"/>
      <point x="362.3330445" y="570"/>
      <point x="408" y="471.50264500000003"/>
    </contour>
  </outline>
</glyph>
<glyph name="uni042F" format="2">
  <advance width="500"/>
  <unicode hex="042F"/>
  <outline>
    <contour>
      <point x="354.4" y="0" type="curve"/>
      <point x="367.6" y="0" type="line"/>
      <point x="372.23919190000004" y="0"/>
      <point x="376" y="3.7608081"/>
      <point x="376" y="8.4" type="curve"/>
      <point x="376" y="691.6" type="line"/>
      <point x="376" y="696.2391919"/>
      <point x="372.23919190000004" y="700"/>
      <point x="367.6" y="700" type="curve"/>
      <point x="354.4" y="700" type="line"/>
      <point x="349.76080809999996" y="700"/>
      <point x="346" y="696.2391919"/>
      <point x="346" y="691.6" type="curve"/>
      <point x="346" y="8.4" type="line"/>
      <point x="346" y="3.7608081"/>
      <point x="349.76080809999996" y="0"/>
    </contour>
    <contour>
      <point x="406" y="512" type="curve"/>
      <point x="406" y="598.156421"/>
      <point x="334.36556" y="668"/>
      <point x="246" y="668" type="curve"/>
      <point x="157.63443999999998" y="668"/>
      <point x="86" y="598.156421"/>
      <point x="86" y="512" type="curve"/>
      <point x="86" y="425.843579"/>
      <point x="157.63443999999998" y="356"/>
      <point x="246" y="356" type="curve"/>
      <point x="334.36556" y="356"/>
      <point x="406" y="425.843579"/>
    </contour>
    <contour>
      <point x="376" y="512" type="curve"/>
      <point x="376" y="442.4121215"/>
      <point x="317.7970175" y="386"/>
      <point x="246" y="386" type="curve"/>
      <point x="174.20298250000002" y="386"/>
      <point x="116" y="442.4121215"/>
      <point x="116" y="512" type="curve"/>
      <point x="116" y="581.5878785"/>
      <point x="174.20298250000002" y="638"/>
      <point x="246" y="638" type="curve"/>
      <point x="317.7970175" y="638"/>
      <point x="376" y="581.5878785"/>
    </contour>
    <contour>
      <point x="275.21664517078" y="346.9063203885644" type="line"/>
      <point x="85.21664517078003" y="-7.093679611435603" type="line"/>
      <point x="58.78335482921998" y="7.093679611435603" type="line"/>
      <point x="248.78335482921997" y="361.0936796114356" type="line"/>
    </contour>
  </outline>
</glyph>
<glyph name="uni0434" format="2">
  <advance width="500"/>
  <unicode hex="0434"/>
  <outline>
    <contour>
      <point x="392" y="234" type="curve"/>
      <point x="392" y="363.2346315"/>
      <point x="328.4244345" y="468"/>
      <point x="250" y="468" type="curve"/>
      <point x="171.57556549999998" y="468"/>
      <point x="108" y="363.2346315"/>
      <point x="108" y="234" type="curve"/>
      <point x="108" y="104.7653685"/>
      <point x="171.57556549999998" y="0"/>
      <point x="250" y="0" type="curve"/>
      <point x="328.4244345" y="0"/>
      <point x="392" y="104.7653685"/>
    </contour>
    <contour>
      <point x="362" y="234" type="curve"/>
      <point x="362" y="121.333911"/>
      <point x="311.855892" y="30"/>
      <point x="250" y="30" type="curve"/>
      <point x="188.14410800000002" y="30"/>
      <point x="138" y="121.333911"/>
      <point x="138" y="234" type="curve"/>
      <point x="138" y="346.666089"/>
      <point x="188.14410800000002" y="438"/>
      <point x="250" y="438" type="curve"/>
      <point x="311.855892" y="438"/>
      <point x="362" y="346.666089"/>
    </contour>
    <contour>
      <point x="162.38037647368705" y="-4.2667051075774785" type="line"/>
      <point x="108.38037647368705" y="-186.26670510757748" type="line"/>
      <point x="79.61962352631295" y="-177.73329489242252" type="line"/>
      <point x="133.61962352631295" y="4.2667051075774785" type="line"/>
    </contour>
    <contour>
      <point x="366.3803764736871" y="4.2667051075774785" type="line"/>
      <point x="420.3803764736871" y="-177.73329489242252" type="line"/>
      <point x="391.6196235263129" y="-186.26670510757748" type="line"/>
      <point x="337.6196235263129" y="-4.2667051075774785" type="line"/>
    </contour>
    <contour>
      <point x="80.4" y="-190" type="curve"/>
      <point x="419.6" y="-190" type="line"/>
      <point x="424.23919190000004" y="-190"/>
      <point x="428" y="-186.23919189999998"/>
      <point x="428" y="-181.6" type="curve"/>
      <point x="428" y="-168.4" type="line"/>
      <point x="428" y="-163.76080810000002"/>
      <point x="424.23919190000004" y="-160"/>
      <point x="419.6" y="-160" type="curve"/>
      <point x="80.4" y="-160" type="line"/>
      <point x="75.7608081" y="-160"/>
      <point x="72" y="-163.76080810000002"/>
      <point x="72" y="-168.4" type="curve"/>
      <point x="72" y="-181.6" type="line"/>
      <point x="72" y="-186.23919189999998"/>
      <point x="75.7608081" y="-190"/>
    </contour>
  </outline>
</glyph>
<glyph name="uni0436" format="2">
  <advance width="500"/>
  <unicode hex="0436"/>
  <outline>
    <contour>
      <point x="243.4" y="0" type="curve"/>
      <point x="256.6" y="0" type="line"/>
      <point x="261.23919190000004" y="0"/>
      <point x="265.0" y="3.7608081"/>
      <point x="265.0" y="8.4" type="curve"/>
      <point x="265.0" y="546.6" type="line"/>
      <point x="265.0" y="551.2391919"/>
      <point x="261.23919190000004" y="555"/>
      <point x="256.6" y="555" type="curve"/>
      <point x="243.4" y="555" type="line"/>
      <point x="238.76080810000002" y="555"/>
      <point x="235.0" y="551.2391919"/>
      <point x="235.0" y="546.6" type="curve"/>
      <point x="235.0" y="8.4" type="line"/>
      <point x="235.0" y="3.7608081"/>
      <point x="238.76080810000002" y="0"/>
    </contour>
    <contour>
      <point x="82.58441930541488" y="563.1628665764853" type="line"/>
      <point x="442.5844193054149" y="8.162866576485326" type="line"/>
      <point x="417.4155806945851" y="-8.162866576485326" type="line"/>
      <point x="57.41558069458512" y="546.8371334235147" type="line"/>
    </contour>
    <contour>
      <point x="442.5844193054149" y="546.8371334235147" type="line"/>
      <point x="82.58441930541488" y="-8.162866576485326" type="line"/>
      <point x="57.41558069458512" y="8.162866576485326" type="line"/>
      <point x="417.4155806945851" y="563.1628665764853" type="line"/>
    </contour>
  </outline>
</glyph>
<glyph name="uni0448" format="2">
  <advance width="500"/>
  <unicode hex="0448"/>
  <outline>
    <contour>
      <point x="66.4" y="0" type="curve"/>
      <point x="79.6" y="0" type="line"/>
      <point x="84.2391919" y="0"/>
      <point x="88" y="3.7608081"/>
      <point x="88" y="8.4" type="curve"/>
      <point x="88" y="546.6" type="line"/>
      <point x="88" y="551.2391919"/>
      <point x="84.2391919" y="555"/>
      <point x="79.6" y="555" type="curve"/>
      <point x="66.4" y="555" type="line"/>
      <point x="61.760808100000006" y="555"/>
      <point x="58" y="551.2391919"/>
      <point x="58" y="546.6" type="curve"/>
      <point x="58" y="8.4" type="line"/>
      <point x="58" y="3.7608081"/>
      <point x="61.760808100000006" y="0"/>
    </contour>
    <contour>
      <point x="226.4" y="0" type="curve"/>
      <point x="239.6" y="0" type="line"/>
      <point x="244.23919189999998" y="0"/>
      <point x="248" y="3.7608081"/>
      <point x="248" y="8.4" type="curve"/>
      <point x="248" y="546.6" type="line"/>
      <point x="248" y="551.2391919"/>
      <point x="244.23919189999998" y="555"/>
      <point x="239.6" y="555" type="curve"/>
      <point x="226.4" y="555" type="line"/>
      <point x="221.76080810000002" y="555"/>
      <point x="218" y="551.2391919"/>
      <point x="218" y="546.6" type="curve"/>
      <point x="218" y="8.4" type="line"/>
      <point x="218" y="3.7608081"/>
      <point x="221.76080810000002" y="0"/>
    </contour>
    <contour>
      <point x="354.4" y="0" type="curve"/>
      <point x="367.6" y="0" type="line"/>
      <point x="372.23919190000004" y="0"/>
      <point x="376" y="3.7608081"/>
      <point x="376" y="8.4" type="curve"/>
      <point x="376" y="546.6" type="line"/>
      <point x="376" y="551.2391919"/>
      <point x="372.23919190000004" y="555"/>
      <point x="367.6" y="555" type="curve"/>
      <point x="354.4" y="555" type="line"/>
      <point x="349.76080809999996" y="555"/>
      <point x="346" y="551.2391919"/>
      <point x="346" y="546.6" type="curve"/>
      <point x="346" y="8.4" type="line"/>
      <point x="346" y="3.7608081"/>
      <point x="349.76080809999996" y="0"/>
    </contour>
    <contour>
      <point x="58" y="0" type="line"/>
      <point x="440" y="0" type="line"/>
      <point x="440" y="30" type="line"/>
      <point x="58" y="30" type="line"/>
    </contour>
  </outline>
</glyph>
<glyph name="uni044E" format="2">
  <advance width="500"/>
  <unicode hex="044E"/>
  <outline>
    <contour>
      <point x="62.4" y="0" type="curve"/>
      <point x="75.6" y="0" type="line"/>
      <point x="80.2391919" y="0"/>
      <point x="84" y="3.7608081"/>
      <point x="84" y="8.4" type="curve"/>
      <point x="84" y="546.6" type="line"/>
      <point x="84" y="551.2391919"/>
      <point x="80.2391919" y="555"/>
      <point x="75.6" y="555" type="curve"/>
      <point x="62.4" y="555" type="line"/>
      <point x="57.7608081" y="555"/>
      <point x="54" y="551.2391919"/>
      <point x="54" y="546.6" type="curve"/>
      <point x="54" y="8.4" type="line"/>
      <point x="54" y="3.7608081"/>
      <point x="57.7608081" y="0"/>
    </contour>
    <contour>
      <point x="62.4" y="246" type="curve"/>
      <point x="165.6" y="246" type="line"/>
      <point x="170.23919189999998" y="246"/>
      <point x="174" y="249.76080810000002"/>
      <point x="174" y="254.4" type="curve"/>
      <point x="174" y="267.6" type="line"/>
      <point x="174" y="272.23919190000004"/>
      <point x="170.23919189999998" y="276"/>
      <point x="165.6" y="276" type="curve"/>
      <point x="62.4" y="276" type="line"/>
      <point x="57.7608081" y="276"/>
      <point x="54" y="272.23919190000004"/>
      <point x="54" y="267.6" type="curve"/>
      <point x="54" y="254.4" type="line"/>
      <point x="54" y="249.76080810000002"/>
      <point x="57.7608081" y="246"/>
    </contour>
    <contour>
      <point x="432" y="278" type="curve"/>
      <point x="432" y="412.757479"/>
      <point x="375.5878785" y="522"/>
      <point x="306" y="522" type="curve"/>
      <point x="236.4121215" y="522"/>
      <point x="180" y="412.757479"/>
      <point x="180" y="278" type="curve"/>
      <point x="180" y="143.242521"/>
      <point x="236.4121215" y="34"/>
      <point x="306" y="34" type="curve"/>
      <point x="375.5878785" y="34"/>
      <point x="432" y="143.242521"/>
    </contour>
    <contour>
      <point x="402" y="278" type="curve"/>
      <point x="402" y="159.8110635"/>
      <point x="359.019336" y="64"/>
      <point x="306" y="64" type="curve"/>
      <point x="252.980664" y="64"/>
      <point x="210" y="159.8110635"/>
      <point x="210" y="278" type="curve"/>
      <point x="210" y="396.1889365"/>
      <point x="252.980664" y="492"/>
      <point x="306" y="492" type="curve"/>
      <point x="359.019336" y="492"/>
      <point x="402" y="396.1889365"/>
    </contour>
  </outline>
</glyph>
<glyph name="uni044F" format="2">
  <advance width="500"/>
  <unicode hex="044F"/>
  <outline>
    <contour>
      <point x="354.4" y="0" type="curve"/>
      <point x="367.6" y="0" type="line"/>
      <point x="372.23919190000004" y="0"/>
      <point x="376" y="3.7608081"/>
      <point x="376" y="8.4" type="curve"/>
      <point x="376" y="546.6" type="line"/>
      <point x="376" y="551.2391919"/>
      <point x="372.23919190000004" y="555"/>
      <point x="367.6" y="555" type="curve"/>
      <point x="354.4" y="555" type="line"/>
      <point x="349.76080809999996" y="555"/>
      <point x="346" y="551.2391919"/>
      <point x="346" y="546.6" type="curve"/>
      <point x="346" y="8.4" type="line"/>
      <point x="346" y="3.7608081"/>
      <point x="349.76080809999996" y="0"/>
    </contour>
    <contour>
      <point x="398" y="398" type="curve"/>
      <point x="398" y="480.8427125"/>
      <point x="329.947282" y="548"/>
      <point x="246" y="548" type="curve"/>
      <point x="162.052718" y="548"/>
      <point x="94" y="480.8427125"/>
      <point x="94" y="398" type="curve"/>
      <point x="94" y="315.1572875"/>
      <point x="162.052718" y="248"/>
      <point x="246" y="248" type="curve"/>
      <point x="329.947282" y="248"/>
      <point x="398" y="315.1572875"/>
    </contour>
    <contour>
      <point x="368" y="398" type="curve"/>
      <point x="368" y="331.72583"/>
      <point x="313.3787395" y="278"/>
      <point x="246" y="278" type="curve"/>
      <point x="178.6212605" y="278"/>
      <point x="124" y="331.72583"/>
      <point x="124" y="398" type="curve"/>
      <point x="124" y="464.27417"/>
      <point x="178.6212605" y="518"/>
      <point x="246" y="518" type="curve"/>
      <point x="313.3787395" y="518"/>
      <point x="368" y="464.27417"/>
    </contour>
    <contour>
      <point x="262.38701472810294" y="237.540575307637" type="line"/>
      <point x="94.38701472810294" y="-8.459424692362989" type="line"/>
      <point x="69.61298527189706" y="8.459424692362989" type="line"/>
      <point x="237.61298527189706" y="254.459424692363" type="line"/>
    </contour>
  </outline>
</glyph>
<glyph name="uni045C" format="2">
  <advance width="500"/>
  <unicode hex="045C"/>
  <outline>
    <contour>
      <point x="205.55393370669577" y="561.2807825421938" type="line"/>
      <point x="281.5539337066958" y="639.2807825421938" type="line"/>
      <point x="294.4460662933042" y="626.7192174578062" type="line"/>
      <point x="218.44606629330423" y="548.7192174578062" type="line"/>
    </contour>
    <component base="k"/>
  </outline>
</glyph>
<glyph name="uni04C1" format="2">
  <advance width="500"/>
  <unicode hex="04C1"/>
  <outline>
    <contour>
      <point x="243.4" y="0" type="curve"/>
      <point x="256.6" y="0" type="line"/>
      <point x="261.23919190000004" y="0"/>
      <point x="265.0" y="3.7608081"/>
      <point x="265.0" y="8.4" type="curve"/>
      <point x="265.0" y="691.6" type="line"/>
      <point x="265.0" y="696.2391919"/>
      <point x="261.23919190000004" y="700"/>
      <point x="256.6" y="700" type="curve"/>
      <point x="243.4" y="700" type="line"/>
      <point x="238.76080810000002" y="700"/>
      <point x="235.0" y="696.2391919"/>
      <point x="235.0" y="691.6" type="curve"/>
      <point x="235.0" y="8.4" type="line"/>
      <point x="235.0" y="3.7608081"/>
      <point x="238.76080810000002" y="0"/>
    </contour>
    <contour>
      <point x="87.40105740398664" y="706.7388174374332" type="line"/>
      <point x="439.40105740398667" y="6.738817437433282" type="line"/>
      <point x="412.59894259601333" y="-6.738817437433282" type="line"/>
      <point x="60.59894259601336" y="693.2611825625668" type="line"/>
    </contour>
    <contour>
      <point x="439.40105740398667" y="693.2611825625668" type="line"/>
      <point x="87.40105740398664" y="-6.738817437433282" type="line"/>
      <point x="60.59894259601336" y="6.738817437433282" type="line"/>
      <point x="412.59894259601333" y="706.7388174374332" type="line"/>
    </contour>
    <contour>
      <point x="314.0" y="764" type="curve"/>
      <point x="314.0" y="744.67003375"/>
      <point x="285.346224" y="729"/>
      <point x="250.0" y="729" type="curve"/>
      <point x="214.653776" y="729"/>
      <point x="186.0" y="744.67003375"/>
      <point x="186.0" y="764" type="curve"/>
      <point x="186.0" y="783.32996625"/>
      <point x="214.653776" y="799"/>
      <point x="250.0" y="799" type="curve"/>
      <point x="285.346224" y="799"/>
      <point x="314.0" y="783.32996625"/>
    </contour>
    <contour>
      <point x="180.0" y="728" type="line"/>
      <point x="320.0" y="728" type="line"/>
      <point x="320.0" y="766" type="line"/>
      <point x="180.0" y="766" type="line"/>
    </contour>
  </outline>
</glyph>
